<?xml version="1.0" encoding="UTF-8"?>
<svg id="Layer_2" data-name="Layer 2" xmlns="http://www.w3.org/2000/svg" viewBox="0 0 250 112.5">
  <g id="Layer_1-2" data-name="Layer 1">
    <path d="M216.16,112.5l1.33-44.01-6.2,24.83h-26.77l-2.65-10.42v29.6h-17.04l-13.81-22.32-.66-1.07-3.76,5.54-16.59-27.93-19.69,20.61-14.6-17.07-15.26,26.16c-3.69,2.85-17.25,13.41-20.68,16.08H2.43l.09-32.32h17.17l1.99-23.93-1.33-21H.66L0,0h65.04l-.85,34.54-16.18-.63-1.77,22.33,1.77,23.93h17.08v.06c4.51-15.57,5.19-63.58,5.51-80.23h25.89l12.83,56.25L126.35,0h24.78l3.62,64.35.65-4.49,3.24-59.85h25.88l12.83,56.25L214.38,0h24.78l2.65,65.83,8.19,46.67h-33.84Z"/>
  </g>
</svg>