<svg width="1440" height="1024" viewBox="0 0 1440 1024" fill="none" xmlns="http://www.w3.org/2000/svg">
<g clip-path="url(#clip0_36_8)">
<rect width="1440" height="1024" fill="#E6DBC7"/>
<path d="M1188 0V809H252V0" stroke="#1C521C" stroke-width="27" stroke-linecap="round"/>
<path d="M1409 809L33 809" stroke="#1C521C" stroke-width="27" stroke-linecap="round"/>
<path d="M711 995L711 809" stroke="#1C521C" stroke-width="27" stroke-linecap="round"/>
<path d="M1226 768V771H1232V768H1229H1226ZM208 768V771H214V768H211H208ZM1226 27.4286V30.4286H1232V27.4286H1229H1226ZM1232 82.2857V79.2857H1226V82.2857H1229H1232ZM1226 137.143V140.143H1232V137.143H1229H1226ZM1232 192V189H1226V192H1229H1232ZM1226 246.857V249.857H1232V246.857H1229H1226ZM1232 301.714V298.714H1226V301.714H1229H1232ZM1226 356.571V359.571H1232V356.571H1229H1226ZM1232 411.429V408.429H1226V411.429H1229H1232ZM1226 466.286V469.286H1232V466.286H1229H1226ZM1232 521.143V518.143H1226V521.143H1229H1232ZM1226 576V579H1232V576H1229H1226ZM1232 630.857V627.857H1226V630.857H1229H1232ZM1226 685.714V688.714H1232V685.714H1229H1226ZM1232 740.571V737.571H1226V740.571H1229H1232ZM208 27.4286V30.4286H214V27.4286H211H208ZM214 82.2857V79.2857H208V82.2857H211H214ZM208 137.143V140.143H214V137.143H211H208ZM214 192V189H208V192H211H214ZM208 246.857V249.857H214V246.857H211H208ZM214 301.714V298.714H208V301.714H211H214ZM208 356.571V359.571H214V356.571H211H208ZM214 411.429V408.429H208V411.429H211H214ZM208 466.286V469.286H214V466.286H211H208ZM214 521.143V518.143H208V521.143H211H214ZM208 576V579H214V576H211H208ZM214 630.857V627.857H208V630.857H211H214ZM208 685.714V688.714H214V685.714H211H208ZM214 740.571V737.571H208V740.571H211H214ZM1229 0H1226V27.4286H1229H1232V0H1229ZM1229 82.2857H1226V137.143H1229H1232V82.2857H1229ZM1229 192H1226V246.857H1229H1232V192H1229ZM1229 301.714H1226V356.571H1229H1232V301.714H1229ZM1229 411.429H1226V466.286H1229H1232V411.429H1229ZM1229 521.143H1226V576H1229H1232V521.143H1229ZM1229 630.857H1226V685.714H1229H1232V630.857H1229ZM1229 740.571H1226V768H1229H1232V740.571H1229ZM211 0H208V27.4286H211H214V0H211ZM211 82.2857H208V137.143H211H214V82.2857H211ZM211 192H208V246.857H211H214V192H211ZM211 301.714H208V356.571H211H214V301.714H211ZM211 411.429H208V466.286H211H214V411.429H211ZM211 521.143H208V576H211H214V521.143H211ZM211 630.857H208V685.714H211H214V630.857H211ZM211 740.571H208V768H211H214V740.571H211ZM1226 768V771H1232V768H1229H1226ZM208 768V771H214V768H211H208ZM1226 27.4286V30.4286H1232V27.4286H1229H1226ZM1232 82.2857V79.2857H1226V82.2857H1229H1232ZM1226 137.143V140.143H1232V137.143H1229H1226ZM1232 192V189H1226V192H1229H1232ZM1226 246.857V249.857H1232V246.857H1229H1226ZM1232 301.714V298.714H1226V301.714H1229H1232ZM1226 356.571V359.571H1232V356.571H1229H1226ZM1232 411.429V408.429H1226V411.429H1229H1232ZM1226 466.286V469.286H1232V466.286H1229H1226ZM1232 521.143V518.143H1226V521.143H1229H1232ZM1226 576V579H1232V576H1229H1226ZM1232 630.857V627.857H1226V630.857H1229H1232ZM1226 685.714V688.714H1232V685.714H1229H1226ZM1232 740.571V737.571H1226V740.571H1229H1232ZM208 27.4286V30.4286H214V27.4286H211H208ZM214 82.2857V79.2857H208V82.2857H211H214ZM208 137.143V140.143H214V137.143H211H208ZM214 192V189H208V192H211H214ZM208 246.857V249.857H214V246.857H211H208ZM214 301.714V298.714H208V301.714H211H214ZM208 356.571V359.571H214V356.571H211H208ZM214 411.429V408.429H208V411.429H211H214ZM208 466.286V469.286H214V466.286H211H208ZM214 521.143V518.143H208V521.143H211H214ZM208 576V579H214V576H211H208ZM214 630.857V627.857H208V630.857H211H214ZM208 685.714V688.714H214V685.714H211H208ZM214 740.571V737.571H208V740.571H211H214ZM1229 0H1226V27.4286H1229H1232V0H1229ZM1229 82.2857H1226V137.143H1229H1232V82.2857H1229ZM1229 192H1226V246.857H1229H1232V192H1229ZM1229 301.714H1226V356.571H1229H1232V301.714H1229ZM1229 411.429H1226V466.286H1229H1232V411.429H1229ZM1229 521.143H1226V576H1229H1232V521.143H1229ZM1229 630.857H1226V685.714H1229H1232V630.857H1229ZM1229 740.571H1226V768H1229H1232V740.571H1229ZM211 0H208V27.4286H211H214V0H211ZM211 82.2857H208V137.143H211H214V82.2857H211ZM211 192H208V246.857H211H214V192H211ZM211 301.714H208V356.571H211H214V301.714H211ZM211 411.429H208V466.286H211H214V411.429H211ZM211 521.143H208V576H211H214V521.143H211ZM211 630.857H208V685.714H211H214V630.857H211ZM211 740.571H208V768H211H214V740.571H211Z" fill="#1C521C" fill-opacity="0.51"/>
<path d="M467.074 -179C467.074 -179 416.489 457.364 585.864 582.387C673.983 647.432 744.664 646.977 832.906 582.387C1002.92 457.946 956.093 -179 956.093 -179" stroke="#77563D" stroke-width="7" stroke-linejoin="round" stroke-dasharray="52 52"/>
<path d="M33 847L30 847L30 853L33 853L33 850L33 847ZM59.4375 853L62.4375 853L62.4375 847L59.4375 847L59.4375 850L59.4375 853ZM112.313 847L109.313 847L109.312 853L112.312 853L112.312 850L112.313 847ZM165.187 853L168.187 853L168.188 847L165.188 847L165.187 850L165.187 853ZM218.063 847L215.063 847L215.062 853L218.062 853L218.062 850L218.063 847ZM270.937 853L273.937 853L273.938 847L270.938 847L270.937 850L270.937 853ZM323.813 847L320.813 847L320.812 853L323.812 853L323.812 850L323.813 847ZM376.687 853L379.687 853L379.688 847L376.688 847L376.687 850L376.687 853ZM429.563 847L426.563 847L426.562 853L429.562 853L429.562 850L429.563 847ZM482.437 853L485.437 853L485.437 847L482.437 847L482.437 850L482.437 853ZM535.313 847L532.313 847L532.313 853L535.313 853L535.313 850L535.313 847ZM588.187 853L591.187 853L591.188 847L588.188 847L588.187 850L588.187 853ZM641.062 847L638.062 847L638.062 853L641.062 853L641.062 850L641.062 847ZM33 850L33 853L59.4375 853L59.4375 850L59.4375 847L33 847L33 850ZM112.312 850L112.312 853L165.187 853L165.187 850L165.188 847L112.313 847L112.312 850ZM218.062 850L218.062 853L270.937 853L270.937 850L270.938 847L218.063 847L218.062 850ZM323.812 850L323.812 853L376.687 853L376.687 850L376.688 847L323.813 847L323.812 850ZM429.562 850L429.562 853L482.437 853L482.437 850L482.437 847L429.563 847L429.562 850ZM535.313 850L535.313 853L588.187 853L588.187 850L588.188 847L535.313 847L535.313 850ZM641.062 850L641.062 853L667.5 853L667.5 850L667.5 847L641.062 847L641.062 850ZM33 847L30 847L30 853L33 853L33 850L33 847ZM59.4375 853L62.4375 853L62.4375 847L59.4375 847L59.4375 850L59.4375 853ZM112.313 847L109.313 847L109.312 853L112.312 853L112.312 850L112.313 847ZM165.187 853L168.187 853L168.188 847L165.188 847L165.187 850L165.187 853ZM218.063 847L215.063 847L215.062 853L218.062 853L218.062 850L218.063 847ZM270.937 853L273.937 853L273.938 847L270.938 847L270.937 850L270.937 853ZM323.813 847L320.813 847L320.812 853L323.812 853L323.812 850L323.813 847ZM376.687 853L379.687 853L379.688 847L376.688 847L376.687 850L376.687 853ZM429.563 847L426.563 847L426.562 853L429.562 853L429.562 850L429.563 847ZM482.437 853L485.437 853L485.437 847L482.437 847L482.437 850L482.437 853ZM535.313 847L532.313 847L532.313 853L535.313 853L535.313 850L535.313 847ZM588.187 853L591.187 853L591.188 847L588.188 847L588.187 850L588.187 853ZM641.062 847L638.062 847L638.062 853L641.062 853L641.062 850L641.062 847ZM33 850L33 853L59.4375 853L59.4375 850L59.4375 847L33 847L33 850ZM112.312 850L112.312 853L165.187 853L165.187 850L165.188 847L112.313 847L112.312 850ZM218.062 850L218.062 853L270.937 853L270.937 850L270.938 847L218.063 847L218.062 850ZM323.812 850L323.812 853L376.687 853L376.687 850L376.688 847L323.813 847L323.812 850ZM429.562 850L429.562 853L482.437 853L482.437 850L482.437 847L429.563 847L429.562 850ZM535.313 850L535.313 853L588.187 853L588.187 850L588.188 847L535.313 847L535.313 850ZM641.062 850L641.062 853L667.5 853L667.5 850L667.5 847L641.062 847L641.062 850Z" fill="#1C521C" fill-opacity="0.51"/>
<path d="M754 847L751 847L751 853L754 853L754 850L754 847ZM780.437 853L783.437 853L783.438 847L780.438 847L780.438 850L780.437 853ZM833.313 847L830.313 847L830.312 853L833.312 853L833.312 850L833.313 847ZM886.187 853L889.187 853L889.188 847L886.188 847L886.187 850L886.187 853ZM939.063 847L936.063 847L936.062 853L939.062 853L939.062 850L939.063 847ZM991.937 853L994.937 853L994.938 847L991.938 847L991.937 850L991.937 853ZM1044.81 847L1041.81 847L1041.81 853L1044.81 853L1044.81 850L1044.81 847ZM1097.69 853L1100.69 853L1100.69 847L1097.69 847L1097.69 850L1097.69 853ZM1150.56 847L1147.56 847L1147.56 853L1150.56 853L1150.56 850L1150.56 847ZM1203.44 853L1206.44 853L1206.44 847L1203.44 847L1203.44 850L1203.44 853ZM1256.31 847L1253.31 847L1253.31 853L1256.31 853L1256.31 850L1256.31 847ZM1309.19 853L1312.19 853L1312.19 847L1309.19 847L1309.19 850L1309.19 853ZM1362.06 847L1359.06 847L1359.06 853L1362.06 853L1362.06 850L1362.06 847ZM754 850L754 853L780.437 853L780.438 850L780.438 847L754 847L754 850ZM833.312 850L833.312 853L886.187 853L886.187 850L886.188 847L833.313 847L833.312 850ZM939.062 850L939.062 853L991.937 853L991.937 850L991.938 847L939.063 847L939.062 850ZM1044.81 850L1044.81 853L1097.69 853L1097.69 850L1097.69 847L1044.81 847L1044.81 850ZM1150.56 850L1150.56 853L1203.44 853L1203.44 850L1203.44 847L1150.56 847L1150.56 850ZM1256.31 850L1256.31 853L1309.19 853L1309.19 850L1309.19 847L1256.31 847L1256.31 850ZM1362.06 850L1362.06 853L1388.5 853L1388.5 850L1388.5 847L1362.06 847L1362.06 850ZM754 847L751 847L751 853L754 853L754 850L754 847ZM780.437 853L783.437 853L783.438 847L780.438 847L780.438 850L780.437 853ZM833.313 847L830.313 847L830.312 853L833.312 853L833.312 850L833.313 847ZM886.187 853L889.187 853L889.188 847L886.188 847L886.187 850L886.187 853ZM939.063 847L936.063 847L936.062 853L939.062 853L939.062 850L939.063 847ZM991.937 853L994.937 853L994.938 847L991.938 847L991.937 850L991.937 853ZM1044.81 847L1041.81 847L1041.81 853L1044.81 853L1044.81 850L1044.81 847ZM1097.69 853L1100.69 853L1100.69 847L1097.69 847L1097.69 850L1097.69 853ZM1150.56 847L1147.56 847L1147.56 853L1150.56 853L1150.56 850L1150.56 847ZM1203.44 853L1206.44 853L1206.44 847L1203.44 847L1203.44 850L1203.44 853ZM1256.31 847L1253.31 847L1253.31 853L1256.31 853L1256.31 850L1256.31 847ZM1309.19 853L1312.19 853L1312.19 847L1309.19 847L1309.19 850L1309.19 853ZM1362.06 847L1359.06 847L1359.06 853L1362.06 853L1362.06 850L1362.06 847ZM754 850L754 853L780.437 853L780.438 850L780.438 847L754 847L754 850ZM833.312 850L833.312 853L886.187 853L886.187 850L886.188 847L833.313 847L833.312 850ZM939.062 850L939.062 853L991.937 853L991.937 850L991.938 847L939.063 847L939.062 850ZM1044.81 850L1044.81 853L1097.69 853L1097.69 850L1097.69 847L1044.81 847L1044.81 850ZM1150.56 850L1150.56 853L1203.44 853L1203.44 850L1203.44 847L1150.56 847L1150.56 850ZM1256.31 850L1256.31 853L1309.19 853L1309.19 850L1309.19 847L1256.31 847L1256.31 850ZM1362.06 850L1362.06 853L1388.5 853L1388.5 850L1388.5 847L1362.06 847L1362.06 850Z" fill="#1C521C" fill-opacity="0.51"/>
<g filter="url(#filter0_d_36_8)">
<ellipse cx="711" cy="718.859" rx="41" ry="40.8333" fill="#E99700"/>
<ellipse cx="711" cy="757.808" rx="13.2462" ry="13.1923" fill="#E99700"/>
<path d="M711 676.5C731.724 676.5 748.5 693.228 748.5 713.833C748.5 734.438 731.724 751.167 711 751.167C690.276 751.167 673.5 734.438 673.5 713.833C673.5 693.228 690.276 676.5 711 676.5Z" fill="#E6DBC7" stroke="#E99700" stroke-width="7"/>
<path d="M698.838 701.946V723.885H694.196V706.349H694.063L689.021 709.514V705.392L694.477 701.946H698.838Z" fill="#282828"/>
<path d="M711.936 701.946V723.885H707.294V706.349H707.161L702.12 709.514V705.392L707.575 701.946H711.936Z" fill="#282828"/>
<path d="M723.704 724.179C722.186 724.179 720.826 723.904 719.624 723.355C718.431 722.795 717.49 722.024 716.8 721.043C716.11 720.061 715.75 718.942 715.721 717.686H720.245C720.284 718.53 720.639 719.217 721.309 719.747C721.979 720.267 722.777 720.528 723.704 720.528C724.788 720.528 725.675 720.174 726.365 719.468C727.065 718.751 727.415 717.823 727.415 716.685C727.415 715.536 727.06 714.599 726.35 713.873C725.65 713.146 724.744 712.783 723.63 712.783C722.97 712.783 722.339 712.916 721.738 713.181C721.146 713.446 720.683 713.804 720.348 714.255L716.179 713.519L717.229 701.946H730.697V705.745H721.072L720.511 711.237H720.629C721.023 710.697 721.61 710.251 722.388 709.897C723.167 709.544 724.039 709.367 725.005 709.367C726.335 709.367 727.518 709.676 728.553 710.295C729.598 710.913 730.416 711.762 731.007 712.842C731.608 713.922 731.909 715.163 731.909 716.567C731.909 718.039 731.564 719.35 730.874 720.498C730.184 721.647 729.223 722.55 727.991 723.207C726.759 723.855 725.33 724.179 723.704 724.179Z" fill="#282828"/>
</g>
<g filter="url(#filter1_d_36_8)">
<ellipse cx="338" cy="450.859" rx="41" ry="40.8333" fill="#1C521C"/>
<ellipse cx="338" cy="489.808" rx="13.2462" ry="13.1923" fill="#1C521C"/>
<path d="M338 408.5C358.724 408.5 375.5 425.228 375.5 445.833C375.5 466.438 358.724 483.167 338 483.167C317.276 483.167 300.5 466.438 300.5 445.833C300.5 425.228 317.276 408.5 338 408.5Z" fill="#E6DBC7" stroke="#1C521C" stroke-width="7"/>
<path d="M326.469 433.947V455.885H321.827V438.349H321.694L316.652 441.514V437.392L322.108 433.947H326.469Z" fill="#282828"/>
<path d="M339.567 433.947V455.885H334.925V438.349H334.792L329.751 441.514V437.392L335.206 433.947H339.567Z" fill="#282828"/>
<path d="M343.263 455.885V452.557L351.113 445.313C352.108 444.351 352.867 443.517 353.39 442.81C353.912 442.103 354.173 441.318 354.173 440.454C354.173 439.492 353.853 438.732 353.212 438.172C352.582 437.613 351.783 437.333 350.817 437.333C349.802 437.333 348.989 437.637 348.378 438.246C347.777 438.845 347.476 439.669 347.476 440.719H343.056C343.056 439.276 343.386 438.03 344.046 436.98C344.707 435.919 345.618 435.1 346.781 434.521C347.954 433.942 349.309 433.652 350.847 433.652C352.424 433.652 353.799 433.932 354.972 434.491C356.144 435.041 357.056 435.807 357.707 436.788C358.357 437.76 358.682 438.884 358.682 440.16C358.682 440.984 358.515 441.799 358.18 442.604C357.854 443.399 357.278 444.287 356.45 445.269C355.622 446.25 354.449 447.428 352.931 448.803L349.723 451.939V452.101H358.978V455.885H343.263Z" fill="#282828"/>
</g>
<g filter="url(#filter2_d_36_8)">
<ellipse cx="338" cy="718.859" rx="41" ry="40.8333" fill="#E02754"/>
<ellipse cx="338" cy="757.808" rx="13.2462" ry="13.1923" fill="#E02754"/>
<path d="M338 676.5C358.724 676.5 375.5 693.228 375.5 713.833C375.5 734.438 358.724 751.167 338 751.167C317.276 751.167 300.5 734.438 300.5 713.833C300.5 693.228 317.276 676.5 338 676.5Z" fill="#E6DBC7" stroke="#E02754" stroke-width="7"/>
<path d="M325.207 701.947V723.885H320.565V706.349H320.432L315.391 709.514V705.392L320.846 701.947H325.207Z" fill="#282828"/>
<path d="M338.305 701.947V723.885H333.663V706.349H333.53L328.489 709.514V705.392L333.944 701.947H338.305Z" fill="#282828"/>
<path d="M341.676 720.027V716.39L350.871 701.947H356.696V716.317H359.431V720.027H356.696V723.885H352.246V720.027H341.676ZM346.362 716.317H352.335V707.011H352.158L346.362 716.14V716.317Z" fill="#282828"/>
</g>
<g filter="url(#filter3_d_36_8)">
<ellipse cx="338" cy="65.859" rx="41" ry="40.8333" fill="#E99700"/>
<ellipse cx="338" cy="104.808" rx="13.2462" ry="13.1923" fill="#E99700"/>
<path d="M338 23.5C358.724 23.5 375.5 40.228 375.5 60.833C375.5 81.4382 358.724 98.167 338 98.167C317.276 98.167 300.5 81.4382 300.5 60.833C300.5 40.228 317.276 23.5 338 23.5Z" fill="#E6DBC7" stroke="#E99700" stroke-width="7"/>
<path d="M328.992 48.9465V70.8846H324.35V53.3489H324.217L319.176 56.5144V52.3918L324.631 48.9465H328.992Z" fill="#282828"/>
<path d="M342.09 48.9465V70.8846H337.448V53.3489H337.315L332.274 56.5144V52.3918L337.729 48.9465H342.09Z" fill="#282828"/>
<path d="M355.189 48.9465V70.8846H350.547V53.3489H350.414L345.372 56.5144V52.3918L350.828 48.9465H355.189Z" fill="#282828"/>
</g>
<g filter="url(#filter4_d_36_8)">
<ellipse cx="117" cy="357.859" rx="41" ry="40.8333" fill="#1E8EA8"/>
<ellipse cx="117" cy="396.808" rx="13.2462" ry="13.1923" fill="#1E8EA8"/>
<path d="M117 315.5C137.724 315.5 154.5 332.228 154.5 352.833C154.5 373.438 137.724 390.167 117 390.167C96.2759 390.167 79.5 373.438 79.5 352.833C79.5002 332.228 96.276 315.5 117 315.5Z" fill="#E6DBC7" stroke="#1E8EA8" stroke-width="7"/>
<path d="M104.207 340.947V362.885H99.5649V345.349H99.4319L94.3906 348.514V344.392L99.8458 340.947H104.207Z" fill="#282828"/>
<path d="M117.305 340.947V362.885H112.663V345.349H112.53L107.489 348.514V344.392L112.944 340.947H117.305Z" fill="#282828"/>
<path d="M129.65 363.179C126.841 363.179 124.653 362.193 123.086 360.22C121.528 358.247 120.75 355.484 120.75 351.93C120.75 348.377 121.533 345.609 123.1 343.626C124.668 341.643 126.851 340.652 129.65 340.652C132.449 340.652 134.632 341.643 136.199 343.626C137.766 345.609 138.549 348.377 138.549 351.93C138.549 355.484 137.766 358.247 136.199 360.22C134.642 362.193 132.459 363.179 129.65 363.179ZM125.495 351.93C125.495 354.306 125.85 356.136 126.56 357.422C127.279 358.708 128.309 359.351 129.65 359.351C130.99 359.351 132.015 358.708 132.725 357.422C133.444 356.136 133.804 354.306 133.804 351.93C133.804 349.545 133.444 347.705 132.725 346.409C132.015 345.113 130.99 344.465 129.65 344.465C128.319 344.465 127.294 345.118 126.575 346.424C125.855 347.719 125.495 349.555 125.495 351.93Z" fill="#282828"/>
</g>
<g filter="url(#filter5_d_36_8)">
<ellipse cx="193" cy="920.859" rx="41" ry="40.8333" fill="#1E8EA8"/>
<ellipse cx="193" cy="959.808" rx="13.2462" ry="13.1923" fill="#1E8EA8"/>
<path d="M193 878.5C213.724 878.5 230.5 895.228 230.5 915.833C230.5 936.438 213.724 953.167 193 953.167C172.276 953.167 155.5 936.438 155.5 915.833C155.5 895.228 172.276 878.5 193 878.5Z" fill="#E6DBC7" stroke="#1E8EA8" stroke-width="7"/>
<path d="M177.054 903.947V925.885H172.412V908.349H172.279L167.237 911.514V907.392L172.692 903.947H177.054Z" fill="#282828"/>
<path d="M189.398 926.179C186.589 926.179 184.401 925.193 182.834 923.22C181.277 921.247 180.498 918.484 180.498 914.93C180.498 911.377 181.282 908.609 182.849 906.626C184.416 904.643 186.599 903.652 189.398 903.652C192.197 903.652 194.38 904.643 195.947 906.626C197.514 908.609 198.298 911.377 198.298 914.93C198.298 918.484 197.514 921.247 195.947 923.22C194.39 925.193 192.207 926.179 189.398 926.179ZM185.244 914.93C185.244 917.306 185.599 919.136 186.308 920.422C187.028 921.708 188.058 922.351 189.398 922.351C190.738 922.351 191.763 921.708 192.473 920.422C193.192 919.136 193.552 917.306 193.552 914.93C193.552 912.545 193.192 910.705 192.473 909.409C191.763 908.113 190.738 907.465 189.398 907.465C188.067 907.465 187.042 908.118 186.323 909.424C185.604 910.719 185.244 912.555 185.244 914.93Z" fill="#282828"/>
<path d="M209.74 926.179C208.134 926.179 206.705 925.904 205.453 925.355C204.201 924.805 203.216 924.044 202.496 923.072C201.777 922.091 201.407 920.962 201.388 919.686H206.074C206.104 920.491 206.468 921.139 207.168 921.63C207.868 922.11 208.73 922.351 209.755 922.351C210.82 922.351 211.687 922.081 212.357 921.541C213.037 920.991 213.377 920.285 213.377 919.421C213.377 918.538 213.017 917.816 212.298 917.257C211.578 916.697 210.593 916.417 209.341 916.417H207.286V913.001H209.341C210.396 913.001 211.253 912.736 211.914 912.206C212.584 911.676 212.919 910.979 212.919 910.116C212.919 909.291 212.628 908.624 212.047 908.113C211.475 907.593 210.721 907.333 209.785 907.333C208.829 907.333 208.011 907.583 207.331 908.084C206.66 908.575 206.315 909.237 206.296 910.072H201.831C201.851 908.805 202.21 907.691 202.91 906.729C203.61 905.767 204.556 905.016 205.749 904.477C206.951 903.927 208.306 903.652 209.814 903.652C211.332 903.652 212.658 903.927 213.791 904.477C214.934 905.026 215.821 905.767 216.452 906.7C217.093 907.632 217.413 908.678 217.413 909.836C217.413 911.063 217.029 912.089 216.26 912.913C215.491 913.728 214.491 914.248 213.259 914.474V914.636C214.875 914.842 216.102 915.401 216.94 916.314C217.788 917.227 218.211 918.366 218.211 919.73C218.211 920.977 217.847 922.086 217.117 923.058C216.398 924.029 215.398 924.795 214.116 925.355C212.845 925.904 211.386 926.179 209.74 926.179Z" fill="#282828"/>
</g>
<g filter="url(#filter6_d_36_8)">
<ellipse cx="337" cy="920.859" rx="41" ry="40.8333" fill="#E02754"/>
<ellipse cx="337" cy="959.808" rx="13.2462" ry="13.1923" fill="#E02754"/>
<path d="M337 878.5C357.724 878.5 374.5 895.228 374.5 915.833C374.5 936.438 357.724 953.167 337 953.167C316.276 953.167 299.5 936.438 299.5 915.833C299.5 895.228 316.276 878.5 337 878.5Z" fill="#E6DBC7" stroke="#E02754" stroke-width="7"/>
<path d="M321.054 903.947V925.885H316.412V908.349H316.279L311.237 911.514V907.392L316.692 903.947H321.054Z" fill="#282828"/>
<path d="M333.398 926.179C330.589 926.179 328.401 925.193 326.834 923.22C325.277 921.247 324.498 918.484 324.498 914.93C324.498 911.377 325.282 908.609 326.849 906.626C328.416 904.643 330.599 903.652 333.398 903.652C336.197 903.652 338.38 904.643 339.947 906.626C341.514 908.609 342.298 911.377 342.298 914.93C342.298 918.484 341.514 921.247 339.947 923.22C338.39 925.193 336.207 926.179 333.398 926.179ZM329.244 914.93C329.244 917.306 329.599 919.136 330.308 920.422C331.028 921.708 332.058 922.351 333.398 922.351C334.738 922.351 335.763 921.708 336.473 920.422C337.192 919.136 337.552 917.306 337.552 914.93C337.552 912.545 337.192 910.705 336.473 909.409C335.763 908.113 334.738 907.465 333.398 907.465C332.067 907.465 331.042 908.118 330.323 909.424C329.604 910.719 329.244 912.555 329.244 914.93Z" fill="#282828"/>
<path d="M345.595 925.885V922.557L353.445 915.313C354.44 914.351 355.199 913.517 355.721 912.81C356.244 912.103 356.505 911.318 356.505 910.454C356.505 909.492 356.185 908.732 355.544 908.172C354.913 907.613 354.115 907.333 353.149 907.333C352.134 907.333 351.321 907.637 350.71 908.246C350.108 908.845 349.808 909.669 349.808 910.719H345.388C345.388 909.276 345.718 908.03 346.378 906.98C347.038 905.919 347.95 905.1 349.113 904.521C350.286 903.942 351.641 903.652 353.179 903.652C354.755 903.652 356.13 903.932 357.303 904.491C358.476 905.041 359.388 905.807 360.038 906.788C360.689 907.76 361.014 908.884 361.014 910.16C361.014 910.984 360.846 911.799 360.511 912.604C360.186 913.399 359.609 914.287 358.782 915.269C357.954 916.25 356.781 917.428 355.263 918.803L352.055 921.939V922.101H361.31V925.885H345.595Z" fill="#282828"/>
</g>
<g filter="url(#filter7_d_36_8)">
<ellipse cx="1112" cy="67.859" rx="41" ry="40.8333" fill="#E99700"/>
<ellipse cx="1112" cy="106.808" rx="13.2462" ry="13.1923" fill="#E99700"/>
<path d="M1112 25.5C1132.72 25.5 1149.5 42.228 1149.5 62.833C1149.5 83.4382 1132.72 100.167 1112 100.167C1091.28 100.167 1074.5 83.4382 1074.5 62.833C1074.5 42.228 1091.28 25.5 1112 25.5Z" fill="#E6DBC7" stroke="#E99700" stroke-width="7"/>
<path d="M1099.83 50.9465V72.8846H1095.19V55.3489H1095.06L1090.02 58.5144V54.3918L1095.47 50.9465H1099.83Z" fill="#282828"/>
<path d="M1112.93 50.9465V72.8846H1108.29V55.3489H1108.16L1103.12 58.5144V54.3918L1108.57 50.9465H1112.93Z" fill="#282828"/>
<path d="M1124.61 50.6226C1125.75 50.6226 1126.83 50.814 1127.88 51.1968C1128.93 51.5698 1129.88 52.1784 1130.7 53.0225C1131.53 53.8569 1132.19 54.9611 1132.67 56.3353C1133.15 57.7095 1133.39 59.3978 1133.39 61.4003C1133.39 63.864 1133.02 65.9793 1132.29 67.7461C1131.56 69.5031 1130.52 70.8528 1129.18 71.7951C1127.85 72.7374 1126.28 73.2085 1124.46 73.2085C1123 73.2085 1121.69 72.9239 1120.56 72.3546C1119.44 71.7755 1118.53 70.9951 1117.84 70.0135C1117.16 69.032 1116.75 67.9375 1116.6 66.7302H1121.18C1121.36 67.5056 1121.74 68.1191 1122.32 68.5706C1122.9 69.0123 1123.62 69.2332 1124.46 69.2332C1125.89 69.2332 1126.98 68.6099 1127.72 67.3633C1128.47 66.1069 1128.84 64.4088 1128.84 62.2689H1128.69C1128.2 63.2309 1127.46 63.9867 1126.46 64.5364C1125.46 65.086 1124.37 65.3609 1123.16 65.3609C1121.86 65.3609 1120.7 65.0566 1119.67 64.448C1118.65 63.8395 1117.84 63.0002 1117.25 61.9303C1116.67 60.8604 1116.38 59.6432 1116.38 58.2789C1116.38 56.7967 1116.72 55.4765 1117.41 54.3182C1118.1 53.16 1119.06 52.252 1120.3 51.5944C1121.54 50.9367 1122.98 50.6128 1124.61 50.6226ZM1120.89 58.1611C1120.89 59.2506 1121.24 60.1635 1121.94 60.8997C1122.65 61.6358 1123.54 62.0039 1124.61 62.0039C1125.33 62.0039 1125.97 61.8321 1126.53 61.4886C1127.11 61.1352 1127.55 60.6641 1127.88 60.0751C1128.21 59.4862 1128.38 58.8384 1128.38 58.1316C1128.38 57.4347 1128.22 56.7967 1127.89 56.2176C1127.57 55.6384 1127.13 55.1771 1126.56 54.8335C1126 54.4802 1125.36 54.3035 1124.64 54.3035C1123.57 54.3035 1122.67 54.6765 1121.95 55.4225C1121.24 56.1587 1120.89 57.0715 1120.89 58.1611Z" fill="#282828"/>
</g>
<g filter="url(#filter8_d_36_8)">
<ellipse cx="1112" cy="397.859" rx="41" ry="40.8333" fill="#E99700"/>
<ellipse cx="1112" cy="436.808" rx="13.2462" ry="13.1923" fill="#E99700"/>
<path d="M1112 355.5C1132.72 355.5 1149.5 372.228 1149.5 392.833C1149.5 413.438 1132.72 430.167 1112 430.167C1091.28 430.167 1074.5 413.438 1074.5 392.833C1074.5 372.228 1091.28 355.5 1112 355.5Z" fill="#E6DBC7" stroke="#E99700" stroke-width="7"/>
<path d="M1099.84 380.947V402.885H1095.2V385.349H1095.06L1090.02 388.514V384.392L1095.48 380.947H1099.84Z" fill="#282828"/>
<path d="M1112.94 380.947V402.885H1108.29V385.349H1108.16L1103.12 388.514V384.392L1108.57 380.947H1112.94Z" fill="#282828"/>
<path d="M1124.91 403.179C1123.25 403.179 1121.77 402.909 1120.49 402.369C1119.21 401.829 1118.2 401.093 1117.47 400.161C1116.75 399.228 1116.38 398.168 1116.38 396.98C1116.38 396.068 1116.59 395.228 1117 394.463C1117.43 393.697 1118 393.059 1118.72 392.549C1119.45 392.038 1120.26 391.709 1121.16 391.562V391.43C1119.97 391.184 1119.01 390.61 1118.27 389.707C1117.54 388.804 1117.18 387.754 1117.18 386.556C1117.18 385.418 1117.51 384.407 1118.18 383.523C1118.85 382.63 1119.77 381.928 1120.93 381.418C1122.1 380.907 1123.42 380.652 1124.91 380.652C1126.4 380.652 1127.72 380.912 1128.89 381.432C1130.05 381.943 1130.97 382.645 1131.64 383.538C1132.31 384.421 1132.64 385.427 1132.64 386.556C1132.64 387.754 1132.27 388.804 1131.52 389.707C1130.78 390.61 1129.83 391.184 1128.68 391.43V391.562C1129.56 391.709 1130.36 392.038 1131.08 392.549C1131.81 393.059 1132.38 393.697 1132.81 394.463C1133.24 395.228 1133.46 396.068 1133.46 396.98C1133.46 398.168 1133.09 399.228 1132.35 400.161C1131.62 401.093 1130.61 401.829 1129.32 402.369C1128.04 402.909 1126.57 403.179 1124.91 403.179ZM1121.72 387.042C1121.72 387.906 1122.02 388.613 1122.62 389.162C1123.22 389.712 1123.98 389.987 1124.91 389.987C1125.83 389.987 1126.59 389.712 1127.19 389.162C1127.8 388.613 1128.1 387.906 1128.1 387.042C1128.1 386.188 1127.8 385.496 1127.2 384.966C1126.61 384.426 1125.85 384.156 1124.91 384.156C1123.96 384.156 1123.2 384.421 1122.6 384.951C1122.01 385.481 1121.72 386.178 1121.72 387.042ZM1121.21 396.612C1121.21 397.545 1121.56 398.306 1122.24 398.895C1122.92 399.483 1123.81 399.778 1124.91 399.778C1126.01 399.778 1126.91 399.483 1127.59 398.895C1128.27 398.306 1128.61 397.545 1128.61 396.612C1128.61 395.67 1128.26 394.895 1127.56 394.286C1126.86 393.677 1125.98 393.373 1124.91 393.373C1123.84 393.373 1122.95 393.677 1122.25 394.286C1121.56 394.885 1121.21 395.66 1121.21 396.612Z" fill="#282828"/>
</g>
<g filter="url(#filter9_d_36_8)">
<ellipse cx="1112" cy="718.859" rx="41" ry="40.8333" fill="#E02754"/>
<ellipse cx="1112" cy="757.808" rx="13.2462" ry="13.1923" fill="#E02754"/>
<path d="M1112 676.5C1132.72 676.5 1149.5 693.228 1149.5 713.833C1149.5 734.438 1132.72 751.167 1112 751.167C1091.28 751.167 1074.5 734.438 1074.5 713.833C1074.5 693.228 1091.28 676.5 1112 676.5Z" fill="#E6DBC7" stroke="#E02754" stroke-width="7"/>
<path d="M1099.84 701.947V723.885H1095.2V706.349H1095.06L1090.02 709.514V705.392L1095.48 701.947H1099.84Z" fill="#282828"/>
<path d="M1112.94 701.947V723.885H1108.29V706.349H1108.16L1103.12 709.514V705.392L1108.57 701.947H1112.94Z" fill="#282828"/>
<path d="M1125.18 724.179C1124.04 724.179 1122.95 723.993 1121.9 723.62C1120.85 723.247 1119.91 722.643 1119.07 721.809C1118.24 720.974 1117.59 719.87 1117.11 718.496C1116.62 717.112 1116.38 715.419 1116.38 713.416C1116.38 710.962 1116.75 708.857 1117.47 707.1C1118.21 705.343 1119.25 703.998 1120.59 703.066C1121.93 702.123 1123.51 701.652 1125.32 701.652C1126.79 701.652 1128.09 701.937 1129.21 702.506C1130.34 703.075 1131.24 703.846 1131.92 704.818C1132.61 705.78 1133.03 706.864 1133.17 708.072H1128.61C1128.42 707.306 1128.04 706.707 1127.45 706.275C1126.88 705.843 1126.17 705.627 1125.32 705.627C1123.9 705.627 1122.81 706.246 1122.06 707.483C1121.32 708.719 1120.95 710.408 1120.95 712.547H1121.1C1121.59 711.586 1122.33 710.83 1123.33 710.28C1124.32 709.73 1125.42 709.456 1126.63 709.456C1127.94 709.456 1129.1 709.76 1130.11 710.368C1131.13 710.977 1131.93 711.816 1132.51 712.886C1133.1 713.946 1133.4 715.163 1133.4 716.538C1133.4 718.02 1133.05 719.34 1132.36 720.498C1131.67 721.647 1130.71 722.55 1129.48 723.207C1128.25 723.855 1126.81 724.179 1125.18 724.179ZM1121.41 716.67C1121.41 717.377 1121.57 718.025 1121.9 718.614C1122.22 719.193 1122.66 719.659 1123.23 720.012C1123.79 720.356 1124.42 720.528 1125.13 720.528C1126.22 720.528 1127.11 720.16 1127.82 719.423C1128.54 718.677 1128.9 717.755 1128.9 716.655C1128.9 715.576 1128.55 714.668 1127.84 713.931C1127.14 713.185 1126.25 712.812 1125.18 712.812C1124.47 712.812 1123.83 712.989 1123.26 713.343C1122.68 713.686 1122.23 714.152 1121.9 714.741C1121.57 715.32 1121.41 715.963 1121.41 716.67Z" fill="#282828"/>
</g>
<g filter="url(#filter10_d_36_8)">
<ellipse cx="1130" cy="925.859" rx="41" ry="40.8333" fill="#1E8EA8"/>
<ellipse cx="1130" cy="964.808" rx="13.2462" ry="13.1923" fill="#1E8EA8"/>
<path d="M1130 883.5C1150.72 883.5 1167.5 900.228 1167.5 920.833C1167.5 941.438 1150.72 958.167 1130 958.167C1109.28 958.167 1092.5 941.438 1092.5 920.833C1092.5 900.228 1109.28 883.5 1130 883.5Z" fill="#E6DBC7" stroke="#1E8EA8" stroke-width="7"/>
<path d="M1114.68 908.947V930.885H1110.04V913.349H1109.91L1104.87 916.514V912.392L1110.32 908.947H1114.68Z" fill="#282828"/>
<path d="M1118.38 930.885V927.557L1126.23 920.313C1127.23 919.351 1127.98 918.517 1128.51 917.81C1129.03 917.103 1129.29 916.318 1129.29 915.454C1129.29 914.492 1128.97 913.732 1128.33 913.172C1127.7 912.613 1126.9 912.333 1125.93 912.333C1124.92 912.333 1124.11 912.637 1123.5 913.246C1122.89 913.845 1122.59 914.669 1122.59 915.719H1118.17C1118.17 914.276 1118.5 913.03 1119.16 911.98C1119.82 910.92 1120.74 910.1 1121.9 909.521C1123.07 908.942 1124.43 908.652 1125.96 908.652C1127.54 908.652 1128.92 908.932 1130.09 909.491C1131.26 910.041 1132.17 910.807 1132.82 911.788C1133.47 912.76 1133.8 913.884 1133.8 915.16C1133.8 915.984 1133.63 916.799 1133.3 917.604C1132.97 918.399 1132.4 919.287 1131.57 920.269C1130.74 921.251 1129.57 922.428 1128.05 923.803L1124.84 926.939V927.101H1134.1V930.885H1118.38Z" fill="#282828"/>
<path d="M1146 931.179C1144.86 931.179 1143.77 930.993 1142.71 930.62C1141.67 930.247 1140.73 929.643 1139.89 928.809C1139.06 927.974 1138.41 926.87 1137.92 925.496C1137.44 924.112 1137.2 922.419 1137.2 920.416C1137.2 917.962 1137.56 915.857 1138.29 914.1C1139.03 912.343 1140.07 910.998 1141.41 910.066C1142.75 909.123 1144.33 908.652 1146.14 908.652C1147.61 908.652 1148.91 908.937 1150.03 909.506C1151.16 910.075 1152.06 910.846 1152.74 911.818C1153.43 912.78 1153.85 913.864 1153.99 915.072H1149.43C1149.24 914.306 1148.85 913.707 1148.27 913.275C1147.7 912.843 1146.99 912.627 1146.14 912.627C1144.72 912.627 1143.63 913.246 1142.88 914.483C1142.14 915.719 1141.77 917.408 1141.77 919.548H1141.92C1142.41 918.586 1143.15 917.83 1144.15 917.28C1145.14 916.73 1146.24 916.456 1147.45 916.456C1148.76 916.456 1149.92 916.76 1150.93 917.368C1151.95 917.977 1152.75 918.816 1153.33 919.886C1153.92 920.946 1154.22 922.163 1154.22 923.538C1154.22 925.02 1153.87 926.34 1153.18 927.498C1152.49 928.647 1151.53 929.55 1150.3 930.207C1149.07 930.855 1147.63 931.179 1146 931.179ZM1142.23 923.67C1142.23 924.377 1142.39 925.025 1142.71 925.614C1143.04 926.193 1143.48 926.659 1144.04 927.012C1144.61 927.356 1145.24 927.528 1145.95 927.528C1147.04 927.528 1147.93 927.16 1148.64 926.423C1149.36 925.677 1149.72 924.755 1149.72 923.655C1149.72 922.576 1149.37 921.668 1148.66 920.932C1147.96 920.186 1147.07 919.813 1146 919.813C1145.29 919.813 1144.65 919.989 1144.07 920.343C1143.5 920.686 1143.05 921.152 1142.71 921.741C1142.39 922.32 1142.23 922.963 1142.23 923.67Z" fill="#282828"/>
</g>
<g filter="url(#filter11_d_36_8)">
<ellipse cx="1247" cy="925.859" rx="41" ry="40.8333" fill="#1E8EA8"/>
<ellipse cx="1247" cy="964.808" rx="13.2462" ry="13.1923" fill="#1E8EA8"/>
<path d="M1247 883.5C1267.72 883.5 1284.5 900.228 1284.5 920.833C1284.5 941.438 1267.72 958.167 1247 958.167C1226.28 958.167 1209.5 941.438 1209.5 920.833C1209.5 900.228 1226.28 883.5 1247 883.5Z" fill="#E6DBC7" stroke="#1E8EA8" stroke-width="7"/>
<path d="M1231.68 908.947V930.885H1227.04V913.349H1226.91L1221.87 916.514V912.392L1227.32 908.947H1231.68Z" fill="#282828"/>
<path d="M1235.38 930.885V927.557L1243.23 920.313C1244.23 919.351 1244.98 918.517 1245.51 917.81C1246.03 917.103 1246.29 916.318 1246.29 915.454C1246.29 914.492 1245.97 913.732 1245.33 913.172C1244.7 912.613 1243.9 912.333 1242.93 912.333C1241.92 912.333 1241.11 912.637 1240.5 913.246C1239.89 913.845 1239.59 914.669 1239.59 915.719H1235.17C1235.17 914.276 1235.5 913.03 1236.16 911.98C1236.82 910.92 1237.74 910.1 1238.9 909.521C1240.07 908.942 1241.43 908.652 1242.96 908.652C1244.54 908.652 1245.92 908.932 1247.09 909.491C1248.26 910.041 1249.17 910.807 1249.82 911.788C1250.47 912.76 1250.8 913.884 1250.8 915.16C1250.8 915.984 1250.63 916.799 1250.3 917.604C1249.97 918.399 1249.4 919.287 1248.57 920.269C1247.74 921.251 1246.57 922.428 1245.05 923.803L1241.84 926.939V927.101H1251.1V930.885H1235.38Z" fill="#282828"/>
<path d="M1262.52 931.179C1261.01 931.179 1259.65 930.904 1258.44 930.355C1257.25 929.795 1256.31 929.025 1255.62 928.043C1254.93 927.061 1254.57 925.942 1254.54 924.686H1259.06C1259.1 925.53 1259.46 926.217 1260.13 926.747C1260.8 927.268 1261.6 927.528 1262.52 927.528C1263.61 927.528 1264.49 927.174 1265.18 926.468C1265.88 925.751 1266.23 924.823 1266.23 923.685C1266.23 922.536 1265.88 921.599 1265.17 920.873C1264.47 920.146 1263.56 919.783 1262.45 919.783C1261.79 919.783 1261.16 919.916 1260.56 920.181C1259.97 920.446 1259.5 920.804 1259.17 921.255L1255 920.519L1256.05 908.947H1269.52V912.745H1259.89L1259.33 918.237H1259.45C1259.84 917.697 1260.43 917.251 1261.21 916.897C1261.99 916.544 1262.86 916.367 1263.82 916.367C1265.15 916.367 1266.34 916.676 1267.37 917.295C1268.42 917.913 1269.23 918.762 1269.83 919.842C1270.43 920.922 1270.73 922.163 1270.73 923.567C1270.73 925.039 1270.38 926.35 1269.69 927.498C1269 928.647 1268.04 929.55 1266.81 930.207C1265.58 930.855 1264.15 931.179 1262.52 931.179Z" fill="#282828"/>
</g>
<g filter="url(#filter12_d_36_8)">
<ellipse cx="1301" cy="522.859" rx="41" ry="40.8333" fill="#1E8EA8"/>
<ellipse cx="1301" cy="561.808" rx="13.2462" ry="13.1923" fill="#1E8EA8"/>
<path d="M1301 480.5C1321.72 480.5 1338.5 497.228 1338.5 517.833C1338.5 538.438 1321.72 555.167 1301 555.167C1280.28 555.167 1263.5 538.438 1263.5 517.833C1263.5 497.228 1280.28 480.5 1301 480.5Z" fill="#E6DBC7" stroke="#1E8EA8" stroke-width="7"/>
<path d="M1289.47 505.947V527.885H1284.83V510.349H1284.69L1279.65 513.514V509.392L1285.11 505.947H1289.47Z" fill="#282828"/>
<path d="M1293.16 527.885V524.557L1301.01 517.313C1302.01 516.351 1302.77 515.517 1303.29 514.81C1303.81 514.103 1304.07 513.318 1304.07 512.454C1304.07 511.492 1303.75 510.732 1303.11 510.172C1302.48 509.613 1301.68 509.333 1300.72 509.333C1299.7 509.333 1298.89 509.637 1298.28 510.246C1297.68 510.845 1297.38 511.669 1297.38 512.719H1292.96C1292.96 511.276 1293.29 510.03 1293.95 508.98C1294.61 507.919 1295.52 507.1 1296.68 506.521C1297.86 505.942 1299.21 505.652 1300.75 505.652C1302.33 505.652 1303.7 505.932 1304.87 506.491C1306.05 507.041 1306.96 507.807 1307.61 508.788C1308.26 509.76 1308.58 510.884 1308.58 512.16C1308.58 512.984 1308.42 513.799 1308.08 514.604C1307.76 515.399 1307.18 516.287 1306.35 517.269C1305.52 518.25 1304.35 519.428 1302.83 520.803L1299.63 523.939V524.101H1308.88V527.885H1293.16Z" fill="#282828"/>
<path d="M1321.64 505.947V527.885H1317V510.349H1316.86L1311.82 513.514V509.392L1317.28 505.947H1321.64Z" fill="#282828"/>
</g>
<g filter="url(#filter13_d_36_8)">
<ellipse cx="1301" cy="259.859" rx="41" ry="40.8333" fill="#1E8EA8"/>
<ellipse cx="1301" cy="298.808" rx="13.2462" ry="13.1923" fill="#1E8EA8"/>
<path d="M1301 217.5C1321.72 217.5 1338.5 234.228 1338.5 254.833C1338.5 275.438 1321.72 292.167 1301 292.167C1280.28 292.167 1263.5 275.438 1263.5 254.833C1263.5 234.228 1280.28 217.5 1301 217.5Z" fill="#E6DBC7" stroke="#1E8EA8" stroke-width="7"/>
<path d="M1285.05 242.947V264.885H1280.41V247.349H1280.28L1275.24 250.514V246.392L1280.69 242.947H1285.05Z" fill="#282828"/>
<path d="M1288.75 264.885V261.557L1296.6 254.313C1297.6 253.351 1298.35 252.517 1298.88 251.81C1299.4 251.103 1299.66 250.318 1299.66 249.454C1299.66 248.492 1299.34 247.732 1298.7 247.172C1298.07 246.613 1297.27 246.333 1296.3 246.333C1295.29 246.333 1294.48 246.637 1293.86 247.246C1293.26 247.845 1292.96 248.669 1292.96 249.719H1288.54C1288.54 248.276 1288.87 247.03 1289.53 245.98C1290.19 244.919 1291.11 244.1 1292.27 243.521C1293.44 242.942 1294.8 242.652 1296.33 242.652C1297.91 242.652 1299.29 242.932 1300.46 243.491C1301.63 244.041 1302.54 244.807 1303.19 245.788C1303.84 246.76 1304.17 247.884 1304.17 249.16C1304.17 249.984 1304 250.799 1303.67 251.604C1303.34 252.399 1302.76 253.287 1301.94 254.269C1301.11 255.25 1299.94 256.428 1298.42 257.803L1295.21 260.939V261.101H1304.46V264.885H1288.75Z" fill="#282828"/>
<path d="M1316.47 265.179C1313.66 265.179 1311.47 264.193 1309.9 262.22C1308.35 260.247 1307.57 257.484 1307.57 253.93C1307.57 250.377 1308.35 247.609 1309.92 245.626C1311.49 243.643 1313.67 242.652 1316.47 242.652C1319.27 242.652 1321.45 243.643 1323.02 245.626C1324.59 247.609 1325.37 250.377 1325.37 253.93C1325.37 257.484 1324.59 260.247 1323.02 262.22C1321.46 264.193 1319.28 265.179 1316.47 265.179ZM1312.31 253.93C1312.31 256.306 1312.67 258.136 1313.38 259.422C1314.1 260.708 1315.13 261.351 1316.47 261.351C1317.81 261.351 1318.83 260.708 1319.54 259.422C1320.26 258.136 1320.62 256.306 1320.62 253.93C1320.62 251.545 1320.26 249.705 1319.54 248.409C1318.83 247.113 1317.81 246.465 1316.47 246.465C1315.14 246.465 1314.11 247.118 1313.39 248.424C1312.67 249.719 1312.31 251.555 1312.31 253.93Z" fill="#282828"/>
</g>
</g>
<defs>
<filter id="filter0_d_36_8" x="651.1" y="654.1" width="119.8" height="135.8" filterUnits="userSpaceOnUse" color-interpolation-filters="sRGB">
<feFlood flood-opacity="0" result="BackgroundImageFix"/>
<feColorMatrix in="SourceAlpha" type="matrix" values="0 0 0 0 0 0 0 0 0 0 0 0 0 0 0 0 0 0 127 0" result="hardAlpha"/>
<feOffset/>
<feGaussianBlur stdDeviation="9.45"/>
<feComposite in2="hardAlpha" operator="out"/>
<feColorMatrix type="matrix" values="0 0 0 0 0 0 0 0 0 0 0 0 0 0 0 0 0 0 0.12 0"/>
<feBlend mode="normal" in2="BackgroundImageFix" result="effect1_dropShadow_36_8"/>
<feBlend mode="normal" in="SourceGraphic" in2="effect1_dropShadow_36_8" result="shape"/>
</filter>
<filter id="filter1_d_36_8" x="279.2" y="387.2" width="117.6" height="133.6" filterUnits="userSpaceOnUse" color-interpolation-filters="sRGB">
<feFlood flood-opacity="0" result="BackgroundImageFix"/>
<feColorMatrix in="SourceAlpha" type="matrix" values="0 0 0 0 0 0 0 0 0 0 0 0 0 0 0 0 0 0 127 0" result="hardAlpha"/>
<feOffset/>
<feGaussianBlur stdDeviation="8.9"/>
<feComposite in2="hardAlpha" operator="out"/>
<feColorMatrix type="matrix" values="0 0 0 0 0 0 0 0 0 0 0 0 0 0 0 0 0 0 0.25 0"/>
<feBlend mode="normal" in2="BackgroundImageFix" result="effect1_dropShadow_36_8"/>
<feBlend mode="normal" in="SourceGraphic" in2="effect1_dropShadow_36_8" result="shape"/>
</filter>
<filter id="filter2_d_36_8" x="279.2" y="655.2" width="117.6" height="133.6" filterUnits="userSpaceOnUse" color-interpolation-filters="sRGB">
<feFlood flood-opacity="0" result="BackgroundImageFix"/>
<feColorMatrix in="SourceAlpha" type="matrix" values="0 0 0 0 0 0 0 0 0 0 0 0 0 0 0 0 0 0 127 0" result="hardAlpha"/>
<feOffset/>
<feGaussianBlur stdDeviation="8.9"/>
<feComposite in2="hardAlpha" operator="out"/>
<feColorMatrix type="matrix" values="0 0 0 0 0 0 0 0 0 0 0 0 0 0 0 0 0 0 0.25 0"/>
<feBlend mode="normal" in2="BackgroundImageFix" result="effect1_dropShadow_36_8"/>
<feBlend mode="normal" in="SourceGraphic" in2="effect1_dropShadow_36_8" result="shape"/>
</filter>
<filter id="filter3_d_36_8" x="279.2" y="2.2" width="117.6" height="133.6" filterUnits="userSpaceOnUse" color-interpolation-filters="sRGB">
<feFlood flood-opacity="0" result="BackgroundImageFix"/>
<feColorMatrix in="SourceAlpha" type="matrix" values="0 0 0 0 0 0 0 0 0 0 0 0 0 0 0 0 0 0 127 0" result="hardAlpha"/>
<feOffset/>
<feGaussianBlur stdDeviation="8.9"/>
<feComposite in2="hardAlpha" operator="out"/>
<feColorMatrix type="matrix" values="0 0 0 0 0 0 0 0 0 0 0 0 0 0 0 0 0 0 0.25 0"/>
<feBlend mode="normal" in2="BackgroundImageFix" result="effect1_dropShadow_36_8"/>
<feBlend mode="normal" in="SourceGraphic" in2="effect1_dropShadow_36_8" result="shape"/>
</filter>
<filter id="filter4_d_36_8" x="58.2" y="294.2" width="117.6" height="133.6" filterUnits="userSpaceOnUse" color-interpolation-filters="sRGB">
<feFlood flood-opacity="0" result="BackgroundImageFix"/>
<feColorMatrix in="SourceAlpha" type="matrix" values="0 0 0 0 0 0 0 0 0 0 0 0 0 0 0 0 0 0 127 0" result="hardAlpha"/>
<feOffset/>
<feGaussianBlur stdDeviation="8.9"/>
<feComposite in2="hardAlpha" operator="out"/>
<feColorMatrix type="matrix" values="0 0 0 0 0 0 0 0 0 0 0 0 0 0 0 0 0 0 0.25 0"/>
<feBlend mode="normal" in2="BackgroundImageFix" result="effect1_dropShadow_36_8"/>
<feBlend mode="normal" in="SourceGraphic" in2="effect1_dropShadow_36_8" result="shape"/>
</filter>
<filter id="filter5_d_36_8" x="134.2" y="857.2" width="117.6" height="133.6" filterUnits="userSpaceOnUse" color-interpolation-filters="sRGB">
<feFlood flood-opacity="0" result="BackgroundImageFix"/>
<feColorMatrix in="SourceAlpha" type="matrix" values="0 0 0 0 0 0 0 0 0 0 0 0 0 0 0 0 0 0 127 0" result="hardAlpha"/>
<feOffset/>
<feGaussianBlur stdDeviation="8.9"/>
<feComposite in2="hardAlpha" operator="out"/>
<feColorMatrix type="matrix" values="0 0 0 0 0 0 0 0 0 0 0 0 0 0 0 0 0 0 0.25 0"/>
<feBlend mode="normal" in2="BackgroundImageFix" result="effect1_dropShadow_36_8"/>
<feBlend mode="normal" in="SourceGraphic" in2="effect1_dropShadow_36_8" result="shape"/>
</filter>
<filter id="filter6_d_36_8" x="278.2" y="857.2" width="117.6" height="133.6" filterUnits="userSpaceOnUse" color-interpolation-filters="sRGB">
<feFlood flood-opacity="0" result="BackgroundImageFix"/>
<feColorMatrix in="SourceAlpha" type="matrix" values="0 0 0 0 0 0 0 0 0 0 0 0 0 0 0 0 0 0 127 0" result="hardAlpha"/>
<feOffset/>
<feGaussianBlur stdDeviation="8.9"/>
<feComposite in2="hardAlpha" operator="out"/>
<feColorMatrix type="matrix" values="0 0 0 0 0 0 0 0 0 0 0 0 0 0 0 0 0 0 0.25 0"/>
<feBlend mode="normal" in2="BackgroundImageFix" result="effect1_dropShadow_36_8"/>
<feBlend mode="normal" in="SourceGraphic" in2="effect1_dropShadow_36_8" result="shape"/>
</filter>
<filter id="filter7_d_36_8" x="1053.2" y="4.2" width="117.6" height="133.6" filterUnits="userSpaceOnUse" color-interpolation-filters="sRGB">
<feFlood flood-opacity="0" result="BackgroundImageFix"/>
<feColorMatrix in="SourceAlpha" type="matrix" values="0 0 0 0 0 0 0 0 0 0 0 0 0 0 0 0 0 0 127 0" result="hardAlpha"/>
<feOffset/>
<feGaussianBlur stdDeviation="8.9"/>
<feComposite in2="hardAlpha" operator="out"/>
<feColorMatrix type="matrix" values="0 0 0 0 0 0 0 0 0 0 0 0 0 0 0 0 0 0 0.25 0"/>
<feBlend mode="normal" in2="BackgroundImageFix" result="effect1_dropShadow_36_8"/>
<feBlend mode="normal" in="SourceGraphic" in2="effect1_dropShadow_36_8" result="shape"/>
</filter>
<filter id="filter8_d_36_8" x="1053.2" y="334.2" width="117.6" height="133.6" filterUnits="userSpaceOnUse" color-interpolation-filters="sRGB">
<feFlood flood-opacity="0" result="BackgroundImageFix"/>
<feColorMatrix in="SourceAlpha" type="matrix" values="0 0 0 0 0 0 0 0 0 0 0 0 0 0 0 0 0 0 127 0" result="hardAlpha"/>
<feOffset/>
<feGaussianBlur stdDeviation="8.9"/>
<feComposite in2="hardAlpha" operator="out"/>
<feColorMatrix type="matrix" values="0 0 0 0 0 0 0 0 0 0 0 0 0 0 0 0 0 0 0.25 0"/>
<feBlend mode="normal" in2="BackgroundImageFix" result="effect1_dropShadow_36_8"/>
<feBlend mode="normal" in="SourceGraphic" in2="effect1_dropShadow_36_8" result="shape"/>
</filter>
<filter id="filter9_d_36_8" x="1053.2" y="655.2" width="117.6" height="133.6" filterUnits="userSpaceOnUse" color-interpolation-filters="sRGB">
<feFlood flood-opacity="0" result="BackgroundImageFix"/>
<feColorMatrix in="SourceAlpha" type="matrix" values="0 0 0 0 0 0 0 0 0 0 0 0 0 0 0 0 0 0 127 0" result="hardAlpha"/>
<feOffset/>
<feGaussianBlur stdDeviation="8.9"/>
<feComposite in2="hardAlpha" operator="out"/>
<feColorMatrix type="matrix" values="0 0 0 0 0 0 0 0 0 0 0 0 0 0 0 0 0 0 0.25 0"/>
<feBlend mode="normal" in2="BackgroundImageFix" result="effect1_dropShadow_36_8"/>
<feBlend mode="normal" in="SourceGraphic" in2="effect1_dropShadow_36_8" result="shape"/>
</filter>
<filter id="filter10_d_36_8" x="1071.2" y="862.2" width="117.6" height="133.6" filterUnits="userSpaceOnUse" color-interpolation-filters="sRGB">
<feFlood flood-opacity="0" result="BackgroundImageFix"/>
<feColorMatrix in="SourceAlpha" type="matrix" values="0 0 0 0 0 0 0 0 0 0 0 0 0 0 0 0 0 0 127 0" result="hardAlpha"/>
<feOffset/>
<feGaussianBlur stdDeviation="8.9"/>
<feComposite in2="hardAlpha" operator="out"/>
<feColorMatrix type="matrix" values="0 0 0 0 0 0 0 0 0 0 0 0 0 0 0 0 0 0 0.25 0"/>
<feBlend mode="normal" in2="BackgroundImageFix" result="effect1_dropShadow_36_8"/>
<feBlend mode="normal" in="SourceGraphic" in2="effect1_dropShadow_36_8" result="shape"/>
</filter>
<filter id="filter11_d_36_8" x="1188.2" y="862.2" width="117.6" height="133.6" filterUnits="userSpaceOnUse" color-interpolation-filters="sRGB">
<feFlood flood-opacity="0" result="BackgroundImageFix"/>
<feColorMatrix in="SourceAlpha" type="matrix" values="0 0 0 0 0 0 0 0 0 0 0 0 0 0 0 0 0 0 127 0" result="hardAlpha"/>
<feOffset/>
<feGaussianBlur stdDeviation="8.9"/>
<feComposite in2="hardAlpha" operator="out"/>
<feColorMatrix type="matrix" values="0 0 0 0 0 0 0 0 0 0 0 0 0 0 0 0 0 0 0.25 0"/>
<feBlend mode="normal" in2="BackgroundImageFix" result="effect1_dropShadow_36_8"/>
<feBlend mode="normal" in="SourceGraphic" in2="effect1_dropShadow_36_8" result="shape"/>
</filter>
<filter id="filter12_d_36_8" x="1242.2" y="459.2" width="117.6" height="133.6" filterUnits="userSpaceOnUse" color-interpolation-filters="sRGB">
<feFlood flood-opacity="0" result="BackgroundImageFix"/>
<feColorMatrix in="SourceAlpha" type="matrix" values="0 0 0 0 0 0 0 0 0 0 0 0 0 0 0 0 0 0 127 0" result="hardAlpha"/>
<feOffset/>
<feGaussianBlur stdDeviation="8.9"/>
<feComposite in2="hardAlpha" operator="out"/>
<feColorMatrix type="matrix" values="0 0 0 0 0 0 0 0 0 0 0 0 0 0 0 0 0 0 0.25 0"/>
<feBlend mode="normal" in2="BackgroundImageFix" result="effect1_dropShadow_36_8"/>
<feBlend mode="normal" in="SourceGraphic" in2="effect1_dropShadow_36_8" result="shape"/>
</filter>
<filter id="filter13_d_36_8" x="1242.2" y="196.2" width="117.6" height="133.6" filterUnits="userSpaceOnUse" color-interpolation-filters="sRGB">
<feFlood flood-opacity="0" result="BackgroundImageFix"/>
<feColorMatrix in="SourceAlpha" type="matrix" values="0 0 0 0 0 0 0 0 0 0 0 0 0 0 0 0 0 0 127 0" result="hardAlpha"/>
<feOffset/>
<feGaussianBlur stdDeviation="8.9"/>
<feComposite in2="hardAlpha" operator="out"/>
<feColorMatrix type="matrix" values="0 0 0 0 0 0 0 0 0 0 0 0 0 0 0 0 0 0 0.25 0"/>
<feBlend mode="normal" in2="BackgroundImageFix" result="effect1_dropShadow_36_8"/>
<feBlend mode="normal" in="SourceGraphic" in2="effect1_dropShadow_36_8" result="shape"/>
</filter>
<clipPath id="clip0_36_8">
<rect width="1440" height="1024" fill="white"/>
</clipPath>
</defs>
</svg>
