<?xml version="1.0" encoding="UTF-8"?>
<svg id="Layer_2" data-name="Layer 2" xmlns="http://www.w3.org/2000/svg" viewBox="0 0 240.35 138.43">
  <g id="Layer_1-2" data-name="Layer 1">
    <g id="_WHITE_" data-name="&amp;lt;WHITE&amp;gt;">
      <g>
        <path d="M220.66,116.87v3.15c0,.36-.17.54-.49.54h-7.6v4.86h5.79c.33,0,.49.18.49.53v3.12c0,.36-.17.54-.49.54h-5.79v4.66h7.6c.33,0,.49.17.49.51v3.15c0,.34-.17.51-.49.51h-11.32c-.31,0-.46-.17-.46-.51v-21.05c0-.34.15-.51.46-.51h11.32c.33,0,.49.17.49.51Z"/>
        <path d="M197.44,116.36h3.45c1.45,0,2.55.38,3.3,1.15s1.13,1.9,1.13,3.38v2.09c0,.34-.17.51-.49.51h-3.11c-.33,0-.49-.17-.49-.51v-1.33c0-.84-.41-1.25-1.23-1.25h-1.68c-.82,0-1.23.42-1.23,1.25v2.68l7.44,2.46c.54.19.8.58.8,1.16v5.92c0,1.47-.38,2.6-1.13,3.37-.75.78-1.85,1.16-3.3,1.16h-3.45c-1.43,0-2.53-.39-3.29-1.16-.76-.77-1.14-1.9-1.14-3.37v-2.04c0-.34.16-.51.49-.51h3.11c.33,0,.49.17.49.51v1.32c0,.84.41,1.26,1.23,1.26h1.65c.82,0,1.23-.42,1.23-1.26v-3.19l-7.38-2.45c-.56-.19-.84-.58-.84-1.16v-5.46c0-1.49.38-2.62,1.14-3.38.76-.77,1.86-1.15,3.29-1.15Z"/>
        <path d="M191.44,137.89l-5.11-21.07c-.06-.3-.23-.45-.53-.45h-4.27c-.28,0-.46.15-.52.45l-5.11,21.07c-.1.36.03.54.39.54h3.01c.27,0,.44-.14.49-.44l.95-3.98h5.78l.99,3.98c.06.29.23.44.49.44h2.98c.39,0,.53-.18.43-.54ZM181.72,130.36l1.94-8.57,1.93,8.57h-3.87Z"/>
        <path d="M174.03,120.9v3.41c0,.34-.16.51-.48.51h-2.9c-.33,0-.49-.17-.49-.51v-2.58c0-.84-.41-1.26-1.23-1.26h-1.96c-.82,0-1.23.42-1.23,1.26v11.44c0,.84.41,1.26,1.23,1.26h1.96c.82,0,1.23-.42,1.23-1.26v-2.68c0-.34.16-.51.49-.51h2.9c.32,0,.48.17.48.51v3.41c0,1.47-.38,2.6-1.14,3.37-.76.78-1.86,1.16-3.29,1.16h-3.44c-1.44,0-2.54-.39-3.31-1.16-.77-.77-1.15-1.9-1.15-3.37v-12.99c0-1.49.38-2.62,1.15-3.38.77-.77,1.88-1.15,3.31-1.15h3.44c1.44,0,2.53.38,3.29,1.15.76.77,1.14,1.9,1.14,3.38Z"/>
        <path d="M155.52,116.36h2.88c.45,0,.65.23.59.67l-2.96,20.82c-.06.38-.28.57-.68.57h-3.31c-.35,0-.58-.19-.68-.57l-2.83-12.92-2.86,12.92c-.09.38-.31.57-.68.57h-3.39c-.39,0-.61-.2-.68-.59l-2.83-20.8c-.06-.45.14-.67.59-.67h2.88c.37,0,.59.2.65.6l1.5,13.18h.16l3.01-13.24c.1-.36.32-.54.68-.54h1.88c.34,0,.57.18.68.54l3.01,13.24h.15l1.57-13.18c.06-.4.28-.6.65-.6Z"/>
        <path d="M135.15,117.52c-.75-.77-1.85-1.15-3.3-1.15h-3.45c-1.43,0-2.53.38-3.29,1.15-.76.77-1.14,1.9-1.14,3.38v12.99c0,1.47.38,2.6,1.14,3.37.76.78,1.86,1.16,3.29,1.16h3.45c1.45,0,2.55-.39,3.3-1.16s1.12-1.9,1.12-3.37v-12.99c0-1.49-.37-2.61-1.12-3.38ZM132.39,133.1c0,.84-.41,1.26-1.22,1.26h-1.97c-.82,0-1.23-.42-1.23-1.26v-11.4c0-.84.41-1.26,1.23-1.26h1.97c.81,0,1.22.42,1.22,1.26v11.4Z"/>
        <path d="M116.71,125.38v-8.52c0-.34.16-.51.48-.51h3.17c.35,0,.53.17.53.51v21.05c0,.34-.18.51-.53.51h-3.17c-.32,0-.48-.17-.48-.51v-8.38h-3.95v8.38c0,.34-.16.51-.48.51h-3.17c-.35,0-.53-.17-.53-.51v-21.05c0-.34.17-.51.53-.51h3.17c.32,0,.48.17.48.51v8.52h3.95Z"/>
        <path d="M97.63,113.22h3.45c1.45,0,2.55.38,3.3,1.15.75.76,1.13,1.89,1.13,3.38v3.34c0,.33-.17.49-.49.49h-3.21c-.32,0-.48-.16-.48-.49v-2.46c0-.84-.41-1.26-1.23-1.26h-1.48c-.82,0-1.23.42-1.23,1.26v4.35l7.32,2.45c.54.24.8.63.8,1.18v7.27c0,1.47-.38,2.6-1.13,3.37-.75.78-1.85,1.16-3.3,1.16h-3.45c-1.43,0-2.53-.39-3.29-1.16-.76-.77-1.14-1.9-1.14-3.37v-3.31c0-.34.16-.51.49-.51h3.21c.32,0,.48.17.48.51v2.43c0,.84.41,1.25,1.23,1.25h1.48c.82,0,1.23-.42,1.23-1.25v-4.2l-7.29-2.45c-.56-.19-.84-.58-.84-1.18v-7.43c0-1.49.38-2.62,1.14-3.38.76-.77,1.86-1.15,3.29-1.15Z"/>
        <path d="M82.45,127.24v-6.34c0-1.49-.37-2.61-1.12-3.38-.75-.77-1.85-1.15-3.3-1.15h-7.39c-.33,0-.5.17-.5.51v21.05c0,.34.17.51.5.51h3.01c.33,0,.49-.17.49-.51v-6.14h2.73l1.48,6.21c.06.29.24.44.53.44h3.01c.39,0,.53-.19.43-.57l-1.6-6.77c1.15-.74,1.72-2.02,1.72-3.85ZM78.45,126.45c0,.84-.41,1.26-1.23,1.26h-3.08v-7.29h3.08c.82,0,1.23.42,1.23,1.26v4.76Z"/>
        <path d="M65.94,117.52c-.75-.77-1.85-1.15-3.3-1.15h-3.45c-1.43,0-2.52.38-3.29,1.15-.76.77-1.14,1.9-1.14,3.38v12.99c0,1.47.38,2.6,1.14,3.37.76.78,1.86,1.16,3.29,1.16h3.45c1.45,0,2.55-.39,3.3-1.16s1.13-1.9,1.13-3.37v-12.99c0-1.49-.38-2.61-1.13-3.38ZM63.19,133.1c0,.84-.41,1.26-1.22,1.26h-1.97c-.82,0-1.23-.42-1.23-1.26v-11.4c0-.84.41-1.26,1.23-1.26h1.97c.81,0,1.22.42,1.22,1.26v11.4Z"/>
        <path d="M48,138.43h3.21c.32,0,.48-.17.48-.51v-21.05c0-.34-.16-.51-.48-.51h-3.21c-.33,0-.49.17-.49.51v21.05c0,.34.16.51.49.51Z"/>
        <path d="M41.05,116.36h2.88c.33,0,.49.17.49.51v21.05c0,.34-.17.51-.49.51h-2.42c-.25,0-.44-.13-.56-.41l-5.78-12.04v11.94c0,.34-.17.51-.49.51h-2.9c-.33,0-.49-.17-.49-.51v-21.05c0-.34.16-.51.49-.51h2.43c.24,0,.42.14.55.42l5.79,12.03v-11.94c0-.34.16-.51.49-.51Z"/>
        <path d="M28.23,116.87v3.15c0,.36-.17.54-.49.54h-7.6v4.86h5.79c.33,0,.49.18.49.53v3.12c0,.36-.17.54-.49.54h-5.79v4.66h7.6c.33,0,.49.17.49.51v3.15c0,.34-.17.51-.49.51h-11.32c-.31,0-.46-.17-.46-.51v-21.05c0-.34.15-.51.46-.51h11.32c.33,0,.49.17.49.51Z"/>
        <path d="M5,113.22h3.45c1.45,0,2.55.38,3.3,1.15.75.76,1.13,1.89,1.13,3.38v3.34c0,.33-.17.49-.49.49h-3.21c-.32,0-.48-.16-.48-.49v-2.46c0-.84-.41-1.26-1.23-1.26h-1.48c-.82,0-1.23.42-1.23,1.26v4.35l7.32,2.45c.54.24.8.63.8,1.18v7.27c0,1.47-.38,2.6-1.13,3.37-.75.78-1.85,1.16-3.3,1.16h-3.45c-1.43,0-2.53-.39-3.29-1.16-.76-.77-1.14-1.9-1.14-3.37v-3.31c0-.34.16-.51.49-.51h3.21c.32,0,.48.17.48.51v2.43c0,.84.41,1.25,1.23,1.25h1.48c.82,0,1.23-.42,1.23-1.25v-4.2l-7.29-2.45c-.56-.19-.84-.58-.84-1.18v-7.43c0-1.49.38-2.62,1.14-3.38.76-.77,1.86-1.15,3.29-1.15Z"/>
      </g>
      <g>
        <path d="M238.84,14.77c-1-1.03-2.45-1.54-4.35-1.54h-3.62l.67-1.61,4.38-10.63c.27-.66.06-.99-.64-.99h-4.35c-.47,0-.79.21-.95.64l-5.93,14.47c-.15.38-.25.73-.32,1.06-.06.32-.1.68-.1,1.09v11c0,1.94.5,3.42,1.5,4.45,1,1.03,2.45,1.54,4.35,1.54h5.01c1.89,0,3.34-.51,4.35-1.54,1.01-1.02,1.51-2.51,1.51-4.45v-9.03c0-1.94-.5-3.42-1.51-4.45ZM234.84,26.88c0,1.14-.56,1.71-1.67,1.71h-2.34c-1.11,0-1.67-.57-1.67-1.71v-6.3c0-1.14.56-1.7,1.67-1.7h2.34c1.11,0,1.67.56,1.67,1.7v6.3Z"/>
        <path d="M209.42,24.01v3.72c0,.58.28.87.84.87h4.52v-1.76c0-.57.28-.86.84-.86h4.01c.56,0,.84.29.84.86v6.55c0,.57-.28.85-.84.85h-15.04c-.55,0-.83-.28-.83-.85v-12.63c0-.39.08-.7.24-.93.06-.08.12-.16.21-.23.16-.15.37-.29.63-.42l9.94-5.49v-6.34c0-1.14-.56-1.71-1.67-1.71h-2.01c-1.12,0-1.68.56-1.68,1.71v3.34c0,.45-.22.68-.66.68h-4.35c-.45,0-.66-.22-.66-.68v-4.54c0-2.02.51-3.56,1.54-4.6,1.03-1.04,2.52-1.55,4.47-1.55h4.68c1.95,0,3.44.52,4.47,1.55,1.03,1.04,1.55,2.58,1.55,4.6v10.1c0,.41-.1.71-.28.93-.18.21-.46.43-.85.66h0l-9.31,5.14c-.4.22-.6.56-.6,1.02Z"/>
      </g>
      <g>
        <path d="M190.71,104.76l.99-32.92-4.64,18.57h-20.06l-1.99-7.79v22.14h-25.54l5.7-39.39,2.42-44.77h19.4l9.62,42.08,12.77-42.08h12c-.12.35-.18.73-.18,1.16v12.63c0,.73.22,1.32.66,1.77.45.46,1.02.69,1.74.69h5.02l1.33,33,6.14,34.91h-25.37Z"/>
        <polygon points="65.09 20.59 63.92 62.67 56.96 104.76 72.47 92.73 83.91 73.16 94.86 85.93 109.61 70.51 122.05 91.4 124.87 87.26 129.78 94.09 127.44 69.84 125.45 20.59 106.88 20.59 94.11 62.67 84.49 20.59 65.09 20.59"/>
        <polygon points="0 20.59 .5 46.96 15.26 46.96 16.25 62.67 14.76 80.57 1.89 80.57 1.82 104.76 48.59 104.76 48.79 80.57 35.99 80.57 34.66 62.67 35.99 45.96 48.11 46.44 48.75 20.59 0 20.59"/>
      </g>
    </g>
  </g>
</svg>