<?xml version="1.0" encoding="UTF-8"?>
<svg xmlns="http://www.w3.org/2000/svg" xmlns:xlink="http://www.w3.org/1999/xlink" viewBox="0 0 1975.36 1094.15">
  <defs>
    <style>
      .cls-1 {
        fill: url(#linear-gradient-2);
      }

      .cls-2 {
        fill: url(#linear-gradient-10);
      }

      .cls-3 {
        fill: url(#linear-gradient-4);
      }

      .cls-4 {
        fill: url(#radial-gradient);
      }

      .cls-5 {
        fill: url(#linear-gradient-3);
      }

      .cls-6 {
        fill: url(#linear-gradient-5);
      }

      .cls-7 {
        fill: url(#linear-gradient-8);
      }

      .cls-8 {
        fill: url(#linear-gradient-7);
      }

      .cls-9 {
        fill: url(#linear-gradient-9);
      }

      .cls-10 {
        fill: url(#linear-gradient-11);
      }

      .cls-11 {
        fill: url(#linear-gradient-6);
      }

      .cls-12 {
        fill: none;
        opacity: .5;
        stroke: #fff;
        stroke-miterlimit: 10;
      }

      .cls-13 {
        fill: url(#linear-gradient);
      }
    </style>
    <radialGradient id="radial-gradient" cx="769.49" cy="546.47" fx="769.49" fy="546.47" r="112.74" gradientUnits="userSpaceOnUse">
      <stop offset="0" stop-color="#fff"/>
      <stop offset=".48" stop-color="#bf1a58"/>
      <stop offset="1" stop-color="#d700df"/>
    </radialGradient>
    <linearGradient id="linear-gradient" x1="219.9" y1="481.04" x2="219.9" y2="615.75" gradientUnits="userSpaceOnUse">
      <stop offset="0" stop-color="#fff"/>
      <stop offset="1" stop-color="#ffd0ff"/>
    </linearGradient>
    <linearGradient id="linear-gradient-2" x1="358.06" y1="478.35" x2="358.06" y2="618.44" xlink:href="#linear-gradient"/>
    <linearGradient id="linear-gradient-3" x1="482.47" y1="478.35" x2="482.47" y2="618.44" xlink:href="#linear-gradient"/>
    <linearGradient id="linear-gradient-4" x1="587.64" y1="477.39" x2="587.64" xlink:href="#linear-gradient"/>
    <linearGradient id="linear-gradient-5" x1="938.74" y1="477.58" x2="938.74" xlink:href="#linear-gradient"/>
    <linearGradient id="linear-gradient-6" x1="1051.6" y1="478.35" x2="1051.6" xlink:href="#linear-gradient"/>
    <linearGradient id="linear-gradient-7" x1="1200.93" y1="478.15" x2="1200.93" y2="618.44" xlink:href="#linear-gradient"/>
    <linearGradient id="linear-gradient-8" x1="1341.41" y1="477.39" x2="1341.41" xlink:href="#linear-gradient"/>
    <linearGradient id="linear-gradient-9" x1="1455.91" y1="478.35" x2="1455.91" xlink:href="#linear-gradient"/>
    <linearGradient id="linear-gradient-10" x1="1570.11" y1="478.35" x2="1570.11" y2="618.44" xlink:href="#linear-gradient"/>
    <linearGradient id="linear-gradient-11" x1="1679.42" y1="481.04" x2="1679.42" xlink:href="#linear-gradient"/>
  </defs>
  <g id="Background">
    <rect y="7.91" width="1920" height="1080"/>
  </g>
  <g id="Title_Text" data-name="Title Text">
    <g>
      <circle class="cls-12" cx="769.49" cy="546.95" r="57.87"/>
      <path class="cls-4" d="M882.23,546.47c-100.9,6.54-106.2,11.83-112.74,112.74-6.54-100.9-11.83-106.2-112.74-112.74,100.9-6.54,106.2-11.83,112.74-112.74,6.54,100.9,11.83,106.2,112.74,112.74Z"/>
      <g>
        <path class="cls-13" d="M190.36,495.09h-.58c0-3.34-1.22-6.19-3.66-8.56-2.44-2.37-5.32-3.56-8.66-3.56h-2.31l-.19-1.93h15.39v14.05ZM190.36,601.7v14.05h-15.39v-1.92h2.5c3.34,0,6.19-1.18,8.56-3.56s3.62-5.23,3.75-8.56h.58ZM202.29,481.04v134.71h-12.51v-134.71h12.51ZM225.19,481.04c8.21,0,15.26,1.48,21.17,4.43,5.9,2.95,10.45,7.22,13.66,12.8,3.21,5.58,4.81,12.22,4.81,19.92,0,5.9-1.16,11.19-3.46,15.87-2.31,4.69-5.39,8.63-9.24,11.84-3.85,3.21-8.21,5.61-13.09,7.22-4.88,1.61-9.91,2.21-15.11,1.83-5.19-.39-10.23-1.86-15.1-4.43v-1.92c4.36.64,8.24.87,11.64.67,3.4-.19,6.99-.9,10.78-2.12,3.78-1.22,7.31-3.37,10.58-6.45,3.27-3.08,5.74-7.38,7.41-12.89.38-1.41.7-3.17.96-5.29.26-2.12.32-4.2.19-6.26-.13-8.85-2.44-15.97-6.93-21.36-4.49-5.39-10.84-8.08-19.05-8.08h-22.71c-.64-1.92-1.28-3.85-1.92-5.77h25.4ZM201.71,601.7h.58c.13,3.34,1.38,6.19,3.75,8.56,2.37,2.38,5.23,3.56,8.56,3.56h2.5v1.92h-15.39v-14.05Z"/>
        <path class="cls-1" d="M357.97,478.35c13.73,0,25.79,2.92,36.18,8.76,10.39,5.84,18.51,14.02,24.34,24.53,5.84,10.52,8.75,22.77,8.75,36.76s-2.92,26.24-8.75,36.76c-5.84,10.52-13.95,18.7-24.34,24.54-10.39,5.84-22.45,8.75-36.18,8.75s-25.59-2.92-35.99-8.75c-10.39-5.84-18.51-14.02-24.34-24.54-5.84-10.52-8.76-22.77-8.76-36.76s2.92-26.23,8.76-36.76c5.84-10.52,13.95-18.7,24.34-24.53,10.39-5.84,22.39-8.76,35.99-8.76ZM357.97,612.67c10.9,0,20.43-2.69,28.58-8.08,8.15-5.39,14.5-12.89,19.05-22.51,4.55-9.62,6.83-20.85,6.83-33.68s-2.28-24.05-6.83-33.68c-4.55-9.62-10.9-17.13-19.05-22.51-8.15-5.39-17.68-8.08-28.58-8.08s-20.24,2.69-28.38,8.08c-8.15,5.39-14.5,12.89-19.05,22.51-4.55,9.62-6.83,20.85-6.83,33.68s2.28,24.05,6.83,33.68c4.55,9.62,10.9,17.12,19.05,22.51,8.15,5.39,17.61,8.08,28.38,8.08Z"/>
        <path class="cls-5" d="M484.98,478.35c2.05,0,4.26.13,6.64.39,2.37.26,4.68.61,6.93,1.06,2.24.45,4.3.9,6.16,1.35,1.86.45,3.3.93,4.33,1.44v21.36h-1.73c0-6.16-2.12-11-6.35-14.53-4.23-3.53-9.37-5.29-15.39-5.29-7.06,0-12.77,2.21-17.13,6.64-4.36,4.42-6.54,9.59-6.54,15.49,0,2.44.55,5.29,1.64,8.56,1.09,3.27,3.11,6.32,6.06,9.14l37.91,35.02c3.85,3.59,6.41,7.44,7.7,11.55,1.28,4.11,1.92,8.08,1.92,11.93,0,10.65-3.24,19.31-9.72,25.98-6.48,6.67-15.24,10.01-26.27,10.01-3.08,0-6.71-.32-10.87-.96-4.17-.64-8.21-1.76-12.12-3.37-3.92-1.6-7.15-3.69-9.72-6.25-.38-2.05-.58-4.62-.58-7.7s.26-6.32.77-9.72c.51-3.4,1.22-6.51,2.12-9.33h1.73c-.64,6.54.19,12.25,2.5,17.13,2.31,4.88,5.68,8.56,10.1,11.06,4.43,2.5,9.46,3.63,15.11,3.37,7.05-.38,13.12-2.85,18.18-7.41,5.07-4.55,7.6-10.68,7.6-18.38,0-3.72-.64-7.09-1.92-10.1-1.28-3.01-3.15-5.61-5.58-7.79l-36.95-34.25c-3.85-3.59-6.54-7.54-8.08-11.84-1.54-4.3-2.31-8.31-2.31-12.03,0-5.39,1.28-10.58,3.85-15.59,2.57-5,6.38-9.07,11.45-12.22,5.07-3.14,11.26-4.72,18.57-4.72ZM509.03,480.27v4.04h-14.63v-4.04h14.63Z"/>
        <path class="cls-3" d="M531.93,477.39c1.28.51,3.24,1.03,5.87,1.54,2.63.51,5.55.96,8.76,1.35,3.21.39,6.16.58,8.85.58l-23.48,2.12v-5.58ZM643.35,480.85v5.77h-111.42v-5.77h111.42ZM545.21,486.04v.58c-3.21.13-5.9,1.28-8.08,3.46-2.18,2.18-3.27,4.88-3.27,8.08v3.27l-1.92.19v-15.59h13.28ZM581.96,601.7v14.05h-15.39v-1.92h2.5c3.34,0,6.19-1.18,8.56-3.56s3.62-5.23,3.75-8.56h.58ZM593.89,481.62v134.13h-12.51v-134.13h12.51ZM593.32,601.7h.58c.13,3.34,1.38,6.19,3.75,8.56,2.37,2.38,5.23,3.56,8.56,3.56h2.5v1.92h-15.39v-14.05ZM643.35,477.39v5.58l-23.48-2.12c2.82,0,5.8-.19,8.95-.58,3.14-.38,6.06-.83,8.75-1.35,2.69-.51,4.62-1.02,5.77-1.54ZM643.35,486.04v15.59l-1.92-.19v-3.27c0-3.21-1.12-5.9-3.37-8.08-2.25-2.18-4.91-3.34-7.99-3.46v-.58h13.28Z"/>
        <path class="cls-6" d="M914.49,495.09h-.58c0-3.34-1.22-6.19-3.66-8.56-2.44-2.37-5.32-3.56-8.66-3.56h-2.31l-.19-1.93h15.39v14.05ZM914.49,601.7v14.05h-15.39v-1.92h2.5c3.34,0,6.19-1.18,8.56-3.56s3.62-5.23,3.75-8.56h.58ZM926.42,481.04v134.71h-12.51v-134.71h12.51ZM978.38,481.04v5.97h-52.54v-5.97h52.54ZM970.1,546.47v5.77h-44.26v-5.77h44.26ZM925.84,601.7h.58c.13,3.34,1.38,6.19,3.75,8.56,2.37,2.38,5.23,3.56,8.56,3.56h2.5v1.92h-15.39v-14.05ZM978.38,477.58v5.58l-23.48-2.12c2.82,0,5.8-.19,8.95-.58,3.14-.38,6.06-.83,8.76-1.35,2.69-.51,4.62-1.03,5.77-1.54ZM970.1,534.15v12.7h-11.16v-.38c2.57-.13,4.75-1.12,6.54-2.98,1.8-1.86,2.69-4.07,2.69-6.64v-2.7h1.92ZM970.1,551.86v12.7h-1.92v-2.89c0-2.56-.9-4.78-2.69-6.64-1.8-1.86-3.98-2.79-6.54-2.79v-.39h11.16ZM978.38,486.43v12.89h-1.93v-2.89c0-2.57-.93-4.78-2.79-6.64-1.86-1.86-4.07-2.79-6.64-2.79v-.58h11.35Z"/>
        <path class="cls-11" d="M1010.71,601.7c-.9,2.57-1.03,4.75-.39,6.54.64,1.8,1.7,3.17,3.18,4.14,1.47.96,2.98,1.44,4.52,1.44h1.73v1.92h-38.68v-1.92h1.73c2.95,0,6-.93,9.14-2.79,3.14-1.86,5.74-4.97,7.79-9.33h10.97ZM1052.08,478.35l1.73,13.47-48.3,123.35h-11.55l49.27-117c1.41-3.21,2.6-5.96,3.56-8.27.96-2.31,1.8-4.55,2.5-6.74.7-2.18,1.06-3.78,1.06-4.81h1.73ZM1079.21,563.21v5.77h-60.23v-5.77h60.23ZM1052.08,478.35l56.96,136.25h-16.36l-44.45-117.97,3.85-18.28ZM1087.87,601.7h15.78c1.93,4.36,4.49,7.48,7.7,9.33,3.21,1.86,6.28,2.79,9.24,2.79h1.54v1.92h-43.3v-1.92h1.73c2.44,0,4.62-1.06,6.54-3.18s2.18-5.1.77-8.95Z"/>
        <path class="cls-8" d="M1144.64,602.09v13.66h-15.97v-1.92h3.66c3.21,0,5.96-1.16,8.27-3.46,2.31-2.31,3.46-5.07,3.46-8.28h.58ZM1144.26,478.15l8.47,10.78.19,126.82h-8.85v-113.54c0-6.54-.58-14.56-1.73-24.05h1.93ZM1144.26,478.15l111.81,119.31,1.73,20.97-111.81-119.12-1.73-21.17ZM1152.92,602.09c0,3.21,1.16,5.97,3.47,8.28,2.31,2.31,5.07,3.46,8.27,3.46h3.66v1.92h-15.97v-13.66h.58ZM1233.55,481.04h15.97v13.66h-.39c-.13-3.33-1.32-6.13-3.56-8.37-2.25-2.24-5.04-3.37-8.37-3.37h-3.65v-1.93ZM1257.79,481.04v112.77c0,4.11.13,8.05.39,11.83.26,3.79.7,8.05,1.35,12.8h-1.73l-8.66-10.2v-127.2h8.66ZM1273.19,481.04v1.93h-3.46c-3.21,0-5.96,1.12-8.27,3.37-2.31,2.24-3.53,5.04-3.66,8.37h-.58v-13.66h15.97Z"/>
        <path class="cls-7" d="M1285.7,477.39c1.28.51,3.24,1.03,5.87,1.54,2.63.51,5.55.96,8.76,1.35,3.21.39,6.16.58,8.85.58l-23.48,2.12v-5.58ZM1397.12,480.85v5.77h-111.42v-5.77h111.42ZM1298.97,486.04v.58c-3.21.13-5.9,1.28-8.08,3.46-2.18,2.18-3.27,4.88-3.27,8.08v3.27l-1.92.19v-15.59h13.28ZM1335.73,601.7v14.05h-15.39v-1.92h2.5c3.34,0,6.19-1.18,8.56-3.56,2.37-2.37,3.62-5.23,3.75-8.56h.58ZM1347.66,481.62v134.13h-12.51v-134.13h12.51ZM1347.08,601.7h.58c.13,3.34,1.38,6.19,3.75,8.56,2.37,2.38,5.23,3.56,8.56,3.56h2.5v1.92h-15.39v-14.05ZM1397.12,477.39v5.58l-23.48-2.12c2.82,0,5.8-.19,8.95-.58,3.14-.38,6.06-.83,8.75-1.35,2.69-.51,4.62-1.02,5.77-1.54ZM1397.12,486.04v15.59l-1.92-.19v-3.27c0-3.21-1.12-5.9-3.37-8.08-2.25-2.18-4.91-3.34-7.99-3.46v-.58h13.28Z"/>
        <path class="cls-9" d="M1415.02,601.7c-.9,2.57-1.03,4.75-.39,6.54.64,1.8,1.7,3.17,3.18,4.14,1.47.96,2.98,1.44,4.52,1.44h1.73v1.92h-38.68v-1.92h1.73c2.95,0,6-.93,9.14-2.79,3.14-1.86,5.74-4.97,7.79-9.33h10.97ZM1456.39,478.35l1.73,13.47-48.3,123.35h-11.55l49.27-117c1.41-3.21,2.6-5.96,3.56-8.27.96-2.31,1.8-4.55,2.5-6.74.7-2.18,1.06-3.78,1.06-4.81h1.73ZM1483.52,563.21v5.77h-60.23v-5.77h60.23ZM1456.39,478.35l56.96,136.25h-16.36l-44.45-117.97,3.85-18.28ZM1492.18,601.7h15.78c1.93,4.36,4.49,7.48,7.7,9.33,3.21,1.86,6.28,2.79,9.24,2.79h1.54v1.92h-43.3v-1.92h1.73c2.44,0,4.62-1.06,6.54-3.18,1.92-2.12,2.18-5.1.77-8.95Z"/>
        <path class="cls-2" d="M1572.62,478.35c2.05,0,4.26.13,6.64.39,2.37.26,4.68.61,6.93,1.06,2.24.45,4.3.9,6.16,1.35,1.86.45,3.3.93,4.33,1.44v21.36h-1.73c0-6.16-2.12-11-6.35-14.53-4.23-3.53-9.37-5.29-15.39-5.29-7.06,0-12.77,2.21-17.13,6.64-4.36,4.42-6.54,9.59-6.54,15.49,0,2.44.55,5.29,1.64,8.56,1.09,3.27,3.11,6.32,6.06,9.14l37.91,35.02c3.85,3.59,6.41,7.44,7.7,11.55,1.28,4.11,1.92,8.08,1.92,11.93,0,10.65-3.24,19.31-9.72,25.98-6.48,6.67-15.24,10.01-26.27,10.01-3.08,0-6.71-.32-10.87-.96-4.17-.64-8.21-1.76-12.12-3.37-3.92-1.6-7.15-3.69-9.72-6.25-.38-2.05-.58-4.62-.58-7.7s.26-6.32.77-9.72c.51-3.4,1.22-6.51,2.12-9.33h1.73c-.64,6.54.19,12.25,2.5,17.13,2.31,4.88,5.68,8.56,10.1,11.06,4.43,2.5,9.46,3.63,15.11,3.37,7.05-.38,13.12-2.85,18.18-7.41,5.07-4.55,7.6-10.68,7.6-18.38,0-3.72-.64-7.09-1.92-10.1-1.28-3.01-3.15-5.61-5.58-7.79l-36.95-34.25c-3.85-3.59-6.54-7.54-8.08-11.84-1.54-4.3-2.31-8.31-2.31-12.03,0-5.39,1.28-10.58,3.85-15.59,2.57-5,6.38-9.07,11.45-12.22,5.07-3.14,11.26-4.72,18.57-4.72ZM1596.67,480.27v4.04h-14.63v-4.04h14.63Z"/>
        <path class="cls-10" d="M1651.9,494.9l-16.16-.58c-1.8-2.95-4.43-5.58-7.89-7.89-3.46-2.31-7.25-3.46-11.35-3.46h-2.69v-1.93h47.34v1.93h-2.5c-2.82,0-4.97,1.32-6.45,3.94-1.47,2.63-1.57,5.29-.29,7.99ZM1644.59,481.23l37.72,70.24-8.27,6.73-45.99-76.98h16.55ZM1672.87,601.7v14.05h-15.2v-1.92h2.5c3.34,0,6.19-1.18,8.56-3.56s3.62-5.23,3.75-8.56h.38ZM1685,553.79v61.96h-12.51v-61.96h12.51ZM1719.25,481.23h11.74l-47.34,76.59-6.93-2.12,42.53-74.48ZM1684.42,601.7h.58c0,3.34,1.22,6.19,3.66,8.56,2.44,2.38,5.32,3.56,8.66,3.56h2.31v1.92h-15.2v-14.05ZM1711.36,494.9c1.15-1.8,1.47-3.62.96-5.48-.51-1.86-1.47-3.4-2.88-4.62-1.41-1.22-3.02-1.83-4.81-1.83h-2.31v-1.93h42.72v1.93h-2.69c-3.98,0-7.7,1.15-11.16,3.46s-6.23,4.94-8.28,7.89l-11.54.58Z"/>
      </g>
    </g>
  </g>
</svg>