<svg xmlns="http://www.w3.org/2000/svg" viewBox="0 0 2023.791 920.727"><defs><style>.cls-1{font-size:200.39px;letter-spacing:0.269em;}.cls-1,.cls-4,.cls-6{font-family:Montserrat-Bold, Montserrat;font-weight:700;}.cls-2{letter-spacing:0.262em;}.cls-3{fill:none;}.cls-4{font-size:395.281px;letter-spacing:0.25em;}.cls-5{letter-spacing:0.269em;}.cls-6{font-size:92.417px;letter-spacing:0.269em;}.cls-7{letter-spacing:0.254em;}.cls-8{letter-spacing:0.269em;}</style></defs><g id="Layer_16_copy_5" data-name="Layer 16 copy 5"><text class="cls-1" transform="translate(199.278 745.91)">hanaa<tspan class="cls-2" x="917.375" y="0">r</tspan><tspan x="1056.248" y="0">ashi</tspan></text><path d="M789.279,1548.709a201.078,201.078,0,0,0-23.781-38.542,211.717,211.717,0,0,0-30.971-31.776q-4.232-3.551-8.648-6.847c-2.937-2.2-5.9-4.35-8.941-6.381a162.932,162.932,0,0,0-18.648-10.926c-1.576-.768-3.162-1.467-4.695-2.119a35.434,35.434,0,0,0-4.281-1.536c-.156-.045-.3-.083-.415-.105s-.273-.069-.336-.07-.215-.047-.191-.028c0,.007-.072-.008.1.019.08.008.078,0,.225.007a3.473,3.473,0,0,0,.549-.022l.486-.061a5.516,5.516,0,0,0,.625-.135l.666-.2c.29-.1.59-.287.73-.342.164-.075.368-.264.42-.275.073-.033.173-.155.19-.155a.035.035,0,0,0,.036-.026c-.035.086-.086.113-.191.306a12.035,12.035,0,0,0-.726,1.366,52.223,52.223,0,0,0-2.968,9.013c-.415,1.68-.794,3.4-1.133,5.139l-.482,2.611c-.146.845-.3,1.793-.4,2.51l-2.673,18.839-13.511-13.664-1.787-1.808-1.907-1.847c-1.284-1.219-2.592-2.4-3.9-3.529a50.855,50.855,0,0,0-7.65-5.61,12.312,12.312,0,0,0-1.382-.691c-.2-.1-.253-.089-.331-.138a.036.036,0,0,0,.045,0,2.139,2.139,0,0,0,.247.016c.049-.021.325.014.5-.02.147-.036.5-.056.8-.145l.661-.223a5.545,5.545,0,0,0,.588-.254l.433-.232a3.515,3.515,0,0,0,.461-.3c.117-.089.119-.084.179-.136.129-.125.078-.071.076-.077.009-.03-.093.095-.14.132s-.151.167-.232.252-.176.2-.277.326a35.708,35.708,0,0,0-2.6,3.733c-.871,1.419-1.742,2.917-2.587,4.452a162.016,162.016,0,0,0-8.846,19.716c-1.293,3.416-2.473,6.885-3.576,10.385q-1.686,5.241-3.075,10.591a212.176,212.176,0,0,0-6.794,43.844,201.493,201.493,0,0,0,2.967,45.19,128.1,128.1,0,0,1-7.966-21.822,149.976,149.976,0,0,1-4.281-23.076,175.669,175.669,0,0,1,1.542-47.215q.987-5.863,2.308-11.68c.9-3.872,1.944-7.713,3.09-11.535a152.275,152.275,0,0,1,8.691-22.582c.9-1.861,1.86-3.718,2.945-5.578a53.233,53.233,0,0,1,3.793-5.768c.19-.252.393-.511.625-.787s.426-.523.708-.827.488-.552.853-.9a15.333,15.333,0,0,1,1.138-1.035c.248-.2.428-.355.741-.58.345-.243.7-.473,1.062-.691.1-.06.149-.093.3-.174l.445-.223c.3-.144.607-.277.916-.4l.467-.173c.151-.052.2-.062.311-.093l.57-.15a12.167,12.167,0,0,1,2.2-.372,13.319,13.319,0,0,1,1.933-.038c.553.036,1.188.078,1.67.161s.97.173,1.451.275a22.954,22.954,0,0,1,2.4.721,29.666,29.666,0,0,1,3.819,1.7,51.228,51.228,0,0,1,5.913,3.753c1.783,1.291,3.434,2.613,5.035,3.957s3.137,2.711,4.637,4.107l2.228,2.117c.752.735,1.434,1.395,2.251,2.254l-16.184,5.174c.179-1.171.344-2.106.532-3.141l.587-3.017c.412-2.007.874-4.013,1.394-6.035s1.1-4.058,1.805-6.143a49.285,49.285,0,0,1,2.648-6.483,29.418,29.418,0,0,1,2.124-3.6,22.856,22.856,0,0,1,1.534-1.978q.5-.543,1.021-1.065c.345-.347.837-.749,1.266-1.1a13.433,13.433,0,0,1,1.6-1.089,12.263,12.263,0,0,1,2.009-.976l.55-.208c.106-.036.154-.058.307-.1l.48-.129c.322-.081.649-.151.976-.208l.491-.076c.173-.024.229-.023.349-.035.42-.032.843-.051,1.264-.054.385,0,.622.024.94.043.654.041,1.052.113,1.526.183.5.073.806.156,1.216.239s.708.173,1.056.263.664.183.965.278a53.365,53.365,0,0,1,6.434,2.5c1.964.884,3.814,1.857,5.631,2.842a151.735,151.735,0,0,1,20.174,13.353,182.517,182.517,0,0,1,17.862,15.776,175.952,175.952,0,0,1,28.645,37.557,149.815,149.815,0,0,1,9.907,21.273A128.468,128.468,0,0,1,789.279,1548.709Z" transform="translate(-487.077 -1013.291)"/><path d="M922.631,1601.026c1.756-4.661,3.68-9.213,5.635-13.742q2.955-6.782,6.071-13.453c2.06-4.459,4.208-8.861,6.352-13.264,2.182-4.38,4.352-8.764,6.61-13.094l4.7,10.264a42.165,42.165,0,0,0-4.831.012c-1.717.069-3.516.25-5.311.455s-3.627.5-5.447.793c-.911.14-1.824.295-2.729.459-.884.16-1.856.343-2.617.511l-15.752,3.481,7.163-15.628,1.077-2.349,1.063-2.46c.7-1.644,1.38-3.282,1.993-4.915s1.179-3.256,1.638-4.824a41.031,41.031,0,0,0,1.038-4.369,9.721,9.721,0,0,0,.147-1.564,2.714,2.714,0,0,0-.019-.37c-.014.014-.018.028-.012.04a1.174,1.174,0,0,0,.034.24c.026.041.067.317.145.478a6.953,6.953,0,0,0,.356.726l.131.192.272.38a5.884,5.884,0,0,0,.415.491l.35.348a3.367,3.367,0,0,0,.422.361l.18.142c.155.094.086.07.089.074.029.008-.123-.043-.175-.068s-.208-.078-.315-.12-.246-.092-.4-.141a41.72,41.72,0,0,0-4.353-1.214c-1.616-.368-3.311-.688-5.032-.968s-3.477-.511-5.244-.729-3.546-.427-5.337-.588c-3.581-.344-7.2-.5-10.827-.654s-7.27-.187-10.915-.115c-3.646.05-7.3.15-10.948.384a234.493,234.493,0,0,0-43.571,6.631,223.967,223.967,0,0,0-21.427,6.539c-7.106,2.535-14.094,5.54-21.174,8.752a113.2,113.2,0,0,1,18.035-14.9c3.248-2.213,6.628-4.236,10.07-6.171,3.469-1.871,6.989-3.693,10.611-5.29a165.074,165.074,0,0,1,45.767-12.861c3.953-.509,7.923-.935,11.909-1.195q5.98-.363,11.994-.363c4.01-.009,8.025.2,12.055.5a117.754,117.754,0,0,1,12.153,1.5c2.044.362,4.1.775,6.2,1.284a51.928,51.928,0,0,1,6.632,2.015c.3.114.6.237.933.384s.624.265,1,.451.668.315,1.109.567c.419.237.778.427,1.323.8.264.18.465.309.772.543.334.261.66.534.974.818.089.082.133.116.257.24l.345.361q.34.367.653.76l.3.395c.095.129.119.177.181.271l.31.5a12.136,12.136,0,0,1,1,2,13.211,13.211,0,0,1,.594,1.836,17.83,17.83,0,0,1,.458,5.6,28.345,28.345,0,0,1-.564,4.115,45.407,45.407,0,0,1-1.973,6.676c-.758,2.053-1.585,3.987-2.448,5.878s-1.755,3.732-2.713,5.53l-1.471,2.678c-.511.908-.987,1.732-1.579,2.726l-8.589-12.147c1.18-.142,2.155-.23,3.221-.321,1.044-.089,2.083-.167,3.128-.228,2.09-.112,4.182-.172,6.308-.165s4.263.056,6.477.233a49.235,49.235,0,0,1,6.908,1.044l10.294,2.359-5.593,7.9c-2.838,4.012-5.764,7.969-8.678,11.931-2.953,3.939-5.9,7.878-8.937,11.762q-4.515,5.847-9.218,11.572C929.142,1593.555,925.97,1597.345,922.631,1601.026Z" transform="translate(-487.077 -1013.291)"/><path class="cls-3" d="M885.382,1656.93" transform="translate(-487.077 -1013.291)"/><path d="M629.8,1765.132a128.426,128.426,0,0,1-23.206,1,149.765,149.765,0,0,1-23.289-2.881,175.933,175.933,0,0,1-44.549-15.7,182.508,182.508,0,0,1-20.507-12.141,151.667,151.667,0,0,1-18.913-15.086c-1.5-1.426-2.991-2.886-4.437-4.484a53.224,53.224,0,0,1-4.355-5.353c-.183-.257-.369-.528-.561-.833s-.371-.563-.576-.924-.378-.631-.6-1.083a15.011,15.011,0,0,1-.643-1.4c-.116-.3-.21-.515-.33-.881-.127-.4-.24-.809-.338-1.219-.026-.118-.044-.171-.075-.343l-.078-.491c-.046-.329-.081-.66-.1-.992l-.024-.5c0-.159,0-.212,0-.324l.029-.587a12.127,12.127,0,0,1,.31-2.212,13.329,13.329,0,0,1,.545-1.852c.2-.517.432-1.108.656-1.543s.457-.872.7-1.3a22.809,22.809,0,0,1,1.411-2.068,29.491,29.491,0,0,1,2.768-3.128,49.291,49.291,0,0,1,5.354-4.514c1.767-1.311,3.525-2.486,5.29-3.608s3.53-2.174,5.313-3.183l2.69-1.487c.926-.5,1.765-.942,2.825-1.472l.057,16.99c-1.069-.513-1.907-.959-2.838-1.448l-2.7-1.469c-1.789-1-3.563-2.042-5.334-3.148s-3.538-2.274-5.314-3.573a51.139,51.139,0,0,1-5.391-4.471,29.568,29.568,0,0,1-2.791-3.111,22.713,22.713,0,0,1-1.425-2.061c-.245-.426-.482-.859-.708-1.3s-.463-1.025-.667-1.54a13.375,13.375,0,0,1-.559-1.851,12.31,12.31,0,0,1-.325-2.212l-.032-.588c0-.112-.01-.164-.007-.324l.021-.5c.02-.332.053-.664.1-.994l.075-.492c.029-.172.047-.225.072-.343.1-.411.206-.82.33-1.223.118-.367.21-.586.325-.884a15.08,15.08,0,0,1,.635-1.4c.219-.455.391-.723.594-1.088s.379-.624.569-.929.375-.578.556-.837a53.167,53.167,0,0,1,4.321-5.383c1.437-1.606,2.909-3.089,4.4-4.519a152.257,152.257,0,0,1,18.811-15.218c3.285-2.267,6.617-4.445,10.025-6.49s6.886-3.961,10.4-5.79a175.653,175.653,0,0,1,44.449-15.995,149.875,149.875,0,0,1,23.274-3.029,128.08,128.08,0,0,1,23.214.865,201.51,201.51,0,0,0-43.91,11.083,212.169,212.169,0,0,0-39.626,19.956q-4.658,2.965-9.131,6.184c-2.99,2.127-5.928,4.317-8.78,6.6a162.018,162.018,0,0,0-16.037,14.483c-1.2,1.276-2.358,2.566-3.44,3.832a35.634,35.634,0,0,0-2.754,3.618c-.089.135-.168.261-.224.364s-.148.239-.168.3-.109.191-.084.173c.007,0-.028.065.05-.1.032-.074.026-.075.075-.213a3.474,3.474,0,0,0,.145-.531l.088-.484a5.667,5.667,0,0,0,.06-.638l.009-.7a8.076,8.076,0,0,0-.106-.8c-.022-.18-.141-.432-.136-.485a1.9,1.9,0,0,0-.092-.23.036.036,0,0,0-.014-.043c.071.059.082.115.233.273a12.225,12.225,0,0,0,1.083,1.1,50.683,50.683,0,0,0,7.692,5.552c1.477.9,3,1.783,4.558,2.629l2.345,1.246,2.27,1.145,17.159,8.65-17.1,8.341c-.651.317-1.506.755-2.266,1.155l-2.336,1.261c-1.549.858-3.069,1.748-4.541,2.66a52.253,52.253,0,0,0-7.662,5.6,12.131,12.131,0,0,0-1.076,1.111c-.151.159-.162.215-.232.275a.036.036,0,0,0,.013-.042,1.91,1.91,0,0,0,.089-.229c0-.052.112-.3.133-.483.009-.151.1-.494.1-.8l-.013-.695a5.678,5.678,0,0,0-.064-.637l-.091-.482a3.341,3.341,0,0,0-.149-.528c-.05-.138-.043-.139-.075-.212-.08-.159-.044-.1-.05-.094-.026-.017.063.118.084.174s.114.195.171.3.137.229.227.363a35.691,35.691,0,0,0,2.78,3.6c1.092,1.258,2.245,2.552,3.46,3.815a162.777,162.777,0,0,0,16.134,14.381c2.867,2.264,5.825,4.427,8.823,6.544s6.056,4.165,9.176,6.121a211.693,211.693,0,0,0,39.764,19.691A201.04,201.04,0,0,0,629.8,1765.132Z" transform="translate(-487.077 -1013.291)"/><path d="M789.28,1817.835a128.516,128.516,0,0,1-6.3,22.358,149.981,149.981,0,0,1-10.015,21.222,175.954,175.954,0,0,1-28.834,37.412,182.5,182.5,0,0,1-17.941,15.686,151.714,151.714,0,0,1-20.241,13.251c-1.823.976-3.677,1.939-5.646,2.813a53.273,53.273,0,0,1-6.446,2.465c-.3.093-.617.185-.967.272s-.651.176-1.058.258-.717.162-1.216.233a15.273,15.273,0,0,1-1.528.175c-.318.017-.554.038-.939.038-.421-.005-.844-.025-1.264-.06-.12-.012-.176-.012-.349-.037l-.491-.079c-.326-.058-.652-.129-.974-.212l-.48-.132c-.153-.046-.2-.069-.306-.105l-.549-.211a12.244,12.244,0,0,1-2-.986,13.531,13.531,0,0,1-1.589-1.1c-.427-.352-.917-.756-1.26-1.105s-.685-.707-1.016-1.07a23.046,23.046,0,0,1-1.524-1.986,29.622,29.622,0,0,1-2.106-3.608,49.338,49.338,0,0,1-2.615-6.5c-.693-2.089-1.26-4.126-1.774-6.152s-.962-4.033-1.364-6.042l-.571-3.02c-.183-1.036-.343-1.972-.516-3.144l16.158,5.256c-.822.854-1.508,1.511-2.263,2.243l-2.239,2.105c-1.507,1.388-3.054,2.747-4.658,4.084s-3.265,2.65-5.054,3.931a51.177,51.177,0,0,1-5.932,3.724,29.616,29.616,0,0,1-3.828,1.678,22.856,22.856,0,0,1-2.4.71c-.482.1-.967.189-1.452.268s-1.118.119-1.672.152a13.264,13.264,0,0,1-1.932-.048,12.222,12.222,0,0,1-2.2-.382l-.568-.153c-.107-.033-.16-.042-.311-.1l-.466-.176c-.309-.122-.615-.257-.914-.4l-.444-.225c-.154-.082-.2-.115-.3-.176-.361-.219-.715-.452-1.059-.7-.312-.226-.491-.383-.738-.584-.508-.416-.789-.707-1.133-1.041-.363-.351-.563-.6-.847-.9s-.474-.554-.705-.831-.432-.537-.621-.789a53.248,53.248,0,0,1-3.763-5.787c-1.077-1.867-2.025-3.728-2.918-5.594a152.256,152.256,0,0,1-8.576-22.625c-1.127-3.828-2.155-7.674-3.032-11.551s-1.611-7.779-2.249-11.691a175.626,175.626,0,0,1-1.3-47.222,149.9,149.9,0,0,1,4.4-23.054,128.127,128.127,0,0,1,8.075-21.782,201.51,201.51,0,0,0-3.194,45.175,212.128,212.128,0,0,0,6.573,43.877q1.361,5.354,3.021,10.607c1.085,3.5,2.248,6.98,3.524,10.4a161.9,161.9,0,0,0,8.746,19.761c.837,1.539,1.7,3.041,2.565,4.465a35.676,35.676,0,0,0,2.576,3.746c.1.127.2.242.276.327s.18.215.231.253.147.163.138.133c0-.006.053.048-.074-.077-.061-.053-.063-.047-.179-.137a3.453,3.453,0,0,0-.46-.3l-.431-.235a5.678,5.678,0,0,0-.588-.256l-.659-.227c-.293-.09-.647-.112-.794-.149-.178-.035-.455,0-.5-.022a1.787,1.787,0,0,0-.247.015.036.036,0,0,0-.045,0c.078-.049.134-.042.331-.136a12.473,12.473,0,0,0,1.386-.684,50.758,50.758,0,0,0,7.678-5.572c1.318-1.121,2.631-2.3,3.922-3.508l1.916-1.838,1.8-1.8,13.579-13.6,2.578,18.852c.1.718.247,1.667.389,2.513l.469,2.613c.33,1.74.7,3.462,1.107,5.145A52.252,52.252,0,0,0,691,1915.19a12.327,12.327,0,0,0,.719,1.37c.1.193.154.22.189.306a.034.034,0,0,0-.035-.026c-.017,0-.117-.122-.19-.156-.052-.011-.255-.2-.418-.277-.141-.056-.439-.247-.728-.346l-.665-.2a5.575,5.575,0,0,0-.625-.138l-.486-.064a3.359,3.359,0,0,0-.549-.024c-.146,0-.145,0-.224.006-.177.025-.1.011-.1.017-.024.019.132-.023.191-.026a3.426,3.426,0,0,0,.336-.069c.116-.021.26-.058.416-.1a35.659,35.659,0,0,0,4.289-1.515c1.536-.644,3.126-1.335,4.705-2.1a162.761,162.761,0,0,0,18.7-10.832c3.047-2.015,6.026-4.149,8.974-6.336s5.849-4.45,8.682-6.8a211.663,211.663,0,0,0,31.131-31.619A201.115,201.115,0,0,0,789.28,1817.835Z" transform="translate(-487.077 -1013.291)"/><path class="cls-3" d="M782.029,1792.745" transform="translate(-487.077 -1013.291)"/></g><g id="Logo_Text_copy_5" data-name="Logo Text copy 5"><text class="cls-4" transform="translate(402.749 335.986)">C<tspan class="cls-5" x="388.558" y="0">olor</tspan></text></g><g id="Logo_Text_copy_6" data-name="Logo Text copy 6"><text class="cls-6" transform="translate(1059.102 498.469)">an album <tspan class="cls-7" x="705.967" y="0">b</tspan><tspan class="cls-8" x="793.208" y="0">y</tspan></text></g></svg>