<svg width="1859" height="1544" viewBox="0 0 1859 1544" fill="none" 
xmlns="http://www.w3.org/2000/svg">
<rect width="1859" height="1544" fill="#FF0000" fill-opacity="0.27"/>
<circle cx="278" cy="583" r="57" fill="#D9D9D9"/>
<circle cx="403" cy="261" r="57" fill="#D9D9D9"/>
<circle cx="517" cy="969" r="57" fill="#D9D9D9"/>
<circle cx="271" cy="1214" r="57" fill="#D9D9D9"/>
<circle cx="735" cy="1214" r="57" fill="#D9D9D9"/>
<circle cx="674" cy="1013" r="57" fill="#D9D9D9"/>
<circle cx="808" cy="1013" r="57" fill="#D9D9D9"/>
<circle cx="1236" cy="1009" r="57" fill="#D9D9D9"/>
<circle cx="1359" cy="1009" r="57" fill="#D9D9D9"/>
<circle cx="1160" cy="1214" r="57" fill="#D9D9D9"/>
<circle cx="955" cy="1397" r="57" fill="#D9D9D9"/>
<circle cx="1547" cy="1026" r="57" fill="#D9D9D9"/>
<circle cx="1365" cy="775" r="57" fill="#D9D9D9"/>
<circle cx="1543" cy="815" r="57" fill="#D9D9D9"/>
<circle cx="1543" cy="451" r="57" fill="#D9D9D9"/>
<circle cx="1450" cy="261" r="57" fill="#D9D9D9"/>
<circle cx="1733" cy="1196" r="57" fill="#D9D9D9"/>
<circle cx="1547" cy="583" r="57" fill="#D9D9D9"/>
<circle cx="1103" cy="1013" r="57" fill="#D9D9D9"/>
<circle cx="605" cy="1214" r="57" fill="#D9D9D9"/>
<circle cx="164" cy="772" r="57" fill="#D9D9D9"/>
<circle cx="289" cy="836" r="57" fill="#D9D9D9"/>
<circle cx="157" cy="635" r="57" fill="#D9D9D9"/>
<path d="M1716.67 1412.58V1341.42L1772.58 1377L1716.67 1412.58Z" 
fill="#1D1B20"/>
<rect x="385" y="343" width="36" height="783" fill="#D9D9D9"/>
<rect x="938" y="1105" width="34" height="211" fill="#D9D9D9"/>
<rect x="249.4" y="718.479" width="34" height="168.354" 
transform="rotate(-90.6739 249.4 718.479)" fill="#D9D9D9"/>
<rect x="1436" y="331" width="35" height="774" fill="#D9D9D9"/>
<rect x="107" y="1097" width="1645" height="28" fill="#D9D9D9"/>
<path d="M652 372C652 372 724.641 919.853 940.81 920C1157.06 920.147 1230 372
1230 372" stroke="black" stroke-width="31"/>
</svg>
