<?xml version="1.0" encoding="UTF-8"?>
<svg id="Layer_2" data-name="Layer 2" xmlns="http://www.w3.org/2000/svg" viewBox="0 0 250 147.75">
  <defs>
    <style>
      .cls-1 {
        fill: #fff;
      }
    </style>
  </defs>
  <g id="Layer_1-2" data-name="Layer 1">
    <g id="Co26_White" data-name="Co26 White">
      <g>
        <path class="cls-1" d="M18.96,124.71c0,.42-.25.67-.67.67h-4.2c-.46,0-.67-.25-.67-.67v-3.36c0-1.09-.59-1.68-1.68-1.68h-2.19c-1.13,0-1.68.59-1.68,1.68v19.17c0,1.13.59,1.68,1.68,1.68h2.19c1.09,0,1.68-.55,1.68-1.68v-3.36c0-.42.21-.67.67-.67h4.2c.42,0,.67.25.67.67v4.54c0,3.95-2.14,6.05-6.05,6.05h-4.71c-3.95,0-6.1-2.1-6.1-6.05v-21.52c0-3.95,2.14-6.05,6.1-6.05h4.71c3.91,0,6.05,2.1,6.05,6.05v4.54Z"/>
        <path class="cls-1" d="M28.88,142.2h8.32c.46,0,.67.25.67.67v4.2c0,.46-.21.67-.67.67h-13.37c-.42,0-.67-.21-.67-.67v-28.08c0-.42.25-.67.67-.67h4.37c.46,0,.67.25.67.67v23.2Z"/>
        <path class="cls-1" d="M57,147.75c-.38,0-.59-.21-.67-.59l-1.35-5.3h-7.9l-1.3,5.3c-.08.38-.29.59-.67.59h-4.12c-.46,0-.67-.25-.55-.71l6.98-28.12c.08-.42.34-.59.71-.59h5.84c.38,0,.63.17.71.59l6.98,28.12c.13.46-.08.71-.59.71h-4.08ZM51.03,125.55l-2.65,11.43h5.3l-2.65-11.43Z"/>
        <path class="cls-1" d="M74.56,118.32c3.95,0,6.05,2.1,6.05,6.05v2.77c0,.42-.21.67-.67.67h-4.25c-.42,0-.67-.25-.67-.67v-1.77c0-1.09-.55-1.68-1.68-1.68h-2.31c-1.05,0-1.68.59-1.68,1.68v3.57l10.17,3.28c.71.25,1.09.76,1.09,1.56v7.9c0,3.95-2.1,6.05-6.05,6.05h-4.71c-3.91,0-6.05-2.1-6.05-6.05v-2.73c0-.46.25-.67.67-.67h4.25c.46,0,.67.21.67.67v1.77c0,1.13.63,1.68,1.68,1.68h2.27c1.09,0,1.68-.55,1.68-1.68v-4.25l-10.09-3.28c-.76-.25-1.13-.76-1.13-1.56v-7.27c0-3.95,2.14-6.05,6.05-6.05h4.71Z"/>
        <path class="cls-1" d="M94.74,118.32c3.95,0,6.05,2.1,6.05,6.05v2.77c0,.42-.21.67-.67.67h-4.25c-.42,0-.67-.25-.67-.67v-1.77c0-1.09-.55-1.68-1.68-1.68h-2.31c-1.05,0-1.68.59-1.68,1.68v3.57l10.17,3.28c.71.25,1.09.76,1.09,1.56v7.9c0,3.95-2.1,6.05-6.05,6.05h-4.71c-3.91,0-6.05-2.1-6.05-6.05v-2.73c0-.46.25-.67.67-.67h4.25c.46,0,.67.21.67.67v1.77c0,1.13.63,1.68,1.68,1.68h2.27c1.09,0,1.68-.55,1.68-1.68v-4.25l-10.09-3.28c-.76-.25-1.13-.76-1.13-1.56v-7.27c0-3.95,2.14-6.05,6.05-6.05h4.71Z"/>
        <path class="cls-1" d="M115.5,124.38c0-3.95,2.1-6.05,6.05-6.05h4.71c3.95,0,6.05,2.1,6.05,6.05v17.32c0,3.95-2.1,6.05-6.05,6.05h-4.71c-3.95,0-6.05-2.1-6.05-6.05v-17.32ZM125.34,142.33c1.09,0,1.68-.55,1.68-1.68v-15.22c0-1.09-.59-1.68-1.68-1.68h-2.69c-1.09,0-1.68.59-1.68,1.68v15.22c0,1.13.59,1.68,1.68,1.68h2.69Z"/>
        <path class="cls-1" d="M153.33,123.2c0,.42-.25.67-.67.67h-10.42v7.19h7.9c.42,0,.67.25.67.67v4.2c0,.46-.25.67-.67.67h-7.9v10.47c0,.42-.25.67-.67.67h-4.37c-.46,0-.67-.25-.67-.67v-28.08c0-.42.21-.67.67-.67h15.47c.42,0,.67.25.67.67v4.2Z"/>
        <path class="cls-1" d="M174.35,136.69c-.42.25-.59.55-.59,1.01v3.66c0,.55.29.84.84.84h4.54v-1.72c0-.55.29-.84.84-.84h4.04c.55,0,.84.29.84.84v6.43c0,.55-.29.84-.84.84h-15.13c-.55,0-.84-.29-.84-.84v-12.4c0-.8.29-1.13,1.09-1.56l10-5.38v-6.22c0-1.09-.63-1.68-1.68-1.68h-2.02c-1.13,0-1.68.59-1.68,1.68v3.28c0,.42-.25.67-.67.67h-4.37c-.46,0-.67-.25-.67-.67v-4.46c0-3.95,2.1-6.05,6.05-6.05h4.71c3.91,0,6.05,2.1,6.05,6.05v9.92c0,.8-.34,1.13-1.13,1.56l-9.37,5.04Z"/>
        <path class="cls-1" d="M189.06,120.17c0-3.95,2.1-6.05,6.05-6.05h4.71c3.95,0,6.05,2.1,6.05,6.05v21.52c0,3.95-2.1,6.05-6.05,6.05h-4.71c-3.95,0-6.05-2.1-6.05-6.05v-21.52ZM198.77,142.33c1.09,0,1.68-.55,1.68-1.68v-19.42c0-1.09-.59-1.68-1.68-1.68h-2.44c-1.09,0-1.68.59-1.68,1.68v19.42c0,1.13.59,1.68,1.68,1.68h2.44Z"/>
        <path class="cls-1" d="M216.38,136.69c-.42.25-.59.55-.59,1.01v3.66c0,.55.29.84.84.84h4.54v-1.72c0-.55.29-.84.84-.84h4.04c.55,0,.84.29.84.84v6.43c0,.55-.29.84-.84.84h-15.13c-.55,0-.84-.29-.84-.84v-12.4c0-.8.29-1.13,1.09-1.56l10-5.38v-6.22c0-1.09-.63-1.68-1.68-1.68h-2.02c-1.13,0-1.68.59-1.68,1.68v3.28c0,.42-.25.67-.67.67h-4.37c-.46,0-.67-.25-.67-.67v-4.46c0-3.95,2.1-6.05,6.05-6.05h4.71c3.91,0,6.05,2.1,6.05,6.05v9.92c0,.8-.34,1.13-1.13,1.56l-9.37,5.04Z"/>
        <path class="cls-1" d="M242.02,127.11c3.83,0,5.88,2.06,5.88,5.88v8.87c0,3.83-2.06,5.88-5.88,5.88h-5.04c-3.83,0-5.88-2.06-5.88-5.88v-10.8c0-.8.13-1.35.42-2.1l5.97-14.21c.17-.42.46-.63.97-.63h4.37c.63,0,.88.38.63.97l-5.09,12.02h3.66ZM240.67,142.2c1.09,0,1.68-.59,1.68-1.68v-6.18c0-1.09-.59-1.68-1.68-1.68h-2.35c-1.09,0-1.68.59-1.68,1.68v6.18c0,1.09.59,1.68,1.68,1.68h2.35Z"/>
      </g>
      <polygon class="cls-1" points="217.1 109.12 218.39 66.43 212.37 90.52 186.35 90.52 183.77 80.41 183.77 109.12 163.48 108.94 147.77 86.44 144.12 91.81 127.99 64.72 108.85 84.71 94.66 68.16 79.83 93.53 63.02 106.56 59.72 109.12 2.36 109.12 2.45 77.76 19.13 77.76 21.07 54.55 19.78 34.18 .64 34.18 0 0 63.22 0 62.38 33.51 46.65 32.89 44.94 54.55 46.65 77.76 63.26 77.76 63.17 88.24 68.74 54.55 70.26 0 95.41 0 107.89 54.55 124.44 0 148.52 0 151.11 63.86 153.54 89.14 158.05 58.05 161.2 0 186.35 0 198.82 54.55 215.38 0 239.45 0 242.04 63.86 250 109.12 217.1 109.12"/>
    </g>
  </g>
</svg>