<svg xmlns="http://www.w3.org/2000/svg" xmlns:xlink="http://www.w3.org/1999/xlink" width="760" zoomAndPan="magnify" viewBox="0 0 570 378.749986" height="505" preserveAspectRatio="xMidYMid meet" version="1.0"><defs><g/><clipPath id="1867a875d7"><path d="M 15 61.78125 L 527 61.78125 L 527 283.636719 L 15 283.636719 Z M 15 61.78125 " clip-rule="nonzero"/></clipPath><clipPath id="b4d80c8ada"><rect x="0" width="511" y="0" height="79"/></clipPath><clipPath id="59f0f95ca4"><rect x="0" width="82" y="0" height="95"/></clipPath></defs><g clip-path="url(#1867a875d7)"><path fill="#165c45" d="M 459.375 285.207031 L 462.015625 197.796875 L 449.695312 247.125 L 396.433594 247.125 L 391.15625 226.421875 L 391.15625 285.207031 L 349.625 284.839844 L 317.46875 238.769531 L 309.996094 249.765625 L 276.980469 194.296875 L 237.804688 235.226562 L 208.757812 201.339844 L 178.402344 253.285156 L 143.996094 279.964844 L 137.242188 285.207031 L 19.832031 285.207031 L 20.019531 220.996094 L 54.160156 220.996094 L 58.128906 173.472656 L 55.488281 131.765625 L 16.3125 131.765625 L 15.003906 61.78125 L 144.40625 61.78125 L 142.6875 130.394531 L 110.488281 129.125 L 106.988281 173.472656 L 110.488281 220.996094 L 144.488281 220.996094 L 144.304688 242.457031 L 155.703125 173.472656 L 158.816406 61.78125 L 210.292969 61.78125 L 235.839844 173.472656 L 269.714844 61.78125 L 319.003906 61.78125 L 324.304688 192.535156 L 329.277344 244.296875 L 338.507812 180.640625 L 344.957031 61.78125 L 396.433594 61.78125 L 421.960938 173.472656 L 455.855469 61.78125 L 505.125 61.78125 L 510.425781 192.535156 L 526.71875 285.207031 Z M 459.375 285.207031 " fill-opacity="1" fill-rule="nonzero"/></g><g transform="matrix(1, 0, 0, 1, 14, 286)"><g clip-path="url(#b4d80c8ada)"><g fill="#165c45" fill-opacity="1"><g transform="translate(0.154999, 64.51943)"><g><path d="M 12.625 -52.09375 L 19.921875 -52.09375 C 23.003906 -52.09375 25.335938 -51.296875 26.921875 -49.703125 C 28.503906 -48.117188 29.296875 -45.789062 29.296875 -42.71875 L 29.296875 -35.8125 C 29.296875 -35.113281 28.945312 -34.765625 28.25 -34.765625 L 21.484375 -34.765625 C 20.785156 -34.765625 20.4375 -35.113281 20.4375 -35.8125 L 20.4375 -40.890625 C 20.4375 -42.628906 19.570312 -43.5 17.84375 -43.5 L 14.71875 -43.5 C 12.976562 -43.5 12.109375 -42.628906 12.109375 -40.890625 L 12.109375 -31.90625 L 27.609375 -26.828125 C 28.734375 -26.347656 29.296875 -25.546875 29.296875 -24.421875 L 29.296875 -9.375 C 29.296875 -6.332031 28.503906 -4.007812 26.921875 -2.40625 C 25.335938 -0.800781 23.003906 0 19.921875 0 L 12.625 0 C 9.59375 0 7.269531 -0.800781 5.65625 -2.40625 C 4.050781 -4.007812 3.25 -6.332031 3.25 -9.375 L 3.25 -16.21875 C 3.25 -16.90625 3.597656 -17.25 4.296875 -17.25 L 11.0625 -17.25 C 11.757812 -17.25 12.109375 -16.90625 12.109375 -16.21875 L 12.109375 -11.203125 C 12.109375 -9.460938 12.976562 -8.59375 14.71875 -8.59375 L 17.84375 -8.59375 C 19.570312 -8.59375 20.4375 -9.460938 20.4375 -11.203125 L 20.4375 -19.859375 L 5.015625 -24.9375 C 3.835938 -25.320312 3.25 -26.125 3.25 -27.34375 L 3.25 -42.71875 C 3.25 -45.789062 4.050781 -48.117188 5.65625 -49.703125 C 7.269531 -51.296875 9.59375 -52.09375 12.625 -52.09375 Z M 12.625 -52.09375 "/></g></g></g><g fill="#165c45" fill-opacity="1"><g transform="translate(34.725997, 64.51943)"><g><path d="M 29.234375 -51.046875 L 29.234375 -44.53125 C 29.234375 -43.789062 28.882812 -43.421875 28.1875 -43.421875 L 11.921875 -43.421875 L 11.921875 -30.40625 L 24.34375 -30.40625 C 25.039062 -30.40625 25.390625 -30.035156 25.390625 -29.296875 L 25.390625 -22.859375 C 25.390625 -22.117188 25.039062 -21.75 24.34375 -21.75 L 11.921875 -21.75 L 11.921875 -8.59375 L 28.1875 -8.59375 C 28.882812 -8.59375 29.234375 -8.242188 29.234375 -7.546875 L 29.234375 -1.046875 C 29.234375 -0.347656 28.882812 0 28.1875 0 L 4.234375 0 C 3.578125 0 3.25 -0.347656 3.25 -1.046875 L 3.25 -51.046875 C 3.25 -51.742188 3.578125 -52.09375 4.234375 -52.09375 L 28.1875 -52.09375 C 28.882812 -52.09375 29.234375 -51.742188 29.234375 -51.046875 Z M 29.234375 -51.046875 "/></g></g></g><g fill="#165c45" fill-opacity="1"><g transform="translate(69.231895, 64.51943)"><g><path d="M 23.25 -52.09375 L 30.015625 -52.09375 C 30.710938 -52.09375 31.0625 -51.742188 31.0625 -51.046875 L 31.0625 -1.046875 C 31.0625 -0.347656 30.710938 0 30.015625 0 L 23.5625 0 C 22.957031 0 22.566406 -0.28125 22.390625 -0.84375 L 12.4375 -28.640625 L 12.109375 -28.640625 L 12.109375 -1.046875 C 12.109375 -0.347656 11.757812 0 11.0625 0 L 4.296875 0 C 3.597656 0 3.25 -0.347656 3.25 -1.046875 L 3.25 -51.046875 C 3.25 -51.742188 3.597656 -52.09375 4.296875 -52.09375 L 10.75 -52.09375 C 11.351562 -52.09375 11.742188 -51.804688 11.921875 -51.234375 L 21.8125 -23.5625 L 22.203125 -23.5625 L 22.203125 -51.046875 C 22.203125 -51.742188 22.550781 -52.09375 23.25 -52.09375 Z M 23.25 -52.09375 "/></g></g></g><g fill="#165c45" fill-opacity="1"><g transform="translate(105.560733, 64.51943)"><g><path d="M 4.296875 -52.09375 L 11.0625 -52.09375 C 11.757812 -52.09375 12.109375 -51.742188 12.109375 -51.046875 L 12.109375 -1.046875 C 12.109375 -0.347656 11.757812 0 11.0625 0 L 4.296875 0 C 3.597656 0 3.25 -0.347656 3.25 -1.046875 L 3.25 -51.046875 C 3.25 -51.742188 3.597656 -52.09375 4.296875 -52.09375 Z M 4.296875 -52.09375 "/></g></g></g><g fill="#165c45" fill-opacity="1"><g transform="translate(122.944037, 64.51943)"><g><path d="M 3.25 -9.375 L 3.25 -42.71875 C 3.25 -45.789062 4.050781 -48.117188 5.65625 -49.703125 C 7.269531 -51.296875 9.59375 -52.09375 12.625 -52.09375 L 19.921875 -52.09375 C 23.003906 -52.09375 25.335938 -51.296875 26.921875 -49.703125 C 28.503906 -48.117188 29.296875 -45.789062 29.296875 -42.71875 L 29.296875 -9.375 C 29.296875 -6.332031 28.503906 -4.007812 26.921875 -2.40625 C 25.335938 -0.800781 23.003906 0 19.921875 0 L 12.625 0 C 9.59375 0 7.269531 -0.800781 5.65625 -2.40625 C 4.050781 -4.007812 3.25 -6.332031 3.25 -9.375 Z M 14.515625 -8.40625 L 18.296875 -8.40625 C 20.035156 -8.40625 20.90625 -9.269531 20.90625 -11 L 20.90625 -41.078125 C 20.90625 -42.816406 20.035156 -43.6875 18.296875 -43.6875 L 14.515625 -43.6875 C 12.785156 -43.6875 11.921875 -42.816406 11.921875 -41.078125 L 11.921875 -11 C 11.921875 -9.269531 12.785156 -8.40625 14.515625 -8.40625 Z M 14.515625 -8.40625 "/></g></g></g><g fill="#165c45" fill-opacity="1"><g transform="translate(157.515036, 64.51943)"><g><path d="M 30.015625 -42.71875 L 30.015625 -26.828125 C 30.015625 -22.484375 28.429688 -19.617188 25.265625 -18.234375 L 29.75 -1.171875 C 29.96875 -0.390625 29.664062 0 28.84375 0 L 22.078125 0 C 21.460938 0 21.09375 -0.300781 20.96875 -0.90625 L 16.609375 -17.453125 L 12.109375 -17.453125 L 12.109375 -1.046875 C 12.109375 -0.347656 11.757812 0 11.0625 0 L 4.296875 0 C 3.597656 0 3.25 -0.347656 3.25 -1.046875 L 3.25 -51.046875 C 3.25 -51.742188 3.597656 -52.09375 4.296875 -52.09375 L 20.640625 -52.09375 C 23.722656 -52.09375 26.054688 -51.296875 27.640625 -49.703125 C 29.222656 -48.117188 30.015625 -45.789062 30.015625 -42.71875 Z M 12.109375 -26.046875 L 18.5625 -26.046875 C 20.289062 -26.046875 21.15625 -26.910156 21.15625 -28.640625 L 21.15625 -40.890625 C 21.15625 -42.628906 20.289062 -43.5 18.5625 -43.5 L 12.109375 -43.5 Z M 12.109375 -26.046875 "/></g></g></g><g fill="#165c45" fill-opacity="1"><g transform="translate(192.802195, 64.51943)"><g/></g></g><g fill="#165c45" fill-opacity="1"><g transform="translate(211.096964, 64.51943)"><g><path d="M 12.625 -52.09375 L 19.921875 -52.09375 C 23.003906 -52.09375 25.335938 -51.296875 26.921875 -49.703125 C 28.503906 -48.117188 29.296875 -45.789062 29.296875 -42.71875 L 29.296875 -35.8125 C 29.296875 -35.113281 28.945312 -34.765625 28.25 -34.765625 L 21.484375 -34.765625 C 20.785156 -34.765625 20.4375 -35.113281 20.4375 -35.8125 L 20.4375 -40.890625 C 20.4375 -42.628906 19.570312 -43.5 17.84375 -43.5 L 14.71875 -43.5 C 12.976562 -43.5 12.109375 -42.628906 12.109375 -40.890625 L 12.109375 -31.90625 L 27.609375 -26.828125 C 28.734375 -26.347656 29.296875 -25.546875 29.296875 -24.421875 L 29.296875 -9.375 C 29.296875 -6.332031 28.503906 -4.007812 26.921875 -2.40625 C 25.335938 -0.800781 23.003906 0 19.921875 0 L 12.625 0 C 9.59375 0 7.269531 -0.800781 5.65625 -2.40625 C 4.050781 -4.007812 3.25 -6.332031 3.25 -9.375 L 3.25 -16.21875 C 3.25 -16.90625 3.597656 -17.25 4.296875 -17.25 L 11.0625 -17.25 C 11.757812 -17.25 12.109375 -16.90625 12.109375 -16.21875 L 12.109375 -11.203125 C 12.109375 -9.460938 12.976562 -8.59375 14.71875 -8.59375 L 17.84375 -8.59375 C 19.570312 -8.59375 20.4375 -9.460938 20.4375 -11.203125 L 20.4375 -19.859375 L 5.015625 -24.9375 C 3.835938 -25.320312 3.25 -26.125 3.25 -27.34375 L 3.25 -42.71875 C 3.25 -45.789062 4.050781 -48.117188 5.65625 -49.703125 C 7.269531 -51.296875 9.59375 -52.09375 12.625 -52.09375 Z M 12.625 -52.09375 "/></g></g></g><g fill="#165c45" fill-opacity="1"><g transform="translate(245.66795, 64.51943)"><g><path d="M 20.4375 -30.34375 L 20.4375 -51.046875 C 20.4375 -51.742188 20.785156 -52.09375 21.484375 -52.09375 L 28.1875 -52.09375 C 28.925781 -52.09375 29.296875 -51.742188 29.296875 -51.046875 L 29.296875 -1.046875 C 29.296875 -0.347656 28.925781 0 28.1875 0 L 21.484375 0 C 20.785156 0 20.4375 -0.347656 20.4375 -1.046875 L 20.4375 -21.75 L 12.109375 -21.75 L 12.109375 -1.046875 C 12.109375 -0.347656 11.757812 0 11.0625 0 L 4.359375 0 C 3.617188 0 3.25 -0.347656 3.25 -1.046875 L 3.25 -51.046875 C 3.25 -51.742188 3.617188 -52.09375 4.359375 -52.09375 L 11.0625 -52.09375 C 11.757812 -52.09375 12.109375 -51.742188 12.109375 -51.046875 L 12.109375 -30.34375 Z M 20.4375 -30.34375 "/></g></g></g><g fill="#165c45" fill-opacity="1"><g transform="translate(280.23896, 64.51943)"><g><path d="M 3.25 -9.375 L 3.25 -42.71875 C 3.25 -45.789062 4.050781 -48.117188 5.65625 -49.703125 C 7.269531 -51.296875 9.59375 -52.09375 12.625 -52.09375 L 19.921875 -52.09375 C 23.003906 -52.09375 25.335938 -51.296875 26.921875 -49.703125 C 28.503906 -48.117188 29.296875 -45.789062 29.296875 -42.71875 L 29.296875 -9.375 C 29.296875 -6.332031 28.503906 -4.007812 26.921875 -2.40625 C 25.335938 -0.800781 23.003906 0 19.921875 0 L 12.625 0 C 9.59375 0 7.269531 -0.800781 5.65625 -2.40625 C 4.050781 -4.007812 3.25 -6.332031 3.25 -9.375 Z M 14.515625 -8.40625 L 18.296875 -8.40625 C 20.035156 -8.40625 20.90625 -9.269531 20.90625 -11 L 20.90625 -41.078125 C 20.90625 -42.816406 20.035156 -43.6875 18.296875 -43.6875 L 14.515625 -43.6875 C 12.785156 -43.6875 11.921875 -42.816406 11.921875 -41.078125 L 11.921875 -11 C 11.921875 -9.269531 12.785156 -8.40625 14.515625 -8.40625 Z M 14.515625 -8.40625 "/></g></g></g><g fill="#165c45" fill-opacity="1"><g transform="translate(314.809971, 64.51943)"><g><path d="M 38.875 -52.09375 L 45.0625 -52.09375 C 45.96875 -52.09375 46.378906 -51.632812 46.296875 -50.71875 L 40.6875 -1.234375 C 40.644531 -0.410156 40.191406 0 39.328125 0 L 32.953125 0 C 32.210938 0 31.734375 -0.390625 31.515625 -1.171875 L 24.734375 -30.59375 L 17.90625 -1.109375 C 17.6875 -0.367188 17.207031 0 16.46875 0 L 9.96875 0 C 9.09375 0 8.632812 -0.410156 8.59375 -1.234375 L 3.25 -50.71875 C 3.164062 -51.632812 3.582031 -52.09375 4.5 -52.09375 L 10.671875 -52.09375 C 11.503906 -52.09375 11.960938 -51.675781 12.046875 -50.84375 L 14.578125 -20.375 L 14.90625 -20.375 L 21.359375 -50.921875 C 21.578125 -51.703125 22.050781 -52.09375 22.78125 -52.09375 L 26.6875 -52.09375 C 27.46875 -52.09375 27.945312 -51.703125 28.125 -50.921875 L 34.515625 -20.375 L 34.828125 -20.375 L 37.5 -50.84375 C 37.59375 -51.675781 38.050781 -52.09375 38.875 -52.09375 Z M 38.875 -52.09375 "/></g></g></g><g fill="#165c45" fill-opacity="1"><g transform="translate(366.373348, 64.51943)"><g><path d="M 29.359375 -42.71875 L 29.359375 -35.6875 C 29.359375 -34.988281 29.015625 -34.640625 28.328125 -34.640625 L 21.8125 -34.640625 C 21.113281 -34.640625 20.765625 -34.988281 20.765625 -35.6875 L 20.765625 -40.890625 C 20.765625 -42.628906 19.898438 -43.5 18.171875 -43.5 L 14.78125 -43.5 C 13.039062 -43.5 12.171875 -42.628906 12.171875 -40.890625 L 12.171875 -11.203125 C 12.171875 -9.460938 13.039062 -8.59375 14.78125 -8.59375 L 18.171875 -8.59375 C 19.898438 -8.59375 20.765625 -9.460938 20.765625 -11.203125 L 20.765625 -16.40625 C 20.765625 -17.101562 21.113281 -17.453125 21.8125 -17.453125 L 28.328125 -17.453125 C 29.015625 -17.453125 29.359375 -17.101562 29.359375 -16.40625 L 29.359375 -9.375 C 29.359375 -6.332031 28.554688 -4.007812 26.953125 -2.40625 C 25.347656 -0.800781 23.023438 0 19.984375 0 L 12.703125 0 C 9.660156 0 7.320312 -0.800781 5.6875 -2.40625 C 4.0625 -4.007812 3.25 -6.332031 3.25 -9.375 L 3.25 -42.71875 C 3.25 -45.789062 4.0625 -48.117188 5.6875 -49.703125 C 7.320312 -51.296875 9.660156 -52.09375 12.703125 -52.09375 L 19.984375 -52.09375 C 23.023438 -52.09375 25.347656 -51.296875 26.953125 -49.703125 C 28.554688 -48.117188 29.359375 -45.789062 29.359375 -42.71875 Z M 29.359375 -42.71875 "/></g></g></g><g fill="#165c45" fill-opacity="1"><g transform="translate(401.009461, 64.51943)"><g><path d="M 34.640625 0 L 27.734375 0 C 27.171875 0 26.820312 -0.300781 26.6875 -0.90625 L 24.875 -10.421875 L 13.28125 -10.421875 L 11.53125 -0.90625 C 11.394531 -0.300781 11.046875 0 10.484375 0 L 3.515625 0 C 2.734375 0 2.453125 -0.367188 2.671875 -1.109375 L 13.484375 -51.171875 C 13.609375 -51.785156 13.972656 -52.09375 14.578125 -52.09375 L 23.640625 -52.09375 C 24.242188 -52.09375 24.609375 -51.785156 24.734375 -51.171875 L 35.546875 -1.109375 C 35.679688 -0.367188 35.378906 0 34.640625 0 Z M 23.25 -17.96875 L 19.078125 -40.6875 L 14.90625 -17.96875 Z M 23.25 -17.96875 "/></g></g></g><g fill="#165c45" fill-opacity="1"><g transform="translate(441.179484, 64.51943)"><g><path d="M 12.625 -52.09375 L 19.921875 -52.09375 C 23.003906 -52.09375 25.335938 -51.296875 26.921875 -49.703125 C 28.503906 -48.117188 29.296875 -45.789062 29.296875 -42.71875 L 29.296875 -35.8125 C 29.296875 -35.113281 28.945312 -34.765625 28.25 -34.765625 L 21.484375 -34.765625 C 20.785156 -34.765625 20.4375 -35.113281 20.4375 -35.8125 L 20.4375 -40.890625 C 20.4375 -42.628906 19.570312 -43.5 17.84375 -43.5 L 14.71875 -43.5 C 12.976562 -43.5 12.109375 -42.628906 12.109375 -40.890625 L 12.109375 -31.90625 L 27.609375 -26.828125 C 28.734375 -26.347656 29.296875 -25.546875 29.296875 -24.421875 L 29.296875 -9.375 C 29.296875 -6.332031 28.503906 -4.007812 26.921875 -2.40625 C 25.335938 -0.800781 23.003906 0 19.921875 0 L 12.625 0 C 9.59375 0 7.269531 -0.800781 5.65625 -2.40625 C 4.050781 -4.007812 3.25 -6.332031 3.25 -9.375 L 3.25 -16.21875 C 3.25 -16.90625 3.597656 -17.25 4.296875 -17.25 L 11.0625 -17.25 C 11.757812 -17.25 12.109375 -16.90625 12.109375 -16.21875 L 12.109375 -11.203125 C 12.109375 -9.460938 12.976562 -8.59375 14.71875 -8.59375 L 17.84375 -8.59375 C 19.570312 -8.59375 20.4375 -9.460938 20.4375 -11.203125 L 20.4375 -19.859375 L 5.015625 -24.9375 C 3.835938 -25.320312 3.25 -26.125 3.25 -27.34375 L 3.25 -42.71875 C 3.25 -45.789062 4.050781 -48.117188 5.65625 -49.703125 C 7.269531 -51.296875 9.59375 -52.09375 12.625 -52.09375 Z M 12.625 -52.09375 "/></g></g></g><g fill="#165c45" fill-opacity="1"><g transform="translate(475.75047, 64.51943)"><g><path d="M 29.234375 -51.046875 L 29.234375 -44.53125 C 29.234375 -43.789062 28.882812 -43.421875 28.1875 -43.421875 L 11.921875 -43.421875 L 11.921875 -30.40625 L 24.34375 -30.40625 C 25.039062 -30.40625 25.390625 -30.035156 25.390625 -29.296875 L 25.390625 -22.859375 C 25.390625 -22.117188 25.039062 -21.75 24.34375 -21.75 L 11.921875 -21.75 L 11.921875 -8.59375 L 28.1875 -8.59375 C 28.882812 -8.59375 29.234375 -8.242188 29.234375 -7.546875 L 29.234375 -1.046875 C 29.234375 -0.347656 28.882812 0 28.1875 0 L 4.234375 0 C 3.578125 0 3.25 -0.347656 3.25 -1.046875 L 3.25 -51.046875 C 3.25 -51.742188 3.578125 -52.09375 4.234375 -52.09375 L 28.1875 -52.09375 C 28.882812 -52.09375 29.234375 -51.742188 29.234375 -51.046875 Z M 29.234375 -51.046875 "/></g></g></g></g></g><g transform="matrix(1, 0, 0, 1, 474, 16)"><g clip-path="url(#59f0f95ca4)"><g fill="#ffffff" fill-opacity="1"><g transform="translate(3.305197, 77.878312)"><g><path d="M 35.550781 -25.519531 L 18.082031 -16.117188 L 15.667969 -20.601562 L 18.195312 -16.183594 C 18.617188 -16.425781 18.96875 -16.78125 19.242188 -17.253906 C 19.523438 -17.734375 19.664062 -18.222656 19.664062 -18.722656 L 19.664062 -11.90625 C 19.664062 -12.199219 19.609375 -12.503906 19.5 -12.832031 C 19.3125 -13.398438 19 -13.898438 18.5625 -14.332031 C 18.128906 -14.769531 17.628906 -15.082031 17.0625 -15.269531 C 16.734375 -15.378906 16.425781 -15.433594 16.136719 -15.433594 L 24.597656 -15.433594 L 24.597656 -10.339844 L 19.507812 -10.339844 L 19.507812 -13.550781 C 19.507812 -15.480469 20.132812 -17.074219 21.390625 -18.328125 C 22.644531 -19.582031 24.238281 -20.210938 26.164062 -20.210938 L 33.6875 -20.210938 C 35.613281 -20.210938 37.207031 -19.582031 38.460938 -18.328125 C 39.71875 -17.074219 40.34375 -15.480469 40.34375 -13.550781 L 40.34375 -1.566406 C 40.34375 0.363281 39.71875 1.953125 38.460938 3.210938 C 37.207031 4.464844 35.613281 5.09375 33.6875 5.09375 L 5.484375 5.09375 C 3.554688 5.09375 1.964844 4.464844 0.707031 3.210938 C -0.546875 1.953125 -1.175781 0.363281 -1.175781 -1.566406 L -1.175781 -24.675781 C -1.175781 -26.539062 -0.679688 -28.132812 0.3125 -29.457031 C 1.109375 -30.515625 2.230469 -31.40625 3.675781 -32.128906 L 5.953125 -27.574219 L 3.542969 -32.058594 L 22.1875 -42.085938 L 24.597656 -37.601562 L 19.507812 -37.601562 L 19.507812 -49.210938 C 19.519531 -49.136719 19.539062 -49.050781 19.570312 -48.957031 C 19.695312 -48.589844 19.910156 -48.253906 20.214844 -47.945312 C 20.519531 -47.640625 20.855469 -47.425781 21.226562 -47.304688 C 21.320312 -47.273438 21.40625 -47.25 21.480469 -47.242188 L 21.464844 -47.238281 L 17.703125 -47.238281 L 17.691406 -47.242188 C 17.765625 -47.25 17.847656 -47.273438 17.945312 -47.304688 C 18.3125 -47.425781 18.648438 -47.640625 18.957031 -47.945312 C 19.261719 -48.253906 19.476562 -48.589844 19.597656 -48.957031 C 19.628906 -49.050781 19.648438 -49.136719 19.660156 -49.210938 L 19.664062 -49.195312 L 19.664062 -43.085938 C 19.664062 -41.261719 19.0625 -39.75 17.859375 -38.546875 C 16.65625 -37.34375 15.140625 -36.742188 13.316406 -36.742188 L 5.171875 -36.742188 C 3.347656 -36.742188 1.832031 -37.34375 0.628906 -38.546875 C -0.574219 -39.75 -1.175781 -41.261719 -1.175781 -43.085938 L -1.175781 -51.390625 C -1.175781 -56.519531 0.296875 -60.535156 3.238281 -63.4375 C 6.164062 -66.320312 10.148438 -67.761719 15.199219 -67.761719 L 23.972656 -67.761719 C 29.019531 -67.761719 33.007812 -66.320312 35.929688 -63.4375 C 38.875 -60.535156 40.34375 -56.519531 40.34375 -51.390625 L 40.34375 -32.902344 C 40.34375 -30.90625 39.761719 -29.230469 38.589844 -27.882812 C 37.875 -27.054688 36.898438 -26.289062 35.664062 -25.582031 L 35.609375 -25.550781 Z M 30.722656 -34.488281 L 33.136719 -30.003906 L 30.609375 -34.425781 C 30.789062 -34.527344 30.921875 -34.613281 31.015625 -34.683594 L 31.023438 -34.6875 C 30.984375 -34.652344 30.941406 -34.605469 30.894531 -34.554688 C 30.589844 -34.203125 30.375 -33.820312 30.25 -33.40625 C 30.191406 -33.207031 30.160156 -33.039062 30.160156 -32.902344 L 30.160156 -51.390625 C 30.160156 -53.679688 29.699219 -55.277344 28.777344 -56.1875 C 27.835938 -57.113281 26.234375 -57.578125 23.972656 -57.578125 L 15.199219 -57.578125 C 12.933594 -57.578125 11.332031 -57.113281 10.390625 -56.1875 C 9.46875 -55.277344 9.007812 -53.679688 9.007812 -51.390625 L 9.007812 -43.085938 C 9.007812 -43.429688 8.949219 -43.78125 8.824219 -44.148438 C 8.625 -44.753906 8.292969 -45.285156 7.832031 -45.746094 C 7.367188 -46.210938 6.835938 -46.542969 6.230469 -46.742188 C 5.867188 -46.863281 5.511719 -46.925781 5.171875 -46.925781 L 13.316406 -46.925781 C 12.976562 -46.925781 12.621094 -46.863281 12.253906 -46.742188 C 11.652344 -46.542969 11.121094 -46.210938 10.65625 -45.746094 C 10.195312 -45.285156 9.863281 -44.753906 9.660156 -44.148438 C 9.539062 -43.78125 9.480469 -43.429688 9.480469 -43.085938 L 9.480469 -49.195312 C 9.480469 -51.648438 10.238281 -53.632812 11.753906 -55.148438 C 13.269531 -56.664062 15.253906 -57.421875 17.703125 -57.421875 L 21.464844 -57.421875 C 23.914062 -57.421875 25.898438 -56.664062 27.414062 -55.148438 C 28.933594 -53.632812 29.691406 -51.648438 29.691406 -49.195312 L 29.691406 -34.558594 L 8.300781 -23.054688 L 8.230469 -23.019531 C 8.140625 -22.976562 8.085938 -22.945312 8.070312 -22.933594 C 8.195312 -23.027344 8.328125 -23.164062 8.460938 -23.34375 C 8.691406 -23.65625 8.855469 -23.976562 8.945312 -24.316406 C 8.988281 -24.46875 9.007812 -24.585938 9.007812 -24.675781 L 9.007812 -1.566406 C 9.007812 -1.855469 8.953125 -2.164062 8.847656 -2.492188 C 8.65625 -3.054688 8.34375 -3.554688 7.910156 -3.992188 C 7.472656 -4.429688 6.972656 -4.742188 6.410156 -4.929688 C 6.082031 -5.039062 5.773438 -5.09375 5.484375 -5.09375 L 33.6875 -5.09375 C 33.394531 -5.09375 33.085938 -5.039062 32.761719 -4.929688 C 32.195312 -4.742188 31.695312 -4.429688 31.261719 -3.992188 C 30.824219 -3.554688 30.511719 -3.054688 30.324219 -2.492188 C 30.214844 -2.164062 30.160156 -1.855469 30.160156 -1.566406 L 30.160156 -13.550781 C 30.160156 -13.261719 30.214844 -12.953125 30.324219 -12.628906 C 30.511719 -12.0625 30.824219 -11.5625 31.261719 -11.128906 C 31.695312 -10.691406 32.195312 -10.378906 32.761719 -10.191406 C 33.085938 -10.082031 33.394531 -10.027344 33.6875 -10.027344 L 26.164062 -10.027344 C 26.453125 -10.027344 26.761719 -10.082031 27.089844 -10.191406 C 27.65625 -10.378906 28.15625 -10.691406 28.589844 -11.128906 C 29.027344 -11.5625 29.339844 -12.0625 29.527344 -12.628906 C 29.636719 -12.953125 29.691406 -13.261719 29.691406 -13.550781 L 29.691406 -5.25 L 16.136719 -5.25 C 14.210938 -5.25 12.617188 -5.875 11.363281 -7.132812 C 10.105469 -8.386719 9.480469 -9.980469 9.480469 -11.90625 L 9.480469 -18.722656 C 9.480469 -20.058594 9.800781 -21.28125 10.445312 -22.386719 C 11.085938 -23.484375 11.984375 -24.363281 13.140625 -25.023438 L 13.199219 -25.054688 Z M 30.722656 -34.488281 "/></g></g></g><g fill="#ffffff" fill-opacity="1"><g transform="translate(40.431867, 77.878312)"><g><path d="M 17.46875 -43.558594 L 24.285156 -43.558594 C 29.242188 -43.558594 33.160156 -42.121094 36.03125 -39.246094 C 38.90625 -36.371094 40.34375 -32.453125 40.34375 -27.496094 L 40.34375 -10.96875 C 40.34375 -6.011719 38.90625 -2.09375 36.03125 0.78125 C 33.160156 3.65625 29.242188 5.09375 24.285156 5.09375 L 14.882812 5.09375 C 9.925781 5.09375 6.011719 3.65625 3.136719 0.78125 C 0.261719 -2.09375 -1.175781 -6.011719 -1.175781 -10.96875 L -1.175781 -31.101562 C -1.175781 -32.195312 -1.070312 -33.222656 -0.863281 -34.179688 C -0.675781 -35.035156 -0.40625 -35.921875 -0.0507812 -36.84375 L -0.0234375 -36.917969 L 11.128906 -63.46875 C 11.664062 -64.800781 12.527344 -65.859375 13.726562 -66.644531 C 14.875 -67.390625 16.171875 -67.761719 17.625 -67.761719 L 25.773438 -67.761719 C 26.683594 -67.761719 27.519531 -67.628906 28.28125 -67.359375 C 29.574219 -66.902344 30.585938 -66.117188 31.3125 -65.003906 C 32.035156 -63.894531 32.347656 -62.65625 32.246094 -61.289062 C 32.191406 -60.488281 31.980469 -59.671875 31.617188 -58.839844 L 22.160156 -36.480469 L 17.46875 -38.464844 Z M 9.785156 -33.371094 L 22.277344 -62.898438 C 22.179688 -62.667969 22.117188 -62.378906 22.089844 -62.027344 C 22.023438 -61.109375 22.253906 -60.246094 22.78125 -59.4375 C 23.3125 -58.625 24.011719 -58.066406 24.882812 -57.757812 C 25.21875 -57.640625 25.515625 -57.578125 25.773438 -57.578125 L 17.625 -57.578125 C 18.191406 -57.578125 18.746094 -57.757812 19.292969 -58.113281 C 19.890625 -58.503906 20.300781 -58.972656 20.519531 -59.523438 L 9.394531 -33.046875 L 4.699219 -35.019531 L 9.453125 -33.191406 C 9.285156 -32.753906 9.164062 -32.363281 9.089844 -32.015625 C 9.035156 -31.773438 9.007812 -31.46875 9.007812 -31.101562 L 9.007812 -10.96875 C 9.007812 -8.824219 9.453125 -7.308594 10.335938 -6.421875 C 11.222656 -5.535156 12.738281 -5.09375 14.882812 -5.09375 L 24.285156 -5.09375 C 26.429688 -5.09375 27.945312 -5.535156 28.832031 -6.421875 C 29.71875 -7.308594 30.160156 -8.820312 30.160156 -10.96875 L 30.160156 -27.496094 C 30.160156 -29.640625 29.71875 -31.15625 28.832031 -32.042969 C 27.945312 -32.929688 26.429688 -33.371094 24.285156 -33.371094 Z M 17.390625 -15.433594 L 21.777344 -15.433594 L 21.792969 -15.429688 C 21.71875 -15.421875 21.632812 -15.398438 21.539062 -15.367188 C 21.171875 -15.246094 20.832031 -15.03125 20.527344 -14.726562 C 20.222656 -14.417969 20.007812 -14.082031 19.886719 -13.714844 C 19.855469 -13.617188 19.832031 -13.535156 19.820312 -13.460938 L 19.820312 -25.003906 C 19.832031 -24.929688 19.855469 -24.84375 19.886719 -24.75 C 20.007812 -24.382812 20.222656 -24.046875 20.527344 -23.738281 C 20.832031 -23.433594 21.171875 -23.21875 21.539062 -23.097656 C 21.632812 -23.066406 21.71875 -23.042969 21.792969 -23.035156 L 21.777344 -23.03125 L 17.390625 -23.03125 L 17.378906 -23.035156 C 17.453125 -23.042969 17.535156 -23.066406 17.628906 -23.097656 C 18 -23.21875 18.335938 -23.433594 18.640625 -23.738281 C 18.949219 -24.046875 19.160156 -24.382812 19.285156 -24.75 C 19.316406 -24.84375 19.335938 -24.929688 19.347656 -25.003906 L 19.351562 -24.988281 L 19.351562 -13.472656 L 19.347656 -13.460938 C 19.335938 -13.535156 19.316406 -13.617188 19.285156 -13.714844 C 19.160156 -14.082031 18.949219 -14.417969 18.640625 -14.726562 C 18.335938 -15.03125 18 -15.246094 17.628906 -15.367188 C 17.535156 -15.398438 17.453125 -15.421875 17.378906 -15.429688 Z M 17.390625 -5.25 C 14.941406 -5.25 12.957031 -6.007812 11.441406 -7.523438 C 9.925781 -9.039062 9.164062 -11.023438 9.164062 -13.472656 L 9.164062 -24.988281 C 9.164062 -27.441406 9.925781 -29.425781 11.441406 -30.941406 C 12.957031 -32.457031 14.941406 -33.214844 17.390625 -33.214844 L 21.777344 -33.214844 C 24.230469 -33.214844 26.210938 -32.457031 27.730469 -30.941406 C 29.246094 -29.425781 30.003906 -27.441406 30.003906 -24.988281 L 30.003906 -13.472656 C 30.003906 -11.023438 29.246094 -9.039062 27.730469 -7.523438 C 26.210938 -6.007812 24.230469 -5.25 21.777344 -5.25 Z M 17.390625 -5.25 "/></g></g></g><g fill="#165c45" fill-opacity="1"><g transform="translate(3.305197, 77.878312)"><g><path d="M 33.140625 -30 L 15.671875 -20.609375 C 14.941406 -20.191406 14.578125 -19.5625 14.578125 -18.71875 L 14.578125 -11.90625 C 14.578125 -10.863281 15.097656 -10.34375 16.140625 -10.34375 L 24.59375 -10.34375 L 24.59375 -13.546875 C 24.59375 -14.597656 25.117188 -15.125 26.171875 -15.125 L 33.6875 -15.125 C 34.726562 -15.125 35.25 -14.597656 35.25 -13.546875 L 35.25 -1.5625 C 35.25 -0.519531 34.726562 0 33.6875 0 L 5.484375 0 C 4.441406 0 3.921875 -0.519531 3.921875 -1.5625 L 3.921875 -24.671875 C 3.921875 -25.410156 4.078125 -25.988281 4.390625 -26.40625 C 4.703125 -26.820312 5.222656 -27.210938 5.953125 -27.578125 L 24.59375 -37.609375 L 24.59375 -49.203125 C 24.59375 -51.285156 23.550781 -52.328125 21.46875 -52.328125 L 17.703125 -52.328125 C 15.617188 -52.328125 14.578125 -51.285156 14.578125 -49.203125 L 14.578125 -43.09375 C 14.578125 -42.25 14.15625 -41.828125 13.3125 -41.828125 L 5.171875 -41.828125 C 4.335938 -41.828125 3.921875 -42.25 3.921875 -43.09375 L 3.921875 -51.390625 C 3.921875 -55.097656 4.882812 -57.90625 6.8125 -59.8125 C 8.75 -61.71875 11.546875 -62.671875 15.203125 -62.671875 L 23.96875 -62.671875 C 27.625 -62.671875 30.414062 -61.71875 32.34375 -59.8125 C 34.28125 -57.90625 35.25 -55.097656 35.25 -51.390625 L 35.25 -32.90625 C 35.25 -32.175781 35.078125 -31.613281 34.734375 -31.21875 C 34.398438 -30.820312 33.867188 -30.414062 33.140625 -30 Z M 33.140625 -30 "/></g></g></g><g fill="#165c45" fill-opacity="1"><g transform="translate(40.431867, 77.878312)"><g><path d="M 17.46875 -38.46875 L 24.28125 -38.46875 C 27.832031 -38.46875 30.546875 -37.523438 32.421875 -35.640625 C 34.304688 -33.765625 35.25 -31.050781 35.25 -27.5 L 35.25 -10.96875 C 35.25 -7.414062 34.304688 -4.695312 32.421875 -2.8125 C 30.546875 -0.9375 27.832031 0 24.28125 0 L 14.890625 0 C 11.335938 0 8.617188 -0.9375 6.734375 -2.8125 C 4.859375 -4.695312 3.921875 -7.414062 3.921875 -10.96875 L 3.921875 -31.109375 C 3.921875 -31.835938 3.984375 -32.5 4.109375 -33.09375 C 4.242188 -33.695312 4.441406 -34.335938 4.703125 -35.015625 L 15.828125 -61.5 C 16.140625 -62.28125 16.738281 -62.671875 17.625 -62.671875 L 25.78125 -62.671875 C 27.082031 -62.671875 27.472656 -62.070312 26.953125 -60.875 Z M 17.390625 -10.34375 L 21.78125 -10.34375 C 23.863281 -10.34375 24.90625 -11.382812 24.90625 -13.46875 L 24.90625 -24.984375 C 24.90625 -27.078125 23.863281 -28.125 21.78125 -28.125 L 17.390625 -28.125 C 15.304688 -28.125 14.265625 -27.078125 14.265625 -24.984375 L 14.265625 -13.46875 C 14.265625 -11.382812 15.304688 -10.34375 17.390625 -10.34375 Z M 17.390625 -10.34375 "/></g></g></g></g></g></svg>