<svg xmlns="http://www.w3.org/2000/svg" xmlns:xlink="http://www.w3.org/1999/xlink" width="771" zoomAndPan="magnify" viewBox="0 0 578.25 378.749984" height="505" preserveAspectRatio="xMidYMid meet" version="1.0"><defs><g/><clipPath id="7978a4e12d"><path d="M 14 61.863281 L 527 61.863281 L 527 283.574219 L 14 283.574219 Z M 14 61.863281 " clip-rule="nonzero"/></clipPath><clipPath id="cddcbdd3ae"><rect x="0" width="512" y="0" height="79"/></clipPath><clipPath id="42951a450b"><rect x="0" width="98" y="0" height="95"/></clipPath></defs><g clip-path="url(#7978a4e12d)"><path fill="#165c45" d="M 458.894531 285.148438 L 461.535156 197.792969 L 449.21875 247.085938 L 395.996094 247.085938 L 390.71875 226.398438 L 390.71875 285.148438 L 349.214844 284.777344 L 317.078125 238.738281 L 309.613281 249.726562 L 276.617188 194.292969 L 237.464844 235.199219 L 208.4375 201.332031 L 178.101562 253.246094 L 143.71875 279.910156 L 136.964844 285.148438 L 19.632812 285.148438 L 19.816406 220.976562 L 53.9375 220.976562 L 57.90625 173.484375 L 55.265625 131.800781 L 16.113281 131.800781 L 14.804688 61.863281 L 144.125 61.863281 L 142.40625 130.429688 L 110.230469 129.164062 L 106.734375 173.484375 L 110.230469 220.976562 L 144.207031 220.976562 L 144.023438 242.421875 L 155.417969 173.484375 L 158.527344 61.863281 L 209.972656 61.863281 L 235.5 173.484375 L 269.355469 61.863281 L 318.613281 61.863281 L 323.910156 192.535156 L 328.878906 244.261719 L 338.105469 180.644531 L 344.550781 61.863281 L 395.996094 61.863281 L 421.503906 173.484375 L 455.378906 61.863281 L 504.613281 61.863281 L 509.910156 192.535156 L 526.195312 285.148438 Z M 458.894531 285.148438 " fill-opacity="1" fill-rule="nonzero"/></g><g transform="matrix(1, 0, 0, 1, 13, 286)"><g clip-path="url(#cddcbdd3ae)"><g fill="#155641" fill-opacity="1"><g transform="translate(0.958109, 64.416927)"><g><path d="M 12.625 -52.046875 L 19.90625 -52.046875 C 22.988281 -52.046875 25.320312 -51.253906 26.90625 -49.671875 C 28.488281 -48.085938 29.28125 -45.757812 29.28125 -42.6875 L 29.28125 -35.78125 C 29.28125 -35.09375 28.929688 -34.75 28.234375 -34.75 L 21.46875 -34.75 C 20.769531 -34.75 20.421875 -35.09375 20.421875 -35.78125 L 20.421875 -40.859375 C 20.421875 -42.597656 19.554688 -43.46875 17.828125 -43.46875 L 14.703125 -43.46875 C 12.972656 -43.46875 12.109375 -42.597656 12.109375 -40.859375 L 12.109375 -31.875 L 27.59375 -26.8125 C 28.71875 -26.332031 29.28125 -25.53125 29.28125 -24.40625 L 29.28125 -9.375 C 29.28125 -6.332031 28.488281 -4.007812 26.90625 -2.40625 C 25.320312 -0.800781 22.988281 0 19.90625 0 L 12.625 0 C 9.582031 0 7.257812 -0.800781 5.65625 -2.40625 C 4.050781 -4.007812 3.25 -6.332031 3.25 -9.375 L 3.25 -16.203125 C 3.25 -16.890625 3.597656 -17.234375 4.296875 -17.234375 L 11.0625 -17.234375 C 11.757812 -17.234375 12.109375 -16.890625 12.109375 -16.203125 L 12.109375 -11.1875 C 12.109375 -9.457031 12.972656 -8.59375 14.703125 -8.59375 L 17.828125 -8.59375 C 19.554688 -8.59375 20.421875 -9.457031 20.421875 -11.1875 L 20.421875 -19.84375 L 5.015625 -24.921875 C 3.835938 -25.304688 3.25 -26.109375 3.25 -27.328125 L 3.25 -42.6875 C 3.25 -45.757812 4.050781 -48.085938 5.65625 -49.671875 C 7.257812 -51.253906 9.582031 -52.046875 12.625 -52.046875 Z M 12.625 -52.046875 "/></g></g></g><g fill="#155641" fill-opacity="1"><g transform="translate(35.507117, 64.416927)"><g><path d="M 29.21875 -51.015625 L 29.21875 -44.5 C 29.21875 -43.757812 28.867188 -43.390625 28.171875 -43.390625 L 11.90625 -43.390625 L 11.90625 -30.390625 L 24.328125 -30.390625 C 25.023438 -30.390625 25.375 -30.019531 25.375 -29.28125 L 25.375 -22.84375 C 25.375 -22.101562 25.023438 -21.734375 24.328125 -21.734375 L 11.90625 -21.734375 L 11.90625 -8.59375 L 28.171875 -8.59375 C 28.867188 -8.59375 29.21875 -8.242188 29.21875 -7.546875 L 29.21875 -1.046875 C 29.21875 -0.347656 28.867188 0 28.171875 0 L 4.234375 0 C 3.578125 0 3.25 -0.347656 3.25 -1.046875 L 3.25 -51.015625 C 3.25 -51.703125 3.578125 -52.046875 4.234375 -52.046875 L 28.171875 -52.046875 C 28.867188 -52.046875 29.21875 -51.703125 29.21875 -51.015625 Z M 29.21875 -51.015625 "/></g></g></g><g fill="#155641" fill-opacity="1"><g transform="translate(69.991066, 64.416927)"><g><path d="M 23.234375 -52.046875 L 30 -52.046875 C 30.6875 -52.046875 31.03125 -51.703125 31.03125 -51.015625 L 31.03125 -1.046875 C 31.03125 -0.347656 30.6875 0 30 0 L 23.546875 0 C 22.941406 0 22.550781 -0.28125 22.375 -0.84375 L 12.421875 -28.625 L 12.109375 -28.625 L 12.109375 -1.046875 C 12.109375 -0.347656 11.757812 0 11.0625 0 L 4.296875 0 C 3.597656 0 3.25 -0.347656 3.25 -1.046875 L 3.25 -51.015625 C 3.25 -51.703125 3.597656 -52.046875 4.296875 -52.046875 L 10.734375 -52.046875 C 11.335938 -52.046875 11.726562 -51.765625 11.90625 -51.203125 L 21.796875 -23.546875 L 22.1875 -23.546875 L 22.1875 -51.015625 C 22.1875 -51.703125 22.535156 -52.046875 23.234375 -52.046875 Z M 23.234375 -52.046875 "/></g></g></g><g fill="#155641" fill-opacity="1"><g transform="translate(106.296796, 64.416927)"><g><path d="M 4.296875 -52.046875 L 11.0625 -52.046875 C 11.757812 -52.046875 12.109375 -51.703125 12.109375 -51.015625 L 12.109375 -1.046875 C 12.109375 -0.347656 11.757812 0 11.0625 0 L 4.296875 0 C 3.597656 0 3.25 -0.347656 3.25 -1.046875 L 3.25 -51.015625 C 3.25 -51.703125 3.597656 -52.046875 4.296875 -52.046875 Z M 4.296875 -52.046875 "/></g></g></g><g fill="#155641" fill-opacity="1"><g transform="translate(123.669043, 64.416927)"><g><path d="M 3.25 -9.375 L 3.25 -42.6875 C 3.25 -45.757812 4.050781 -48.085938 5.65625 -49.671875 C 7.257812 -51.253906 9.582031 -52.046875 12.625 -52.046875 L 19.90625 -52.046875 C 22.988281 -52.046875 25.320312 -51.253906 26.90625 -49.671875 C 28.488281 -48.085938 29.28125 -45.757812 29.28125 -42.6875 L 29.28125 -9.375 C 29.28125 -6.332031 28.488281 -4.007812 26.90625 -2.40625 C 25.320312 -0.800781 22.988281 0 19.90625 0 L 12.625 0 C 9.582031 0 7.257812 -0.800781 5.65625 -2.40625 C 4.050781 -4.007812 3.25 -6.332031 3.25 -9.375 Z M 14.515625 -8.390625 L 18.28125 -8.390625 C 20.019531 -8.390625 20.890625 -9.257812 20.890625 -11 L 20.890625 -41.046875 C 20.890625 -42.785156 20.019531 -43.65625 18.28125 -43.65625 L 14.515625 -43.65625 C 12.773438 -43.65625 11.90625 -42.785156 11.90625 -41.046875 L 11.90625 -11 C 11.90625 -9.257812 12.773438 -8.390625 14.515625 -8.390625 Z M 14.515625 -8.390625 "/></g></g></g><g fill="#155641" fill-opacity="1"><g transform="translate(158.218051, 64.416927)"><g><path d="M 30 -42.6875 L 30 -26.8125 C 30 -22.46875 28.414062 -19.601562 25.25 -18.21875 L 29.734375 -1.171875 C 29.953125 -0.390625 29.648438 0 28.828125 0 L 22.0625 0 C 21.445312 0 21.078125 -0.300781 20.953125 -0.90625 L 16.59375 -17.4375 L 12.109375 -17.4375 L 12.109375 -1.046875 C 12.109375 -0.347656 11.757812 0 11.0625 0 L 4.296875 0 C 3.597656 0 3.25 -0.347656 3.25 -1.046875 L 3.25 -51.015625 C 3.25 -51.703125 3.597656 -52.046875 4.296875 -52.046875 L 20.625 -52.046875 C 23.707031 -52.046875 26.039062 -51.253906 27.625 -49.671875 C 29.207031 -48.085938 30 -45.757812 30 -42.6875 Z M 12.109375 -26.03125 L 18.546875 -26.03125 C 20.273438 -26.03125 21.140625 -26.894531 21.140625 -28.625 L 21.140625 -40.859375 C 21.140625 -42.597656 20.273438 -43.46875 18.546875 -43.46875 L 12.109375 -43.46875 Z M 12.109375 -26.03125 "/></g></g></g><g fill="#155641" fill-opacity="1"><g transform="translate(193.482765, 64.416927)"><g/></g></g><g fill="#155641" fill-opacity="1"><g transform="translate(211.765896, 64.416927)"><g><path d="M 12.625 -52.046875 L 19.90625 -52.046875 C 22.988281 -52.046875 25.320312 -51.253906 26.90625 -49.671875 C 28.488281 -48.085938 29.28125 -45.757812 29.28125 -42.6875 L 29.28125 -35.78125 C 29.28125 -35.09375 28.929688 -34.75 28.234375 -34.75 L 21.46875 -34.75 C 20.769531 -34.75 20.421875 -35.09375 20.421875 -35.78125 L 20.421875 -40.859375 C 20.421875 -42.597656 19.554688 -43.46875 17.828125 -43.46875 L 14.703125 -43.46875 C 12.972656 -43.46875 12.109375 -42.597656 12.109375 -40.859375 L 12.109375 -31.875 L 27.59375 -26.8125 C 28.71875 -26.332031 29.28125 -25.53125 29.28125 -24.40625 L 29.28125 -9.375 C 29.28125 -6.332031 28.488281 -4.007812 26.90625 -2.40625 C 25.320312 -0.800781 22.988281 0 19.90625 0 L 12.625 0 C 9.582031 0 7.257812 -0.800781 5.65625 -2.40625 C 4.050781 -4.007812 3.25 -6.332031 3.25 -9.375 L 3.25 -16.203125 C 3.25 -16.890625 3.597656 -17.234375 4.296875 -17.234375 L 11.0625 -17.234375 C 11.757812 -17.234375 12.109375 -16.890625 12.109375 -16.203125 L 12.109375 -11.1875 C 12.109375 -9.457031 12.972656 -8.59375 14.703125 -8.59375 L 17.828125 -8.59375 C 19.554688 -8.59375 20.421875 -9.457031 20.421875 -11.1875 L 20.421875 -19.84375 L 5.015625 -24.921875 C 3.835938 -25.304688 3.25 -26.109375 3.25 -27.328125 L 3.25 -42.6875 C 3.25 -45.757812 4.050781 -48.085938 5.65625 -49.671875 C 7.257812 -51.253906 9.582031 -52.046875 12.625 -52.046875 Z M 12.625 -52.046875 "/></g></g></g><g fill="#155641" fill-opacity="1"><g transform="translate(246.314892, 64.416927)"><g><path d="M 20.421875 -30.3125 L 20.421875 -51.015625 C 20.421875 -51.703125 20.769531 -52.046875 21.46875 -52.046875 L 28.171875 -52.046875 C 28.910156 -52.046875 29.28125 -51.703125 29.28125 -51.015625 L 29.28125 -1.046875 C 29.28125 -0.347656 28.910156 0 28.171875 0 L 21.46875 0 C 20.769531 0 20.421875 -0.347656 20.421875 -1.046875 L 20.421875 -21.734375 L 12.109375 -21.734375 L 12.109375 -1.046875 C 12.109375 -0.347656 11.757812 0 11.0625 0 L 4.359375 0 C 3.617188 0 3.25 -0.347656 3.25 -1.046875 L 3.25 -51.015625 C 3.25 -51.703125 3.617188 -52.046875 4.359375 -52.046875 L 11.0625 -52.046875 C 11.757812 -52.046875 12.109375 -51.703125 12.109375 -51.015625 L 12.109375 -30.3125 Z M 20.421875 -30.3125 "/></g></g></g><g fill="#155641" fill-opacity="1"><g transform="translate(280.863913, 64.416927)"><g><path d="M 3.25 -9.375 L 3.25 -42.6875 C 3.25 -45.757812 4.050781 -48.085938 5.65625 -49.671875 C 7.257812 -51.253906 9.582031 -52.046875 12.625 -52.046875 L 19.90625 -52.046875 C 22.988281 -52.046875 25.320312 -51.253906 26.90625 -49.671875 C 28.488281 -48.085938 29.28125 -45.757812 29.28125 -42.6875 L 29.28125 -9.375 C 29.28125 -6.332031 28.488281 -4.007812 26.90625 -2.40625 C 25.320312 -0.800781 22.988281 0 19.90625 0 L 12.625 0 C 9.582031 0 7.257812 -0.800781 5.65625 -2.40625 C 4.050781 -4.007812 3.25 -6.332031 3.25 -9.375 Z M 14.515625 -8.390625 L 18.28125 -8.390625 C 20.019531 -8.390625 20.890625 -9.257812 20.890625 -11 L 20.890625 -41.046875 C 20.890625 -42.785156 20.019531 -43.65625 18.28125 -43.65625 L 14.515625 -43.65625 C 12.773438 -43.65625 11.90625 -42.785156 11.90625 -41.046875 L 11.90625 -11 C 11.90625 -9.257812 12.773438 -8.390625 14.515625 -8.390625 Z M 14.515625 -8.390625 "/></g></g></g><g fill="#155641" fill-opacity="1"><g transform="translate(315.412933, 64.416927)"><g><path d="M 38.84375 -52.046875 L 45.015625 -52.046875 C 45.929688 -52.046875 46.347656 -51.59375 46.265625 -50.6875 L 40.671875 -1.234375 C 40.617188 -0.410156 40.160156 0 39.296875 0 L 32.921875 0 C 32.179688 0 31.703125 -0.390625 31.484375 -1.171875 L 24.71875 -30.578125 L 17.890625 -1.109375 C 17.671875 -0.367188 17.191406 0 16.453125 0 L 9.953125 0 C 9.085938 0 8.632812 -0.410156 8.59375 -1.234375 L 3.25 -50.6875 C 3.164062 -51.59375 3.578125 -52.046875 4.484375 -52.046875 L 10.671875 -52.046875 C 11.492188 -52.046875 11.945312 -51.632812 12.03125 -50.8125 L 14.578125 -20.359375 L 14.90625 -20.359375 L 21.34375 -50.875 C 21.5625 -51.65625 22.035156 -52.046875 22.765625 -52.046875 L 26.671875 -52.046875 C 27.453125 -52.046875 27.929688 -51.65625 28.109375 -50.875 L 34.484375 -20.359375 L 34.8125 -20.359375 L 37.46875 -50.8125 C 37.5625 -51.632812 38.019531 -52.046875 38.84375 -52.046875 Z M 38.84375 -52.046875 "/></g></g></g><g fill="#155641" fill-opacity="1"><g transform="translate(366.943512, 64.416927)"><g><path d="M 29.34375 -42.6875 L 29.34375 -35.65625 C 29.34375 -34.957031 28.992188 -34.609375 28.296875 -34.609375 L 21.796875 -34.609375 C 21.097656 -34.609375 20.75 -34.957031 20.75 -35.65625 L 20.75 -40.859375 C 20.75 -42.597656 19.882812 -43.46875 18.15625 -43.46875 L 14.765625 -43.46875 C 13.035156 -43.46875 12.171875 -42.597656 12.171875 -40.859375 L 12.171875 -11.1875 C 12.171875 -9.457031 13.035156 -8.59375 14.765625 -8.59375 L 18.15625 -8.59375 C 19.882812 -8.59375 20.75 -9.457031 20.75 -11.1875 L 20.75 -16.390625 C 20.75 -17.085938 21.097656 -17.4375 21.796875 -17.4375 L 28.296875 -17.4375 C 28.992188 -17.4375 29.34375 -17.085938 29.34375 -16.390625 L 29.34375 -9.375 C 29.34375 -6.332031 28.539062 -4.007812 26.9375 -2.40625 C 25.332031 -0.800781 23.007812 0 19.96875 0 L 12.6875 0 C 9.65625 0 7.320312 -0.800781 5.6875 -2.40625 C 4.0625 -4.007812 3.25 -6.332031 3.25 -9.375 L 3.25 -42.6875 C 3.25 -45.757812 4.0625 -48.085938 5.6875 -49.671875 C 7.320312 -51.253906 9.65625 -52.046875 12.6875 -52.046875 L 19.96875 -52.046875 C 23.007812 -52.046875 25.332031 -51.253906 26.9375 -49.671875 C 28.539062 -48.085938 29.34375 -45.757812 29.34375 -42.6875 Z M 29.34375 -42.6875 "/></g></g></g><g fill="#155641" fill-opacity="1"><g transform="translate(401.557592, 64.416927)"><g><path d="M 34.609375 0 L 27.71875 0 C 27.15625 0 26.804688 -0.300781 26.671875 -0.90625 L 24.859375 -10.40625 L 13.265625 -10.40625 L 11.515625 -0.90625 C 11.390625 -0.300781 11.039062 0 10.46875 0 L 3.515625 0 C 2.734375 0 2.453125 -0.367188 2.671875 -1.109375 L 13.46875 -51.140625 C 13.59375 -51.742188 13.960938 -52.046875 14.578125 -52.046875 L 23.625 -52.046875 C 24.226562 -52.046875 24.59375 -51.742188 24.71875 -51.140625 L 35.53125 -1.109375 C 35.65625 -0.367188 35.347656 0 34.609375 0 Z M 23.234375 -17.953125 L 19.0625 -40.671875 L 14.90625 -17.953125 Z M 23.234375 -17.953125 "/></g></g></g><g fill="#155641" fill-opacity="1"><g transform="translate(441.702064, 64.416927)"><g><path d="M 12.625 -52.046875 L 19.90625 -52.046875 C 22.988281 -52.046875 25.320312 -51.253906 26.90625 -49.671875 C 28.488281 -48.085938 29.28125 -45.757812 29.28125 -42.6875 L 29.28125 -35.78125 C 29.28125 -35.09375 28.929688 -34.75 28.234375 -34.75 L 21.46875 -34.75 C 20.769531 -34.75 20.421875 -35.09375 20.421875 -35.78125 L 20.421875 -40.859375 C 20.421875 -42.597656 19.554688 -43.46875 17.828125 -43.46875 L 14.703125 -43.46875 C 12.972656 -43.46875 12.109375 -42.597656 12.109375 -40.859375 L 12.109375 -31.875 L 27.59375 -26.8125 C 28.71875 -26.332031 29.28125 -25.53125 29.28125 -24.40625 L 29.28125 -9.375 C 29.28125 -6.332031 28.488281 -4.007812 26.90625 -2.40625 C 25.320312 -0.800781 22.988281 0 19.90625 0 L 12.625 0 C 9.582031 0 7.257812 -0.800781 5.65625 -2.40625 C 4.050781 -4.007812 3.25 -6.332031 3.25 -9.375 L 3.25 -16.203125 C 3.25 -16.890625 3.597656 -17.234375 4.296875 -17.234375 L 11.0625 -17.234375 C 11.757812 -17.234375 12.109375 -16.890625 12.109375 -16.203125 L 12.109375 -11.1875 C 12.109375 -9.457031 12.972656 -8.59375 14.703125 -8.59375 L 17.828125 -8.59375 C 19.554688 -8.59375 20.421875 -9.457031 20.421875 -11.1875 L 20.421875 -19.84375 L 5.015625 -24.921875 C 3.835938 -25.304688 3.25 -26.109375 3.25 -27.328125 L 3.25 -42.6875 C 3.25 -45.757812 4.050781 -48.085938 5.65625 -49.671875 C 7.257812 -51.253906 9.582031 -52.046875 12.625 -52.046875 Z M 12.625 -52.046875 "/></g></g></g><g fill="#155641" fill-opacity="1"><g transform="translate(476.25106, 64.416927)"><g><path d="M 29.21875 -51.015625 L 29.21875 -44.5 C 29.21875 -43.757812 28.867188 -43.390625 28.171875 -43.390625 L 11.90625 -43.390625 L 11.90625 -30.390625 L 24.328125 -30.390625 C 25.023438 -30.390625 25.375 -30.019531 25.375 -29.28125 L 25.375 -22.84375 C 25.375 -22.101562 25.023438 -21.734375 24.328125 -21.734375 L 11.90625 -21.734375 L 11.90625 -8.59375 L 28.171875 -8.59375 C 28.867188 -8.59375 29.21875 -8.242188 29.21875 -7.546875 L 29.21875 -1.046875 C 29.21875 -0.347656 28.867188 0 28.171875 0 L 4.234375 0 C 3.578125 0 3.25 -0.347656 3.25 -1.046875 L 3.25 -51.015625 C 3.25 -51.703125 3.578125 -52.046875 4.234375 -52.046875 L 28.171875 -52.046875 C 28.867188 -52.046875 29.21875 -51.703125 29.21875 -51.015625 Z M 29.21875 -51.015625 "/></g></g></g></g></g><g transform="matrix(1, 0, 0, 1, 466, 16)"><g clip-path="url(#42951a450b)"><g fill="#ffffff" fill-opacity="1"><g transform="translate(2.787483, 77.939056)"><g><path d="M 19.257812 -53.238281 L 19.257812 -46.035156 C 19.257812 -44.105469 18.632812 -42.515625 17.378906 -41.261719 C 16.121094 -40.007812 14.53125 -39.378906 12.605469 -39.378906 L 5.480469 -39.378906 C 3.554688 -39.378906 1.960938 -40.007812 0.707031 -41.261719 C -0.546875 -42.515625 -1.175781 -44.105469 -1.175781 -46.035156 L -1.175781 -53.707031 C -1.175781 -55.425781 -0.726562 -56.988281 0.167969 -58.394531 L 4.441406 -64.882812 L 8.691406 -62.082031 L 4.273438 -64.609375 C 4.828125 -65.582031 5.574219 -66.339844 6.515625 -66.890625 C 7.464844 -67.445312 8.503906 -67.71875 9.628906 -67.71875 L 13.152344 -67.71875 C 13.902344 -67.71875 14.609375 -67.605469 15.265625 -67.371094 C 16.445312 -66.957031 17.371094 -66.238281 18.050781 -65.21875 C 18.730469 -64.199219 19.035156 -63.066406 18.96875 -61.820312 C 18.929688 -61.125 18.765625 -60.429688 18.476562 -59.734375 L 18.445312 -59.660156 L 15.28125 -52.695312 L 10.648438 -54.800781 L 10.648438 -59.890625 L 12.605469 -59.890625 C 14.53125 -59.890625 16.121094 -59.265625 17.378906 -58.007812 C 18.632812 -56.753906 19.257812 -55.164062 19.257812 -53.238281 Z M 9.082031 -53.238281 C 9.082031 -52.945312 9.136719 -52.640625 9.246094 -52.3125 C 9.433594 -51.75 9.746094 -51.25 10.179688 -50.8125 C 10.617188 -50.375 11.117188 -50.066406 11.679688 -49.875 C 12.007812 -49.769531 12.316406 -49.714844 12.605469 -49.714844 L 2.746094 -49.714844 L 9.144531 -63.796875 L 13.777344 -61.691406 L 9.082031 -63.648438 C 8.921875 -63.269531 8.832031 -62.847656 8.804688 -62.386719 C 8.75 -61.375 9.007812 -60.4375 9.582031 -59.574219 C 10.160156 -58.710938 10.925781 -58.109375 11.878906 -57.773438 C 12.316406 -57.621094 12.742188 -57.542969 13.152344 -57.542969 L 9.628906 -57.542969 C 10.339844 -57.542969 11.011719 -57.726562 11.644531 -58.097656 C 12.273438 -58.464844 12.761719 -58.953125 13.109375 -59.558594 L 13.027344 -59.417969 L 8.753906 -52.929688 C 8.921875 -53.191406 9.003906 -53.449219 9.003906 -53.707031 L 9.003906 -46.035156 C 9.003906 -46.324219 8.949219 -46.632812 8.839844 -46.957031 C 8.652344 -47.523438 8.339844 -48.023438 7.90625 -48.457031 C 7.46875 -48.894531 6.96875 -49.207031 6.40625 -49.394531 C 6.078125 -49.503906 5.769531 -49.558594 5.480469 -49.558594 L 12.605469 -49.558594 C 12.316406 -49.558594 12.007812 -49.503906 11.679688 -49.394531 C 11.117188 -49.207031 10.617188 -48.894531 10.179688 -48.457031 C 9.746094 -48.023438 9.433594 -47.523438 9.246094 -46.957031 C 9.136719 -46.632812 9.082031 -46.324219 9.082031 -46.035156 Z M 9.082031 -53.238281 "/></g></g></g><g fill="#ffffff" fill-opacity="1"><g transform="translate(18.833967, 77.939056)"><g><path d="M 35.527344 -25.503906 L 18.070312 -16.109375 L 15.65625 -20.589844 L 18.183594 -16.171875 C 18.605469 -16.414062 18.957031 -16.769531 19.230469 -17.242188 C 19.511719 -17.722656 19.652344 -18.210938 19.652344 -18.710938 L 19.652344 -11.898438 C 19.652344 -12.191406 19.597656 -12.496094 19.488281 -12.824219 C 19.300781 -13.386719 18.988281 -13.886719 18.550781 -14.324219 C 18.117188 -14.761719 17.617188 -15.070312 17.050781 -15.261719 C 16.726562 -15.367188 16.417969 -15.421875 16.128906 -15.421875 L 24.582031 -15.421875 L 24.582031 -10.335938 L 19.492188 -10.335938 L 19.492188 -13.542969 C 19.492188 -15.472656 20.121094 -17.0625 21.375 -18.316406 C 22.628906 -19.570312 24.222656 -20.199219 26.148438 -20.199219 L 33.664062 -20.199219 C 35.589844 -20.199219 37.183594 -19.570312 38.4375 -18.316406 C 39.691406 -17.0625 40.320312 -15.472656 40.320312 -13.542969 L 40.320312 -1.566406 C 40.320312 0.363281 39.691406 1.953125 38.4375 3.207031 C 37.183594 4.460938 35.589844 5.089844 33.664062 5.089844 L 5.480469 5.089844 C 3.554688 5.089844 1.960938 4.460938 0.707031 3.207031 C -0.546875 1.953125 -1.175781 0.363281 -1.175781 -1.566406 L -1.175781 -24.660156 C -1.175781 -26.523438 -0.679688 -28.113281 0.3125 -29.4375 C 1.105469 -30.496094 2.226562 -31.386719 3.675781 -32.109375 L 5.949219 -27.558594 L 3.539062 -32.039062 L 22.171875 -42.0625 L 24.582031 -37.578125 L 19.492188 -37.578125 L 19.492188 -49.164062 L 19.496094 -49.179688 C 19.507812 -49.105469 19.527344 -49.019531 19.558594 -48.925781 C 19.683594 -48.558594 19.894531 -48.222656 20.203125 -47.914062 C 20.507812 -47.609375 20.84375 -47.398438 21.210938 -47.273438 C 21.304688 -47.242188 21.390625 -47.222656 21.464844 -47.210938 L 21.453125 -47.207031 L 17.695312 -47.207031 L 17.679688 -47.210938 C 17.753906 -47.222656 17.839844 -47.242188 17.933594 -47.273438 C 18.300781 -47.398438 18.636719 -47.609375 18.941406 -47.914062 C 19.25 -48.222656 19.460938 -48.558594 19.585938 -48.925781 C 19.617188 -49.019531 19.636719 -49.105469 19.648438 -49.179688 L 19.652344 -49.164062 L 19.652344 -43.058594 C 19.652344 -41.238281 19.050781 -39.722656 17.847656 -38.519531 C 16.644531 -37.320312 15.132812 -36.71875 13.308594 -36.71875 L 5.167969 -36.71875 C 3.34375 -36.71875 1.832031 -37.320312 0.628906 -38.519531 C -0.574219 -39.722656 -1.175781 -41.238281 -1.175781 -43.058594 L -1.175781 -51.359375 C -1.175781 -56.480469 0.296875 -60.496094 3.238281 -63.398438 C 6.160156 -66.277344 10.144531 -67.71875 15.1875 -67.71875 L 23.957031 -67.71875 C 29 -67.71875 32.984375 -66.277344 35.90625 -63.398438 C 38.847656 -60.496094 40.320312 -56.480469 40.320312 -51.359375 L 40.320312 -32.882812 C 40.320312 -30.886719 39.734375 -29.214844 38.566406 -27.867188 C 37.847656 -27.039062 36.875 -26.269531 35.640625 -25.566406 L 35.585938 -25.535156 Z M 30.703125 -34.464844 L 33.117188 -29.984375 L 30.589844 -34.402344 C 30.769531 -34.503906 30.902344 -34.589844 30.996094 -34.660156 L 31.003906 -34.664062 C 30.964844 -34.628906 30.921875 -34.585938 30.875 -34.53125 C 30.570312 -34.179688 30.355469 -33.796875 30.230469 -33.386719 C 30.171875 -33.1875 30.140625 -33.019531 30.140625 -32.882812 L 30.140625 -51.359375 C 30.140625 -53.644531 29.679688 -55.242188 28.757812 -56.152344 C 27.820312 -57.078125 26.21875 -57.542969 23.957031 -57.542969 L 15.1875 -57.542969 C 12.925781 -57.542969 11.324219 -57.078125 10.386719 -56.152344 C 9.464844 -55.242188 9.003906 -53.644531 9.003906 -51.359375 L 9.003906 -43.058594 C 9.003906 -43.402344 8.941406 -43.753906 8.820312 -44.121094 C 8.621094 -44.722656 8.289062 -45.257812 7.824219 -45.71875 C 7.363281 -46.179688 6.832031 -46.511719 6.226562 -46.710938 C 5.863281 -46.835938 5.507812 -46.894531 5.167969 -46.894531 L 13.308594 -46.894531 C 12.96875 -46.894531 12.613281 -46.835938 12.246094 -46.710938 C 11.644531 -46.511719 11.113281 -46.179688 10.648438 -45.71875 C 10.1875 -45.257812 9.855469 -44.722656 9.65625 -44.121094 C 9.535156 -43.753906 9.472656 -43.402344 9.472656 -43.058594 L 9.472656 -49.164062 C 9.472656 -51.613281 10.230469 -53.597656 11.746094 -55.113281 C 13.261719 -56.628906 15.246094 -57.386719 17.695312 -57.386719 L 21.453125 -57.386719 C 23.902344 -57.386719 25.882812 -56.628906 27.398438 -55.113281 C 28.914062 -53.597656 29.671875 -51.613281 29.671875 -49.164062 L 29.671875 -34.539062 L 8.292969 -23.039062 L 8.226562 -23.007812 C 8.132812 -22.960938 8.082031 -22.929688 8.0625 -22.917969 C 8.191406 -23.015625 8.320312 -23.152344 8.457031 -23.332031 C 8.6875 -23.640625 8.847656 -23.964844 8.941406 -24.300781 C 8.984375 -24.453125 9.003906 -24.570312 9.003906 -24.660156 L 9.003906 -1.566406 C 9.003906 -1.855469 8.949219 -2.164062 8.839844 -2.488281 C 8.652344 -3.054688 8.339844 -3.554688 7.90625 -3.988281 C 7.46875 -4.425781 6.96875 -4.738281 6.40625 -4.925781 C 6.078125 -5.035156 5.769531 -5.089844 5.480469 -5.089844 L 33.664062 -5.089844 C 33.375 -5.089844 33.066406 -5.035156 32.738281 -4.925781 C 32.175781 -4.738281 31.675781 -4.425781 31.242188 -3.988281 C 30.804688 -3.554688 30.492188 -3.054688 30.304688 -2.488281 C 30.195312 -2.164062 30.140625 -1.855469 30.140625 -1.566406 L 30.140625 -13.542969 C 30.140625 -13.253906 30.195312 -12.945312 30.304688 -12.621094 C 30.492188 -12.054688 30.804688 -11.554688 31.242188 -11.121094 C 31.675781 -10.683594 32.175781 -10.371094 32.738281 -10.183594 C 33.066406 -10.074219 33.375 -10.019531 33.664062 -10.019531 L 26.148438 -10.019531 C 26.4375 -10.019531 26.746094 -10.074219 27.074219 -10.183594 C 27.636719 -10.371094 28.136719 -10.683594 28.574219 -11.121094 C 29.007812 -11.554688 29.320312 -12.054688 29.507812 -12.621094 C 29.617188 -12.945312 29.671875 -13.253906 29.671875 -13.542969 L 29.671875 -5.246094 L 16.128906 -5.246094 C 14.199219 -5.246094 12.609375 -5.871094 11.355469 -7.128906 C 10.101562 -8.382812 9.472656 -9.972656 9.472656 -11.898438 L 9.472656 -18.710938 C 9.472656 -20.046875 9.796875 -21.265625 10.441406 -22.371094 C 11.082031 -23.46875 11.976562 -24.347656 13.132812 -25.007812 L 13.1875 -25.039062 Z M 30.703125 -34.464844 "/></g></g></g><g fill="#ffffff" fill-opacity="1"><g transform="translate(55.937021, 77.939056)"><g><path d="M 17.457031 -43.527344 L 24.269531 -43.527344 C 29.222656 -43.527344 33.136719 -42.09375 36.011719 -39.21875 C 38.882812 -36.347656 40.320312 -32.433594 40.320312 -27.480469 L 40.320312 -10.960938 C 40.320312 -6.007812 38.882812 -2.09375 36.011719 0.78125 C 33.136719 3.652344 29.222656 5.089844 24.269531 5.089844 L 14.875 5.089844 C 9.921875 5.089844 6.007812 3.652344 3.132812 0.78125 C 0.261719 -2.09375 -1.175781 -6.007812 -1.175781 -10.960938 L -1.175781 -31.082031 C -1.175781 -32.175781 -1.070312 -33.203125 -0.863281 -34.160156 C -0.675781 -35.011719 -0.40625 -35.902344 -0.0507812 -36.820312 L -0.0234375 -36.894531 L 11.121094 -63.429688 C 11.65625 -64.761719 12.519531 -65.820312 13.71875 -66.601562 C 14.863281 -67.347656 16.164062 -67.71875 17.613281 -67.71875 L 25.757812 -67.71875 C 26.664062 -67.71875 27.5 -67.585938 28.261719 -67.316406 C 29.558594 -66.859375 30.566406 -66.074219 31.292969 -64.960938 C 32.015625 -63.851562 32.328125 -62.617188 32.226562 -61.25 C 32.167969 -60.449219 31.960938 -59.632812 31.597656 -58.800781 L 22.144531 -36.457031 L 17.457031 -38.441406 Z M 9.78125 -33.351562 L 22.265625 -62.859375 C 22.164062 -62.628906 22.101562 -62.339844 22.074219 -61.988281 C 22.011719 -61.070312 22.238281 -60.210938 22.765625 -59.402344 C 23.296875 -58.589844 23.996094 -58.03125 24.867188 -57.722656 C 25.203125 -57.601562 25.5 -57.542969 25.757812 -57.542969 L 17.613281 -57.542969 C 18.179688 -57.542969 18.734375 -57.71875 19.28125 -58.074219 C 19.878906 -58.464844 20.285156 -58.9375 20.507812 -59.484375 L 9.390625 -33.023438 L 4.699219 -34.996094 L 9.445312 -33.167969 C 9.28125 -32.734375 9.15625 -32.34375 9.082031 -31.996094 C 9.03125 -31.753906 9.003906 -31.445312 9.003906 -31.082031 L 9.003906 -10.960938 C 9.003906 -8.816406 9.445312 -7.300781 10.332031 -6.417969 C 11.214844 -5.53125 12.730469 -5.089844 14.875 -5.089844 L 24.269531 -5.089844 C 26.414062 -5.089844 27.929688 -5.53125 28.8125 -6.417969 C 29.699219 -7.300781 30.140625 -8.816406 30.140625 -10.960938 L 30.140625 -27.480469 C 30.140625 -29.625 29.699219 -31.136719 28.8125 -32.023438 C 27.929688 -32.910156 26.414062 -33.351562 24.269531 -33.351562 Z M 17.378906 -15.421875 L 21.777344 -15.421875 C 21.703125 -15.410156 21.621094 -15.390625 21.523438 -15.359375 C 21.15625 -15.234375 20.820312 -15.019531 20.515625 -14.714844 C 20.210938 -14.410156 19.996094 -14.074219 19.871094 -13.703125 C 19.839844 -13.609375 19.820312 -13.527344 19.808594 -13.453125 L 19.808594 -24.988281 C 19.820312 -24.914062 19.839844 -24.828125 19.871094 -24.734375 C 19.996094 -24.367188 20.210938 -24.03125 20.515625 -23.722656 C 20.820312 -23.417969 21.15625 -23.207031 21.523438 -23.082031 C 21.621094 -23.050781 21.703125 -23.03125 21.777344 -23.019531 L 21.765625 -23.015625 L 17.378906 -23.015625 L 17.367188 -23.019531 C 17.441406 -23.03125 17.523438 -23.050781 17.621094 -23.082031 C 17.988281 -23.207031 18.324219 -23.417969 18.628906 -23.722656 C 18.933594 -24.03125 19.148438 -24.367188 19.273438 -24.734375 C 19.304688 -24.828125 19.324219 -24.914062 19.335938 -24.988281 L 19.335938 -13.453125 C 19.324219 -13.527344 19.304688 -13.609375 19.273438 -13.703125 C 19.148438 -14.074219 18.933594 -14.410156 18.628906 -14.714844 C 18.324219 -15.019531 17.988281 -15.234375 17.621094 -15.359375 C 17.523438 -15.390625 17.441406 -15.410156 17.367188 -15.421875 Z M 17.378906 -5.246094 C 14.929688 -5.246094 12.949219 -6.003906 11.433594 -7.519531 C 9.917969 -9.035156 9.160156 -11.015625 9.160156 -13.464844 L 9.160156 -24.972656 C 9.160156 -27.421875 9.917969 -29.40625 11.433594 -30.921875 C 12.949219 -32.4375 14.929688 -33.195312 17.378906 -33.195312 L 21.765625 -33.195312 C 24.214844 -33.195312 26.195312 -32.4375 27.710938 -30.921875 C 29.226562 -29.40625 29.984375 -27.421875 29.984375 -24.972656 L 29.984375 -13.464844 C 29.984375 -11.015625 29.226562 -9.035156 27.710938 -7.519531 C 26.195312 -6.003906 24.214844 -5.246094 21.765625 -5.246094 Z M 17.378906 -5.246094 "/></g></g></g><g fill="#155641" fill-opacity="1"><g transform="translate(2.787483, 77.939056)"><g><path d="M 14.171875 -53.234375 L 14.171875 -46.03125 C 14.171875 -44.988281 13.648438 -44.46875 12.609375 -44.46875 L 5.484375 -44.46875 C 4.441406 -44.46875 3.921875 -44.988281 3.921875 -46.03125 L 3.921875 -53.71875 C 3.921875 -54.445312 4.101562 -55.097656 4.46875 -55.671875 L 8.6875 -62.09375 C 8.894531 -62.457031 9.207031 -62.640625 9.625 -62.640625 L 13.15625 -62.640625 C 13.832031 -62.640625 14.039062 -62.328125 13.78125 -61.703125 L 10.640625 -54.8125 L 12.609375 -54.8125 C 13.648438 -54.8125 14.171875 -54.285156 14.171875 -53.234375 Z M 14.171875 -53.234375 "/></g></g></g><g fill="#155641" fill-opacity="1"><g transform="translate(18.833967, 77.939056)"><g><path d="M 33.125 -29.984375 L 15.65625 -20.59375 C 14.925781 -20.175781 14.5625 -19.550781 14.5625 -18.71875 L 14.5625 -11.90625 C 14.5625 -10.851562 15.082031 -10.328125 16.125 -10.328125 L 24.578125 -10.328125 L 24.578125 -13.546875 C 24.578125 -14.585938 25.101562 -15.109375 26.15625 -15.109375 L 33.671875 -15.109375 C 34.710938 -15.109375 35.234375 -14.585938 35.234375 -13.546875 L 35.234375 -1.5625 C 35.234375 -0.519531 34.710938 0 33.671875 0 L 5.484375 0 C 4.441406 0 3.921875 -0.519531 3.921875 -1.5625 L 3.921875 -24.65625 C 3.921875 -25.394531 4.078125 -25.972656 4.390625 -26.390625 C 4.703125 -26.804688 5.222656 -27.195312 5.953125 -27.5625 L 24.578125 -37.578125 L 24.578125 -49.171875 C 24.578125 -51.253906 23.535156 -52.296875 21.453125 -52.296875 L 17.6875 -52.296875 C 15.601562 -52.296875 14.5625 -51.253906 14.5625 -49.171875 L 14.5625 -43.0625 C 14.5625 -42.226562 14.144531 -41.8125 13.3125 -41.8125 L 5.171875 -41.8125 C 4.335938 -41.8125 3.921875 -42.226562 3.921875 -43.0625 L 3.921875 -51.359375 C 3.921875 -55.066406 4.882812 -57.875 6.8125 -59.78125 C 8.738281 -61.6875 11.53125 -62.640625 15.1875 -62.640625 L 23.953125 -62.640625 C 27.609375 -62.640625 30.398438 -61.6875 32.328125 -59.78125 C 34.265625 -57.875 35.234375 -55.066406 35.234375 -51.359375 L 35.234375 -32.890625 C 35.234375 -32.148438 35.0625 -31.582031 34.71875 -31.1875 C 34.382812 -30.800781 33.851562 -30.398438 33.125 -29.984375 Z M 33.125 -29.984375 "/></g></g></g><g fill="#155641" fill-opacity="1"><g transform="translate(55.937021, 77.939056)"><g><path d="M 17.453125 -38.4375 L 24.265625 -38.4375 C 27.816406 -38.4375 30.53125 -37.5 32.40625 -35.625 C 34.289062 -33.75 35.234375 -31.035156 35.234375 -27.484375 L 35.234375 -10.96875 C 35.234375 -7.414062 34.289062 -4.695312 32.40625 -2.8125 C 30.53125 -0.9375 27.816406 0 24.265625 0 L 14.875 0 C 11.320312 0 8.609375 -0.9375 6.734375 -2.8125 C 4.859375 -4.695312 3.921875 -7.414062 3.921875 -10.96875 L 3.921875 -31.078125 C 3.921875 -31.816406 3.984375 -32.484375 4.109375 -33.078125 C 4.242188 -33.679688 4.441406 -34.320312 4.703125 -35 L 15.8125 -61.46875 C 16.125 -62.25 16.722656 -62.640625 17.609375 -62.640625 L 25.765625 -62.640625 C 27.066406 -62.640625 27.457031 -62.039062 26.9375 -60.84375 Z M 17.375 -10.328125 L 21.765625 -10.328125 C 23.847656 -10.328125 24.890625 -11.375 24.890625 -13.46875 L 24.890625 -24.984375 C 24.890625 -27.066406 23.847656 -28.109375 21.765625 -28.109375 L 17.375 -28.109375 C 15.289062 -28.109375 14.25 -27.066406 14.25 -24.984375 L 14.25 -13.46875 C 14.25 -11.375 15.289062 -10.328125 17.375 -10.328125 Z M 17.375 -10.328125 "/></g></g></g></g></g></svg>