<?xml version="1.0" encoding="UTF-8"?>
<svg id="Layer_2" data-name="Layer 2" xmlns="http://www.w3.org/2000/svg" viewBox="0 0 270.18 165.18">
  <defs>
    <style>
      .cls-1 {
        fill: #fff;
      }
    </style>
  </defs>
  <g id="Layer_1-2" data-name="Layer 1">
    <g id="Outlined_Black" data-name="Outlined Black">
      <path class="cls-1" d="M270.18,10.76v3.73c0,2.22-.61,4.37-1.77,6.24l-1.99,3.09c-1.15,1.88-2.84,3.31-4.81,4.15v7.21c0,5.55-2.3,9.04-4.23,10.99-1.88,1.94-5.38,4.33-10.97,4.33h-4.45c-2.08,0-3.87-.33-5.39-.85-.86.36-1.78.62-2.74.75l1.34,33.06,9.01,51.29h-1.91v1.86c0,2.26-.67,4.33-1.83,6.02v2.86c1.16,1.69,1.83,3.75,1.83,6v3.18c0,5.9-4.61,10.51-10.5,10.51h-11.42c-1.26,0-2.45-.21-3.56-.61-1.3.38-2.79.61-4.47.61h-3.49c-1.32,0-2.52-.14-3.61-.38-.91.25-1.88.38-2.87.38h-3.01c-1.57,0-3.07-.34-4.41-.96-1.34.62-2.83.96-4.38.96h-3.04c-1.04,0-2.05-.15-3.01-.43-1.12.27-2.37.43-3.75.43h-3.48c-2.39,0-4.38-.47-6.02-1.16-1.46.75-3.12,1.16-4.87,1.16h-3.34c-1.26,0-2.46-.21-3.57-.59-1.11.38-2.31.59-3.54.59h-3.42c-1.57,0-3.06-.33-4.4-.94-1.52.57-3.33.94-5.46.94h-3.49c-1.69,0-3.17-.23-4.48-.62-1.12.4-2.33.62-3.61.62h-3.2c-.86,0-1.69-.1-2.48-.28-.79.18-1.62.28-2.48.28h-3.2c-1.27,0-2.48-.21-3.6-.61-1.31.37-2.8.61-4.5.61h-3.48c-3.95,0-6.81-1.28-8.78-2.72-1.91,1.75-4.41,2.72-7.1,2.72h-3.05c-.9,0-1.78-.11-2.63-.33-.84.22-1.73.33-2.64.33h-3.04c-1.26,0-2.47-.21-3.58-.61-1.31.38-2.8.61-4.49.61h-3.48c-1.68,0-3.17-.23-4.47-.61-1.11.4-2.32.61-3.59.61h-3.24c-.7,0-1.38-.07-2.04-.19-.66.12-1.35.19-2.05.19h-2.45c-1.18,0-2.33-.2-3.41-.57-1.08.37-2.25.57-3.48.57h-2.92c-.7,0-1.39-.07-2.04-.19-.66.12-1.35.19-2.05.19h-11.43c-1.26,0-2.45-.21-3.56-.61-1.3.38-2.79.61-4.47.61h-3.48c-5.26,0-8.59-2.26-10.46-4.16-1.84-1.88-4.01-5.2-4.01-10.42v-3.33c0-.93.11-1.83.33-2.68-.22-.89-.33-1.81-.33-2.77v-7.49c0-3.43.93-6.04,2.09-7.95l.12-39.49h15.58l.9-10.72-.51-7.99H.94L0,17.81h102.92l4.47,19.53,5.92-19.53h70.39l4.47,19.56,5.94-19.56h14.11v-2.26c0-5.63,2.32-9.16,4.27-11.12,1.92-1.96,5.44-4.35,11.07-4.35h4.16c3.79,0,6.63,1.09,8.67,2.41,1.88-1.53,4.28-2.41,6.87-2.41h3.86c1.54,0,3.04.32,4.39.91,1.38-.64,2.92-.99,4.56-.99h3.37c6.02,0,10.74,4.73,10.74,10.76Z"/>
      <g>
        <path d="M260.18,10.76v3.73c0,.35-.09.67-.26.95l-2.01,3.12c-.09.18-.24.27-.44.27h-1.67c-.32,0-.42-.15-.3-.45h0s.42-.96.42-.96h0s.42-.96.42-.96l.63-1.43h-.92c-.24,0-.41-.06-.54-.17-.14-.12-.21-.32-.21-.59v-3.49c0-.51.25-.76.75-.76h3.37c.5,0,.75.25.75.76Z"/>
        <path d="M250.27,23.2c-.89-.92-2.18-1.37-3.86-1.37h-3.22l.6-1.43,3.89-9.44c.25-.59.06-.88-.56-.88h-3.86c-.42,0-.7.19-.84.57l-5.27,12.85c-.13.34-.22.65-.28.94-.05.28-.09.6-.09.96v9.77c0,1.72.44,3.05,1.33,3.95.89.92,2.18,1.37,3.86,1.37h4.45c1.69,0,2.98-.45,3.86-1.37.9-.91,1.34-2.23,1.34-3.95v-8.02c0-1.72-.44-3.04-1.34-3.95ZM246.72,33.96c0,1.01-.5,1.53-1.49,1.53h-2.08c-.99,0-1.48-.52-1.48-1.53v-5.6c0-1,.5-1.51,1.48-1.51h2.08c.99,0,1.49.51,1.49,1.51v5.6Z"/>
        <path d="M223.25,31.41v3.3c0,.52.25.77.75.77h4.02v-1.56c0-.52.25-.76.75-.76h3.55c.5,0,.75.25.75.76v5.82c0,.51-.25.76-.75.76h-13.35c-.49,0-.74-.25-.74-.76v-11.22c0-.29.04-.52.14-.71.02-.04.04-.08.07-.12.04-.07.11-.14.19-.2.14-.13.33-.26.56-.37l8.83-4.88v-5.62c0-1.01-.5-1.52-1.48-1.52h-1.79c-.99,0-1.49.51-1.49,1.52v2.97c0,.41-.19.6-.58.6h-3.86c-.4,0-.59-.2-.59-.6v-4.03c0-1.79.45-3.16,1.37-4.09.91-.92,2.24-1.39,3.97-1.39h4.16c1.73,0,3.06.46,3.97,1.39.91.92,1.37,2.29,1.37,4.09v8.98c0,.36-.08.62-.25.82-.16.19-.41.38-.75.59h0l-8.27,4.57c-.36.2-.53.51-.53.91Z"/>
      </g>
      <g>
        <path d="M203.04,124.75l1.15-37.92-5.35,21.4h-23.11l-2.29-8.98v25.5l-18.02-.16-13.95-19.99-3.25,4.76-14.32-24.06-17.01,17.76-12.6-14.7-13.18,22.54-14.93,11.57-2.93,2.27H12.29l.08-27.86h14.81l1.72-20.62-1.15-18.1H10.75l-.57-30.36h56.16l-.75,29.77-13.96-.55-1.53,19.24,1.53,20.62h14.76l-.08,9.31,4.95-29.93,1.34-48.46h22.35l11.08,48.46,14.7-48.46h21.4l2.3,56.72,2.16,22.47,4-27.62,2.8-51.57h22.34l11.08,48.46,14.72-48.46h14.09c-.04.22-.05.46-.05.71v11.22c0,1.98,1.43,3.42,3.4,3.42h4.57l1.68,41.37,7.06,40.21h-29.23Z"/>
        <g>
          <path d="M232.27,133.43v3.18c0,.36-.17.54-.5.54h-7.67v4.9h5.84c.33,0,.5.18.5.53v3.15c0,.36-.17.54-.5.54h-5.84v4.7h7.67c.33,0,.5.17.5.51v3.18c0,.34-.17.51-.5.51h-11.43c-.31,0-.47-.17-.47-.51v-21.24c0-.34.15-.51.47-.51h11.43c.33,0,.5.17.5.51Z"/>
          <path d="M208.83,132.92h3.48c1.46,0,2.58.39,3.33,1.16s1.14,1.92,1.14,3.42v2.11c0,.34-.17.51-.5.51h-3.14c-.33,0-.5-.17-.5-.51v-1.34c0-.84-.42-1.26-1.24-1.26h-1.7c-.83,0-1.24.42-1.24,1.26v2.71l7.51,2.48c.54.19.81.58.81,1.18v5.98c0,1.49-.38,2.62-1.14,3.4-.76.78-1.87,1.18-3.33,1.18h-3.48c-1.44,0-2.55-.39-3.32-1.18-.77-.78-1.15-1.92-1.15-3.4v-2.06c0-.34.17-.51.5-.51h3.14c.33,0,.5.17.5.51v1.33c0,.85.41,1.28,1.24,1.28h1.67c.83,0,1.24-.42,1.24-1.28v-3.22l-7.44-2.47c-.56-.19-.84-.58-.84-1.18v-5.51c0-1.5.38-2.64,1.15-3.42.77-.78,1.88-1.16,3.32-1.16Z"/>
          <path d="M202.78,154.64l-5.15-21.27c-.06-.3-.23-.45-.53-.45h-4.3c-.29,0-.47.15-.53.45l-5.15,21.27c-.1.36.04.54.4.54h3.04c.28,0,.44-.14.5-.44l.97-4.02h5.83l1,4.02c.06.29.23.44.5.44h3c.4,0,.54-.18.44-.54ZM192.98,147.04l1.96-8.64,1.95,8.64h-3.91Z"/>
          <path d="M185.22,137.5v3.44c0,.34-.16.51-.49.51h-2.92c-.33,0-.5-.17-.5-.51v-2.61c0-.85-.42-1.28-1.24-1.28h-1.98c-.83,0-1.24.43-1.24,1.28v11.54c0,.85.41,1.28,1.24,1.28h1.98c.83,0,1.24-.42,1.24-1.28v-2.71c0-.34.17-.51.5-.51h2.92c.32,0,.49.17.49.51v3.44c0,1.49-.38,2.62-1.15,3.4-.77.78-1.87,1.18-3.32,1.18h-3.47c-1.45,0-2.56-.39-3.34-1.18-.77-.78-1.16-1.92-1.16-3.4v-13.11c0-1.5.38-2.64,1.16-3.42.78-.78,1.89-1.16,3.34-1.16h3.47c1.45,0,2.56.39,3.32,1.16.76.78,1.15,1.92,1.15,3.42Z"/>
          <path d="M166.54,132.92h2.91c.45,0,.65.23.6.68l-2.99,21.01c-.06.39-.29.58-.68.58h-3.34c-.35,0-.58-.19-.68-.58l-2.86-13.04-2.89,13.04c-.09.39-.31.58-.68.58h-3.42c-.39,0-.62-.2-.68-.6l-2.86-20.99c-.06-.45.14-.68.6-.68h2.91c.37,0,.6.21.66.61l1.51,13.29h.16l3.04-13.36c.1-.36.33-.54.68-.54h1.89c.35,0,.57.18.68.54l3.04,13.36h.15l1.58-13.29c.06-.4.28-.61.66-.61Z"/>
          <path d="M145.98,134.08c-.76-.77-1.87-1.16-3.33-1.16h-3.49c-1.44,0-2.55.39-3.32,1.16-.76.78-1.15,1.92-1.15,3.42v13.1c0,1.48.38,2.62,1.15,3.4.77.78,1.88,1.17,3.32,1.17h3.49c1.46,0,2.57-.39,3.33-1.17.76-.78,1.13-1.92,1.13-3.4v-13.1c0-1.5-.37-2.64-1.13-3.42ZM143.2,149.8c0,.85-.42,1.28-1.23,1.28h-1.99c-.84,0-1.25-.43-1.25-1.28v-11.5c0-.85.42-1.28,1.25-1.28h1.99c.82,0,1.23.43,1.23,1.28v11.5Z"/>
          <path d="M127.38,142.02v-8.59c0-.34.16-.51.49-.51h3.2c.35,0,.53.17.53.51v21.24c0,.34-.18.51-.53.51h-3.2c-.32,0-.49-.17-.49-.51v-8.46h-3.98v8.46c0,.34-.16.51-.49.51h-3.2c-.35,0-.53-.17-.53-.51v-21.24c0-.34.18-.51.53-.51h3.2c.32,0,.49.17.49.51v8.59h3.98Z"/>
          <path d="M108.13,129.75h3.48c1.46,0,2.58.39,3.33,1.16.76.77,1.14,1.91,1.14,3.42v3.37c0,.33-.17.5-.5.5h-3.24c-.32,0-.49-.17-.49-.5v-2.48c0-.85-.42-1.28-1.24-1.28h-1.49c-.83,0-1.24.43-1.24,1.28v4.39l7.39,2.47c.54.24.81.63.81,1.19v7.34c0,1.49-.38,2.62-1.14,3.4-.76.78-1.87,1.18-3.33,1.18h-3.48c-1.44,0-2.55-.39-3.32-1.18-.77-.78-1.15-1.92-1.15-3.4v-3.34c0-.34.17-.51.5-.51h3.24c.32,0,.49.17.49.51v2.45c0,.84.41,1.26,1.24,1.26h1.49c.83,0,1.24-.42,1.24-1.26v-4.24l-7.36-2.47c-.56-.19-.84-.59-.84-1.19v-7.5c0-1.51.38-2.64,1.15-3.42.77-.78,1.88-1.16,3.32-1.16Z"/>
          <path d="M92.81,143.9v-6.4c0-1.5-.38-2.64-1.14-3.42-.76-.77-1.87-1.16-3.33-1.16h-7.45c-.34,0-.51.18-.51.52v21.24c0,.35.17.51.51.51h3.04c.33,0,.5-.16.5-.51v-6.2h2.75l1.5,6.27c.06.29.24.44.52.44h3.05c.38,0,.52-.19.43-.57l-1.61-6.83c1.16-.75,1.74-2.04,1.74-3.88ZM88.78,143.1c0,.85-.42,1.28-1.25,1.28h-3.1v-7.36h3.1c.84,0,1.25.43,1.25,1.28v4.8Z"/>
          <path d="M76.15,134.08c-.76-.77-1.87-1.16-3.33-1.16h-3.48c-1.45,0-2.55.39-3.32,1.16-.76.78-1.15,1.92-1.15,3.42v13.1c0,1.48.38,2.62,1.15,3.4.77.78,1.87,1.17,3.32,1.17h3.48c1.47,0,2.58-.39,3.33-1.17s1.14-1.92,1.14-3.4v-13.1c0-1.5-.38-2.64-1.14-3.42ZM73.37,149.8c0,.85-.41,1.28-1.23,1.28h-1.99c-.83,0-1.24-.43-1.24-1.28v-11.5c0-.85.42-1.28,1.24-1.28h1.99c.83,0,1.23.43,1.23,1.28v11.5Z"/>
          <path d="M58.04,155.18h3.24c.32,0,.49-.17.49-.51v-21.24c0-.34-.16-.51-.49-.51h-3.24c-.33,0-.5.17-.5.51v21.24c0,.34.17.51.5.51Z"/>
          <path d="M51.04,132.92h2.91c.33,0,.5.17.5.51v21.24c0,.34-.17.51-.5.51h-2.45c-.25,0-.44-.14-.56-.41l-5.83-12.15v12.05c0,.34-.17.51-.5.51h-2.92c-.33,0-.5-.17-.5-.51v-21.24c0-.34.17-.51.5-.51h2.46c.24,0,.43.14.55.42l5.84,12.14v-12.05c0-.34.17-.51.5-.51Z"/>
          <path d="M38.09,133.43v3.18c0,.36-.17.54-.5.54h-7.67v4.9h5.84c.33,0,.5.18.5.53v3.15c0,.36-.17.54-.5.54h-5.84v4.7h7.67c.33,0,.5.17.5.51v3.18c0,.34-.17.51-.5.51h-11.43c-.31,0-.47-.17-.47-.51v-21.24c0-.34.15-.51.47-.51h11.43c.33,0,.5.17.5.51Z"/>
          <path d="M14.66,129.75h3.48c1.46,0,2.58.39,3.33,1.16.76.77,1.14,1.91,1.14,3.42v3.37c0,.33-.17.5-.5.5h-3.24c-.32,0-.49-.17-.49-.5v-2.48c0-.85-.42-1.28-1.24-1.28h-1.49c-.83,0-1.24.43-1.24,1.28v4.39l7.39,2.47c.54.24.81.63.81,1.19v7.34c0,1.49-.38,2.62-1.14,3.4-.76.78-1.87,1.18-3.33,1.18h-3.48c-1.44,0-2.55-.39-3.32-1.18-.77-.78-1.15-1.92-1.15-3.4v-3.34c0-.34.17-.51.5-.51h3.24c.32,0,.49.17.49.51v2.45c0,.84.41,1.26,1.24,1.26h1.49c.83,0,1.24-.42,1.24-1.26v-4.24l-7.36-2.47c-.56-.19-.84-.59-.84-1.19v-7.5c0-1.51.38-2.64,1.15-3.42.77-.78,1.88-1.16,3.32-1.16Z"/>
        </g>
      </g>
    </g>
  </g>
</svg>