<?xml version="1.0" encoding="UTF-8"?>
<svg id="Layer_2" data-name="Layer 2" xmlns="http://www.w3.org/2000/svg" viewBox="0 0 250 142.75">
  <defs>
    <style>
      .cls-1 {
        fill: #165c45;
      }
    </style>
  </defs>
  <g id="Layer_1-2" data-name="Layer 1">
    <g id="Ss1_Green" data-name="Ss1 Green">
      <line class="cls-1" x1="69.69" y1="118.56" x2="66.75" y2="120.84"/>
      <g>
        <polygon class="cls-1" points="217.1 109.12 218.39 66.43 212.37 90.52 186.35 90.52 183.77 80.41 183.77 109.12 163.48 108.94 147.77 86.44 144.12 91.81 127.99 64.72 108.85 84.71 94.66 68.16 79.83 93.53 63.02 106.56 59.72 109.12 2.36 109.12 2.45 77.76 19.13 77.76 21.07 54.55 19.78 34.18 .64 34.18 0 0 63.22 0 62.38 33.51 46.65 32.89 44.94 54.55 46.65 77.76 63.26 77.76 63.17 88.24 68.74 54.55 70.26 0 95.41 0 107.89 54.55 124.44 0 148.52 0 151.11 63.86 153.54 89.14 158.05 58.05 161.2 0 186.35 0 198.82 54.55 215.38 0 239.45 0 242.04 63.86 250 109.12 217.1 109.12"/>
        <g>
          <path class="cls-1" d="M250,118.26v3.58c0,.41-.19.61-.56.61h-8.64v5.52h6.58c.37,0,.56.2.56.6v3.54c0,.41-.19.61-.56.61h-6.58v5.29h8.64c.37,0,.56.19.56.57v3.58c0,.38-.19.57-.56.57h-12.86c-.35,0-.52-.19-.52-.57v-23.91c0-.38.17-.57.52-.57h12.86c.37,0,.56.19.56.57Z"/>
          <path class="cls-1" d="M223.62,117.69h3.92c1.65,0,2.9.44,3.75,1.31s1.28,2.16,1.28,3.84v2.37c0,.38-.19.57-.56.57h-3.53c-.37,0-.56-.19-.56-.57v-1.51c0-.95-.47-1.42-1.4-1.42h-1.91c-.93,0-1.4.47-1.4,1.42v3.05l8.45,2.8c.61.22.91.66.91,1.32v6.73c0,1.67-.43,2.95-1.28,3.83-.85.88-2.1,1.32-3.75,1.32h-3.92c-1.63,0-2.87-.44-3.74-1.32-.86-.88-1.29-2.16-1.29-3.83v-2.32c0-.38.19-.57.56-.57h3.53c.37,0,.56.19.56.57v1.5c0,.96.47,1.44,1.4,1.44h1.88c.93,0,1.4-.48,1.4-1.44v-3.62l-8.38-2.78c-.63-.22-.95-.66-.95-1.32v-6.2c0-1.69.43-2.97,1.29-3.84.87-.87,2.11-1.31,3.74-1.31Z"/>
          <path class="cls-1" d="M216.81,142.14l-5.8-23.94c-.07-.34-.27-.51-.6-.51h-4.85c-.32,0-.52.17-.59.51l-5.8,23.94c-.12.41.03.61.45.61h3.42c.31,0,.5-.16.56-.5l1.08-4.52h6.57l1.12,4.52c.07.33.26.5.56.5h3.39c.44,0,.61-.2.49-.61ZM205.77,133.59l2.21-9.74,2.19,9.74h-4.4Z"/>
          <path class="cls-1" d="M197.03,122.84v3.87c0,.38-.18.57-.55.57h-3.29c-.37,0-.56-.19-.56-.57v-2.93c0-.95-.47-1.44-1.4-1.44h-2.23c-.93,0-1.4.48-1.4,1.44v12.99c0,.96.47,1.44,1.4,1.44h2.23c.93,0,1.4-.48,1.4-1.44v-3.05c0-.38.19-.57.56-.57h3.29c.37,0,.55.19.55.57v3.87c0,1.67-.43,2.95-1.29,3.83-.86.88-2.11,1.32-3.74,1.32h-3.91c-1.63,0-2.89-.44-3.76-1.32-.87-.88-1.3-2.16-1.3-3.83v-14.75c0-1.69.43-2.97,1.3-3.84.88-.87,2.13-1.31,3.76-1.31h3.91c1.63,0,2.88.44,3.74,1.31.86.87,1.29,2.16,1.29,3.84Z"/>
          <path class="cls-1" d="M176.01,117.69h3.28c.51,0,.73.26.67.76l-3.36,23.65c-.07.43-.32.65-.77.65h-3.76c-.4,0-.65-.22-.77-.65l-3.22-14.68-3.25,14.68c-.1.43-.35.65-.77.65h-3.85c-.44,0-.69-.22-.77-.67l-3.22-23.63c-.07-.51.16-.76.67-.76h3.28c.42,0,.67.23.74.69l1.71,14.97h.18l3.42-15.04c.11-.41.37-.61.77-.61h2.13c.39,0,.65.21.77.61l3.42,15.04h.17l1.78-14.97c.07-.46.32-.69.74-.69Z"/>
          <path class="cls-1" d="M152.86,119c-.85-.88-2.1-1.31-3.75-1.31h-3.92c-1.62,0-2.87.43-3.74,1.31-.86.87-1.29,2.15-1.29,3.84v14.75c0,1.67.43,2.95,1.29,3.83.87.88,2.12,1.32,3.74,1.32h3.92c1.65,0,2.9-.44,3.75-1.32s1.28-2.16,1.28-3.83v-14.75c0-1.69-.42-2.97-1.28-3.84ZM149.73,136.7c0,.96-.46,1.44-1.39,1.44h-2.24c-.94,0-1.4-.48-1.4-1.44v-12.95c0-.95.47-1.44,1.4-1.44h2.24c.93,0,1.39.48,1.39,1.44v12.95Z"/>
          <path class="cls-1" d="M131.92,127.94v-9.67c0-.38.18-.57.55-.57h3.61c.4,0,.6.19.6.57v23.91c0,.38-.2.57-.6.57h-3.61c-.37,0-.55-.19-.55-.57v-9.52h-4.48v9.52c0,.38-.18.57-.55.57h-3.61c-.4,0-.6-.19-.6-.57v-23.91c0-.38.2-.57.6-.57h3.61c.37,0,.55.19.55.57v9.67h4.48Z"/>
          <path class="cls-1" d="M110.25,114.12h3.92c1.65,0,2.9.44,3.75,1.31.85.87,1.28,2.15,1.28,3.84v3.79c0,.37-.19.56-.56.56h-3.64c-.37,0-.55-.19-.55-.56v-2.8c0-.95-.47-1.44-1.4-1.44h-1.68c-.93,0-1.4.48-1.4,1.44v4.94l8.32,2.78c.61.27.91.71.91,1.34v8.26c0,1.67-.43,2.95-1.28,3.83-.85.88-2.1,1.32-3.75,1.32h-3.92c-1.63,0-2.87-.44-3.74-1.32-.86-.88-1.29-2.16-1.29-3.83v-3.76c0-.38.19-.57.56-.57h3.64c.37,0,.55.19.55.57v2.76c0,.95.47,1.42,1.4,1.42h1.68c.93,0,1.4-.47,1.4-1.42v-4.77l-8.28-2.78c-.63-.22-.95-.66-.95-1.34v-8.44c0-1.7.43-2.98,1.29-3.84.87-.87,2.11-1.31,3.74-1.31Z"/>
          <path class="cls-1" d="M93,130.05v-7.2c0-1.69-.42-2.97-1.28-3.84-.85-.88-2.1-1.31-3.75-1.31h-8.39c-.38,0-.56.19-.56.57v23.91c0,.39.19.57.56.57h3.42c.37,0,.56-.19.56-.57v-6.97h3.1l1.68,7.05c.07.33.27.5.6.5h3.42c.44,0,.6-.21.49-.65l-1.81-7.69c1.31-.84,1.96-2.3,1.96-4.37ZM88.46,129.15c0,.96-.47,1.44-1.4,1.44h-3.49v-8.28h3.49c.94,0,1.4.48,1.4,1.44v5.4Z"/>
          <path class="cls-1" d="M74.26,119c-.85-.88-2.1-1.31-3.75-1.31h-3.92c-1.62,0-2.87.43-3.74,1.31-.86.87-1.29,2.15-1.29,3.84v14.75c0,1.67.43,2.95,1.29,3.83.87.88,2.11,1.32,3.74,1.32h3.92c1.65,0,2.9-.44,3.75-1.32.85-.88,1.28-2.16,1.28-3.83v-14.75c0-1.69-.43-2.97-1.28-3.84ZM71.13,136.7c0,.96-.46,1.44-1.39,1.44h-2.24c-.94,0-1.4-.48-1.4-1.44v-12.95c0-.95.47-1.44,1.4-1.44h2.24c.93,0,1.39.48,1.39,1.44v12.95Z"/>
          <path class="cls-1" d="M53.87,142.75h3.64c.37,0,.55-.19.55-.57v-23.91c0-.38-.18-.57-.55-.57h-3.64c-.37,0-.56.19-.56.57v23.91c0,.38.19.57.56.57Z"/>
          <path class="cls-1" d="M45.98,117.69h3.28c.37,0,.56.19.56.57v23.91c0,.38-.19.57-.56.57h-2.75c-.29,0-.5-.15-.63-.46l-6.57-13.68v13.57c0,.38-.19.57-.56.57h-3.29c-.37,0-.56-.19-.56-.57v-23.91c0-.38.19-.57.56-.57h2.76c.27,0,.48.16.62.47l6.58,13.67v-13.57c0-.38.19-.57.56-.57Z"/>
          <path class="cls-1" d="M31.41,118.26v3.58c0,.41-.19.61-.56.61h-8.64v5.52h6.58c.37,0,.56.2.56.6v3.54c0,.41-.19.61-.56.61h-6.58v5.29h8.64c.37,0,.56.19.56.57v3.58c0,.38-.19.57-.56.57h-12.86c-.35,0-.52-.19-.52-.57v-23.91c0-.38.17-.57.52-.57h12.86c.37,0,.56.19.56.57Z"/>
          <path class="cls-1" d="M5.03,114.12h3.92c1.65,0,2.9.44,3.75,1.31.85.87,1.28,2.15,1.28,3.84v3.79c0,.37-.19.56-.56.56h-3.64c-.37,0-.55-.19-.55-.56v-2.8c0-.95-.47-1.44-1.4-1.44h-1.68c-.93,0-1.4.48-1.4,1.44v4.94l8.32,2.78c.61.27.91.71.91,1.34v8.26c0,1.67-.43,2.95-1.28,3.83-.85.88-2.1,1.32-3.75,1.32h-3.92c-1.63,0-2.87-.44-3.74-1.32-.86-.88-1.29-2.16-1.29-3.83v-3.76c0-.38.19-.57.56-.57h3.64c.37,0,.55.19.55.57v2.76c0,.95.47,1.42,1.4,1.42h1.68c.93,0,1.4-.47,1.4-1.42v-4.77l-8.28-2.78c-.63-.22-.95-.66-.95-1.34v-8.44c0-1.7.43-2.98,1.29-3.84.87-.87,2.11-1.31,3.74-1.31Z"/>
        </g>
      </g>
    </g>
  </g>
</svg>