<?xml version="1.0" encoding="UTF-8"?>
<svg id="Layer_2" data-name="Layer 2" xmlns="http://www.w3.org/2000/svg" viewBox="0 0 250 137.27">
  <defs>
    <style>
      .cls-1 {
        fill: #fff;
      }
    </style>
  </defs>
  <g id="Layer_1-2" data-name="Layer 1">
    <g id="Ss2_White" data-name="Ss2 White">
      <polygon class="cls-1" points="217.1 109.12 218.39 66.43 212.37 90.52 186.35 90.52 183.77 80.41 183.77 109.12 163.48 108.94 147.77 86.44 144.12 91.81 127.99 64.72 108.85 84.71 94.66 68.16 79.83 93.53 63.02 106.56 59.72 109.12 2.36 109.12 2.45 77.76 19.13 77.76 21.07 54.55 19.78 34.18 .64 34.18 0 0 63.22 0 62.38 33.51 46.65 32.89 44.94 54.55 46.65 77.76 63.26 77.76 63.17 88.24 68.74 54.55 70.26 0 95.41 0 107.89 54.55 124.44 0 148.52 0 151.11 63.86 153.54 89.14 158.05 58.05 161.2 0 186.35 0 198.82 54.55 215.38 0 239.45 0 242.04 63.86 250 109.12 217.1 109.12"/>
      <g>
        <path class="cls-1" d="M7.41,114.12c2.72,0,4.17,1.45,4.17,4.17v3.07c0,.29-.15.46-.46.46h-3.01c-.29,0-.46-.17-.46-.46v-2.26c0-.75-.38-1.16-1.16-1.16h-1.39c-.72,0-1.16.41-1.16,1.16v3.99l6.89,2.26c.49.2.75.52.75,1.07v6.68c0,2.72-1.45,4.17-4.17,4.17h-3.24c-2.69,0-4.17-1.45-4.17-4.17v-3.04c0-.32.17-.46.46-.46h3.01c.32,0,.46.14.46.46v2.23c0,.78.43,1.16,1.16,1.16h1.39c.75,0,1.16-.38,1.16-1.16v-3.85l-6.86-2.26c-.52-.17-.78-.52-.78-1.07v-6.83c0-2.72,1.48-4.17,4.17-4.17h3.24Z"/>
        <path class="cls-1" d="M26.02,120.37c0,.29-.12.49-.46.49h-7.15v4.46h5.44c.29,0,.46.17.46.49v2.86c0,.32-.17.49-.46.49h-5.44v4.28h7.15c.35,0,.46.15.46.46v2.89c0,.29-.12.46-.46.46h-10.65c-.26,0-.43-.17-.43-.46v-19.33c0-.29.17-.46.43-.46h10.65c.35,0,.46.17.46.46v2.89Z"/>
        <path class="cls-1" d="M40.81,117.01c.29,0,.46.17.46.46v19.33c0,.29-.17.46-.46.46h-2.29c-.26,0-.41-.12-.52-.38l-5.44-11.05v10.97c0,.29-.14.46-.46.46h-2.72c-.29,0-.46-.17-.46-.46v-19.33c0-.29.17-.46.46-.46h2.29c.26,0,.41.12.52.38l5.44,11.05v-10.97c0-.29.14-.46.46-.46h2.72Z"/>
        <path class="cls-1" d="M44.63,137.27c-.32,0-.46-.17-.46-.46v-19.33c0-.29.15-.46.46-.46h3.01c.29,0,.46.17.46.46v19.33c0,.29-.17.46-.46.46h-3.01Z"/>
        <path class="cls-1" d="M51,121.18c0-2.72,1.45-4.17,4.17-4.17h3.24c2.72,0,4.17,1.45,4.17,4.17v11.92c0,2.72-1.45,4.17-4.17,4.17h-3.24c-2.72,0-4.17-1.45-4.17-4.17v-11.92ZM57.77,133.54c.75,0,1.16-.38,1.16-1.16v-10.48c0-.75-.41-1.16-1.16-1.16h-1.85c-.75,0-1.16.41-1.16,1.16v10.48c0,.78.41,1.16,1.16,1.16h1.85Z"/>
        <path class="cls-1" d="M77.05,127c0,1.68-.55,2.86-1.62,3.53l1.5,6.22c.09.35-.09.52-.41.52h-2.84c-.29,0-.43-.15-.49-.41l-1.39-5.7h-2.58v5.64c0,.29-.17.46-.46.46h-2.84c-.29,0-.46-.17-.46-.46v-19.33c0-.29.17-.46.46-.46h6.95c2.72,0,4.17,1.45,4.17,4.17v5.82ZM72.13,127.43c.75,0,1.16-.41,1.16-1.16v-4.37c0-.75-.41-1.16-1.16-1.16h-2.89v6.68h2.89Z"/>
        <path class="cls-1" d="M94.59,114.12c2.72,0,4.17,1.45,4.17,4.17v3.07c0,.29-.15.46-.46.46h-3.01c-.29,0-.46-.17-.46-.46v-2.26c0-.75-.38-1.16-1.16-1.16h-1.39c-.72,0-1.16.41-1.16,1.16v3.99l6.89,2.26c.49.2.75.52.75,1.07v6.68c0,2.72-1.45,4.17-4.17,4.17h-3.24c-2.69,0-4.17-1.45-4.17-4.17v-3.04c0-.32.17-.46.46-.46h3.01c.32,0,.46.14.46.46v2.23c0,.78.43,1.16,1.16,1.16h1.39c.75,0,1.16-.38,1.16-1.16v-3.85l-6.86-2.26c-.52-.17-.78-.52-.78-1.07v-6.83c0-2.72,1.48-4.17,4.17-4.17h3.24Z"/>
        <path class="cls-1" d="M109.29,117.48c0-.29.17-.46.46-.46h2.98c.35,0,.49.17.49.46v19.33c0,.29-.15.46-.49.46h-2.98c-.29,0-.46-.17-.46-.46v-7.7h-3.7v7.7c0,.29-.17.46-.46.46h-2.98c-.35,0-.49-.17-.49-.46v-19.33c0-.29.15-.46.49-.46h2.98c.29,0,.46.17.46.46v7.81h3.7v-7.81Z"/>
        <path class="cls-1" d="M116.13,121.18c0-2.72,1.45-4.17,4.17-4.17h3.24c2.72,0,4.17,1.45,4.17,4.17v11.92c0,2.72-1.45,4.17-4.17,4.17h-3.24c-2.72,0-4.17-1.45-4.17-4.17v-11.92ZM122.9,133.54c.75,0,1.16-.38,1.16-1.16v-10.48c0-.75-.41-1.16-1.16-1.16h-1.85c-.75,0-1.16.41-1.16,1.16v10.48c0,.78.41,1.16,1.16,1.16h1.85Z"/>
        <path class="cls-1" d="M148.54,117.01c.4,0,.61.23.55.61l-2.78,19.13c-.06.35-.26.52-.64.52h-3.12c-.35,0-.55-.17-.64-.52l-2.66-11.86-2.69,11.86c-.09.35-.29.52-.64.52h-3.18c-.38,0-.58-.17-.64-.55l-2.66-19.1c-.06-.38.15-.61.55-.61h2.72c.35,0,.55.17.61.55l1.42,12.1h.14l2.84-12.15c.09-.32.29-.49.64-.49h1.77c.35,0,.55.17.64.49l2.84,12.15h.14l1.48-12.1c.06-.38.23-.55.61-.55h2.72Z"/>
        <path class="cls-1" d="M163.25,124.31c0,.29-.17.46-.46.46h-2.72c-.32,0-.46-.17-.46-.46v-2.37c0-.75-.41-1.16-1.16-1.16h-1.85c-.78,0-1.16.4-1.16,1.16v10.51c0,.78.41,1.16,1.16,1.16h1.85c.75,0,1.16-.38,1.16-1.16v-2.46c0-.29.14-.46.46-.46h2.72c.29,0,.46.17.46.46v3.12c0,2.72-1.48,4.17-4.17,4.17h-3.24c-2.72,0-4.2-1.45-4.2-4.17v-11.92c0-2.72,1.48-4.17,4.2-4.17h3.24c2.69,0,4.17,1.45,4.17,4.17v3.13Z"/>
        <path class="cls-1" d="M176.42,137.27c-.26,0-.41-.15-.46-.41l-.93-3.65h-5.44l-.9,3.65c-.06.26-.2.41-.46.41h-2.84c-.32,0-.46-.17-.38-.49l4.8-19.36c.06-.29.23-.41.49-.41h4.02c.26,0,.43.12.49.41l4.8,19.36c.09.32-.06.49-.41.49h-2.81ZM172.31,121.99l-1.82,7.87h3.65l-1.82-7.87Z"/>
        <path class="cls-1" d="M188.52,117.01c2.72,0,4.17,1.45,4.17,4.17v1.91c0,.29-.15.46-.46.46h-2.92c-.29,0-.46-.17-.46-.46v-1.21c0-.75-.38-1.16-1.16-1.16h-1.59c-.72,0-1.16.41-1.16,1.16v2.46l7,2.26c.49.17.75.52.75,1.07v5.44c0,2.72-1.45,4.17-4.17,4.17h-3.24c-2.69,0-4.17-1.45-4.17-4.17v-1.88c0-.32.17-.46.46-.46h2.92c.32,0,.46.14.46.46v1.22c0,.78.43,1.16,1.16,1.16h1.56c.75,0,1.16-.38,1.16-1.16v-2.92l-6.95-2.26c-.52-.17-.78-.52-.78-1.07v-5.01c0-2.72,1.48-4.17,4.17-4.17h3.24Z"/>
        <path class="cls-1" d="M207.13,120.37c0,.29-.12.49-.46.49h-7.15v4.46h5.44c.29,0,.46.17.46.49v2.86c0,.32-.17.49-.46.49h-5.44v4.28h7.15c.35,0,.46.15.46.46v2.89c0,.29-.12.46-.46.46h-10.65c-.26,0-.43-.17-.43-.46v-19.33c0-.29.17-.46.43-.46h10.65c.35,0,.46.17.46.46v2.89Z"/>
        <path class="cls-1" d="M221.6,129.66c-.29.17-.41.38-.41.69v2.52c0,.38.2.58.58.58h3.12v-1.19c0-.38.2-.58.58-.58h2.78c.38,0,.58.2.58.58v4.43c0,.38-.2.58-.58.58h-10.42c-.38,0-.58-.2-.58-.58v-8.54c0-.55.2-.78.75-1.07l6.89-3.7v-4.28c0-.75-.43-1.16-1.16-1.16h-1.39c-.78,0-1.16.41-1.16,1.16v2.26c0,.29-.17.46-.46.46h-3.01c-.32,0-.46-.17-.46-.46v-3.07c0-2.72,1.45-4.17,4.17-4.17h3.24c2.69,0,4.17,1.45,4.17,4.17v6.83c0,.55-.23.78-.78,1.07l-6.45,3.47Z"/>
        <path class="cls-1" d="M239.26,123.06c2.63,0,4.05,1.42,4.05,4.05v6.11c0,2.63-1.42,4.05-4.05,4.05h-3.47c-2.63,0-4.05-1.42-4.05-4.05v-7.44c0-.55.09-.93.29-1.45l4.11-9.78c.12-.29.32-.43.67-.43h3.01c.43,0,.61.26.43.67l-3.5,8.28h2.52ZM238.33,133.45c.75,0,1.16-.41,1.16-1.16v-4.25c0-.75-.41-1.16-1.16-1.16h-1.62c-.75,0-1.16.41-1.16,1.16v4.25c0,.75.41,1.16,1.16,1.16h1.62Z"/>
        <path class="cls-1" d="M246.21,114.7c0-.38.2-.58.58-.58h2.63c.38,0,.58.2.58.58v2.84c0,.29-.06.49-.2.72l-1.56,2.37c-.09.15-.17.2-.35.2h-1.3c-.23,0-.32-.14-.23-.35l1.16-2.55h-.72c-.38,0-.58-.2-.58-.58v-2.66Z"/>
      </g>
    </g>
  </g>
</svg>