<?xml version="1.0" encoding="UTF-8"?>
<svg id="Layer_2" data-name="Layer 2" xmlns="http://www.w3.org/2000/svg" viewBox="0 0 223.08 97.37">
  <g id="Layer_1-2" data-name="Layer 1">
    <g id="Standard_Black" data-name="Standard Black">
      <polygon points="193.72 97.37 194.87 59.28 189.5 80.77 166.28 80.77 163.98 71.75 163.98 97.37 145.88 97.21 131.86 77.13 128.6 81.92 114.21 57.75 97.13 75.59 84.47 60.82 71.23 83.46 56.23 95.09 53.29 97.37 2.11 97.37 2.19 69.39 17.07 69.39 18.8 48.68 17.65 30.5 .57 30.5 0 0 56.41 0 55.66 29.9 41.63 29.35 40.1 48.68 41.63 69.39 56.45 69.39 56.37 78.74 61.34 48.68 62.69 0 85.14 0 96.27 48.68 111.04 0 132.53 0 134.84 56.98 137.01 79.54 141.03 51.8 143.84 0 166.28 0 177.41 48.68 192.19 0 213.67 0 215.98 56.98 223.08 97.37 193.72 97.37"/>
      <line x1="56.23" y1="95.09" x2="53.29" y2="97.37"/>
    </g>
  </g>
</svg>