<svg xmlns="http://www.w3.org/2000/svg" xmlns:xlink="http://www.w3.org/1999/xlink" width="797" zoomAndPan="magnify" viewBox="0 0 597.75 331.499995" height="442" preserveAspectRatio="xMidYMid meet" version="1.0"><defs><g/><clipPath id="7dd7d2a56b"><path d="M 10 0 L 584 0 L 584 248.625 L 10 248.625 Z M 10 0 " clip-rule="nonzero"/></clipPath><clipPath id="933f50c3d8"><rect x="0" width="573" y="0" height="68"/></clipPath></defs><g clip-path="url(#7dd7d2a56b)"><path fill="#ffffff" d="M 508.152344 250.203125 L 511.113281 152.316406 L 497.308594 207.554688 L 437.648438 207.554688 L 431.730469 184.371094 L 431.730469 250.203125 L 385.207031 249.789062 L 349.1875 198.199219 L 340.816406 210.511719 L 303.832031 148.398438 L 259.945312 194.234375 L 227.410156 156.285156 L 193.40625 214.457031 L 154.863281 244.332031 L 147.296875 250.203125 L 15.773438 250.203125 L 15.980469 178.296875 L 54.226562 178.296875 L 58.675781 125.078125 L 55.714844 78.371094 L 11.832031 78.371094 L 10.363281 0 L 155.320312 0 L 153.394531 76.835938 L 117.328125 75.414062 L 113.40625 125.078125 L 117.328125 178.296875 L 155.414062 178.296875 L 155.207031 202.328125 L 167.976562 125.078125 L 171.460938 0 L 229.128906 0 L 257.746094 125.078125 L 295.691406 0 L 350.90625 0 L 356.84375 146.425781 L 362.417969 204.390625 L 372.757812 133.101562 L 379.980469 0 L 437.648438 0 L 466.238281 125.078125 L 504.210938 0 L 559.402344 0 L 565.339844 146.425781 L 583.589844 250.203125 Z M 508.152344 250.203125 " fill-opacity="1" fill-rule="nonzero"/></g><g transform="matrix(1, 0, 0, 1, 12, 251)"><g clip-path="url(#933f50c3d8)"><g fill="#ffffff" fill-opacity="1"><g transform="translate(0.312463, 55.984437)"><g><path d="M 10.84375 -44.703125 L 17.09375 -44.703125 C 19.738281 -44.703125 21.738281 -44.019531 23.09375 -42.65625 C 24.457031 -41.300781 25.140625 -39.300781 25.140625 -36.65625 L 25.140625 -30.734375 C 25.140625 -30.140625 24.84375 -29.84375 24.25 -29.84375 L 18.4375 -29.84375 C 17.84375 -29.84375 17.546875 -30.140625 17.546875 -30.734375 L 17.546875 -35.09375 C 17.546875 -36.582031 16.800781 -37.328125 15.3125 -37.328125 L 12.625 -37.328125 C 11.132812 -37.328125 10.390625 -36.582031 10.390625 -35.09375 L 10.390625 -27.375 L 23.6875 -23.015625 C 24.65625 -22.609375 25.140625 -21.921875 25.140625 -20.953125 L 25.140625 -8.046875 C 25.140625 -5.441406 24.457031 -3.445312 23.09375 -2.0625 C 21.738281 -0.6875 19.738281 0 17.09375 0 L 10.84375 0 C 8.226562 0 6.234375 -0.6875 4.859375 -2.0625 C 3.484375 -3.445312 2.796875 -5.441406 2.796875 -8.046875 L 2.796875 -13.90625 C 2.796875 -14.507812 3.09375 -14.8125 3.6875 -14.8125 L 9.5 -14.8125 C 10.09375 -14.8125 10.390625 -14.507812 10.390625 -13.90625 L 10.390625 -9.609375 C 10.390625 -8.117188 11.132812 -7.375 12.625 -7.375 L 15.3125 -7.375 C 16.800781 -7.375 17.546875 -8.117188 17.546875 -9.609375 L 17.546875 -17.046875 L 4.296875 -21.40625 C 3.296875 -21.738281 2.796875 -22.425781 2.796875 -23.46875 L 2.796875 -36.65625 C 2.796875 -39.300781 3.484375 -41.300781 4.859375 -42.65625 C 6.234375 -44.019531 8.226562 -44.703125 10.84375 -44.703125 Z M 10.84375 -44.703125 "/></g></g></g><g fill="#ffffff" fill-opacity="1"><g transform="translate(29.982988, 55.984437)"><g><path d="M 25.09375 -43.8125 L 25.09375 -38.21875 C 25.09375 -37.582031 24.789062 -37.265625 24.1875 -37.265625 L 10.21875 -37.265625 L 10.21875 -26.09375 L 20.890625 -26.09375 C 21.492188 -26.09375 21.796875 -25.773438 21.796875 -25.140625 L 21.796875 -19.609375 C 21.796875 -18.972656 21.492188 -18.65625 20.890625 -18.65625 L 10.21875 -18.65625 L 10.21875 -7.375 L 24.1875 -7.375 C 24.789062 -7.375 25.09375 -7.078125 25.09375 -6.484375 L 25.09375 -0.890625 C 25.09375 -0.296875 24.789062 0 24.1875 0 L 3.625 0 C 3.070312 0 2.796875 -0.296875 2.796875 -0.890625 L 2.796875 -43.8125 C 2.796875 -44.40625 3.070312 -44.703125 3.625 -44.703125 L 24.1875 -44.703125 C 24.789062 -44.703125 25.09375 -44.40625 25.09375 -43.8125 Z M 25.09375 -43.8125 "/></g></g></g><g fill="#ffffff" fill-opacity="1"><g transform="translate(59.59764, 55.984437)"><g><path d="M 19.953125 -44.703125 L 25.765625 -44.703125 C 26.359375 -44.703125 26.65625 -44.40625 26.65625 -43.8125 L 26.65625 -0.890625 C 26.65625 -0.296875 26.359375 0 25.765625 0 L 20.234375 0 C 19.703125 0 19.363281 -0.238281 19.21875 -0.71875 L 10.671875 -24.578125 L 10.390625 -24.578125 L 10.390625 -0.890625 C 10.390625 -0.296875 10.09375 0 9.5 0 L 3.6875 0 C 3.09375 0 2.796875 -0.296875 2.796875 -0.890625 L 2.796875 -43.8125 C 2.796875 -44.40625 3.09375 -44.703125 3.6875 -44.703125 L 9.21875 -44.703125 C 9.738281 -44.703125 10.070312 -44.457031 10.21875 -43.96875 L 18.71875 -20.234375 L 19.046875 -20.234375 L 19.046875 -43.8125 C 19.046875 -44.40625 19.347656 -44.703125 19.953125 -44.703125 Z M 19.953125 -44.703125 "/></g></g></g><g fill="#ffffff" fill-opacity="1"><g transform="translate(90.776829, 55.984437)"><g><path d="M 3.6875 -44.703125 L 9.5 -44.703125 C 10.09375 -44.703125 10.390625 -44.40625 10.390625 -43.8125 L 10.390625 -0.890625 C 10.390625 -0.296875 10.09375 0 9.5 0 L 3.6875 0 C 3.09375 0 2.796875 -0.296875 2.796875 -0.890625 L 2.796875 -43.8125 C 2.796875 -44.40625 3.09375 -44.703125 3.6875 -44.703125 Z M 3.6875 -44.703125 "/></g></g></g><g fill="#ffffff" fill-opacity="1"><g transform="translate(105.696032, 55.984437)"><g><path d="M 2.796875 -8.046875 L 2.796875 -36.65625 C 2.796875 -39.300781 3.484375 -41.300781 4.859375 -42.65625 C 6.234375 -44.019531 8.226562 -44.703125 10.84375 -44.703125 L 17.09375 -44.703125 C 19.738281 -44.703125 21.738281 -44.019531 23.09375 -42.65625 C 24.457031 -41.300781 25.140625 -39.300781 25.140625 -36.65625 L 25.140625 -8.046875 C 25.140625 -5.441406 24.457031 -3.445312 23.09375 -2.0625 C 21.738281 -0.6875 19.738281 0 17.09375 0 L 10.84375 0 C 8.226562 0 6.234375 -0.6875 4.859375 -2.0625 C 3.484375 -3.445312 2.796875 -5.441406 2.796875 -8.046875 Z M 12.453125 -7.203125 L 15.703125 -7.203125 C 17.191406 -7.203125 17.9375 -7.945312 17.9375 -9.4375 L 17.9375 -35.25 C 17.9375 -36.738281 17.191406 -37.484375 15.703125 -37.484375 L 12.453125 -37.484375 C 10.960938 -37.484375 10.21875 -36.738281 10.21875 -35.25 L 10.21875 -9.4375 C 10.21875 -7.945312 10.960938 -7.203125 12.453125 -7.203125 Z M 12.453125 -7.203125 "/></g></g></g><g fill="#ffffff" fill-opacity="1"><g transform="translate(135.366557, 55.984437)"><g><path d="M 25.765625 -36.65625 L 25.765625 -23.015625 C 25.765625 -19.296875 24.398438 -16.835938 21.671875 -15.640625 L 25.53125 -1 C 25.71875 -0.332031 25.457031 0 24.75 0 L 18.9375 0 C 18.414062 0 18.097656 -0.257812 17.984375 -0.78125 L 14.25 -14.96875 L 10.390625 -14.96875 L 10.390625 -0.890625 C 10.390625 -0.296875 10.09375 0 9.5 0 L 3.6875 0 C 3.09375 0 2.796875 -0.296875 2.796875 -0.890625 L 2.796875 -43.8125 C 2.796875 -44.40625 3.09375 -44.703125 3.6875 -44.703125 L 17.71875 -44.703125 C 20.351562 -44.703125 22.351562 -44.019531 23.71875 -42.65625 C 25.082031 -41.300781 25.765625 -39.300781 25.765625 -36.65625 Z M 10.390625 -22.34375 L 15.921875 -22.34375 C 17.410156 -22.34375 18.15625 -23.085938 18.15625 -24.578125 L 18.15625 -35.09375 C 18.15625 -36.582031 17.410156 -37.328125 15.921875 -37.328125 L 10.390625 -37.328125 Z M 10.390625 -22.34375 "/></g></g></g><g fill="#ffffff" fill-opacity="1"><g transform="translate(165.651726, 55.984437)"><g/></g></g><g fill="#ffffff" fill-opacity="1"><g transform="translate(181.353192, 55.984437)"><g><path d="M 10.84375 -44.703125 L 17.09375 -44.703125 C 19.738281 -44.703125 21.738281 -44.019531 23.09375 -42.65625 C 24.457031 -41.300781 25.140625 -39.300781 25.140625 -36.65625 L 25.140625 -30.734375 C 25.140625 -30.140625 24.84375 -29.84375 24.25 -29.84375 L 18.4375 -29.84375 C 17.84375 -29.84375 17.546875 -30.140625 17.546875 -30.734375 L 17.546875 -35.09375 C 17.546875 -36.582031 16.800781 -37.328125 15.3125 -37.328125 L 12.625 -37.328125 C 11.132812 -37.328125 10.390625 -36.582031 10.390625 -35.09375 L 10.390625 -27.375 L 23.6875 -23.015625 C 24.65625 -22.609375 25.140625 -21.921875 25.140625 -20.953125 L 25.140625 -8.046875 C 25.140625 -5.441406 24.457031 -3.445312 23.09375 -2.0625 C 21.738281 -0.6875 19.738281 0 17.09375 0 L 10.84375 0 C 8.226562 0 6.234375 -0.6875 4.859375 -2.0625 C 3.484375 -3.445312 2.796875 -5.441406 2.796875 -8.046875 L 2.796875 -13.90625 C 2.796875 -14.507812 3.09375 -14.8125 3.6875 -14.8125 L 9.5 -14.8125 C 10.09375 -14.8125 10.390625 -14.507812 10.390625 -13.90625 L 10.390625 -9.609375 C 10.390625 -8.117188 11.132812 -7.375 12.625 -7.375 L 15.3125 -7.375 C 16.800781 -7.375 17.546875 -8.117188 17.546875 -9.609375 L 17.546875 -17.046875 L 4.296875 -21.40625 C 3.296875 -21.738281 2.796875 -22.425781 2.796875 -23.46875 L 2.796875 -36.65625 C 2.796875 -39.300781 3.484375 -41.300781 4.859375 -42.65625 C 6.234375 -44.019531 8.226562 -44.703125 10.84375 -44.703125 Z M 10.84375 -44.703125 "/></g></g></g><g fill="#ffffff" fill-opacity="1"><g transform="translate(211.023706, 55.984437)"><g><path d="M 17.546875 -26.03125 L 17.546875 -43.8125 C 17.546875 -44.40625 17.84375 -44.703125 18.4375 -44.703125 L 24.1875 -44.703125 C 24.820312 -44.703125 25.140625 -44.40625 25.140625 -43.8125 L 25.140625 -0.890625 C 25.140625 -0.296875 24.820312 0 24.1875 0 L 18.4375 0 C 17.84375 0 17.546875 -0.296875 17.546875 -0.890625 L 17.546875 -18.65625 L 10.390625 -18.65625 L 10.390625 -0.890625 C 10.390625 -0.296875 10.09375 0 9.5 0 L 3.75 0 C 3.113281 0 2.796875 -0.296875 2.796875 -0.890625 L 2.796875 -43.8125 C 2.796875 -44.40625 3.113281 -44.703125 3.75 -44.703125 L 9.5 -44.703125 C 10.09375 -44.703125 10.390625 -44.40625 10.390625 -43.8125 L 10.390625 -26.03125 Z M 17.546875 -26.03125 "/></g></g></g><g fill="#ffffff" fill-opacity="1"><g transform="translate(240.694241, 55.984437)"><g><path d="M 2.796875 -8.046875 L 2.796875 -36.65625 C 2.796875 -39.300781 3.484375 -41.300781 4.859375 -42.65625 C 6.234375 -44.019531 8.226562 -44.703125 10.84375 -44.703125 L 17.09375 -44.703125 C 19.738281 -44.703125 21.738281 -44.019531 23.09375 -42.65625 C 24.457031 -41.300781 25.140625 -39.300781 25.140625 -36.65625 L 25.140625 -8.046875 C 25.140625 -5.441406 24.457031 -3.445312 23.09375 -2.0625 C 21.738281 -0.6875 19.738281 0 17.09375 0 L 10.84375 0 C 8.226562 0 6.234375 -0.6875 4.859375 -2.0625 C 3.484375 -3.445312 2.796875 -5.441406 2.796875 -8.046875 Z M 12.453125 -7.203125 L 15.703125 -7.203125 C 17.191406 -7.203125 17.9375 -7.945312 17.9375 -9.4375 L 17.9375 -35.25 C 17.9375 -36.738281 17.191406 -37.484375 15.703125 -37.484375 L 12.453125 -37.484375 C 10.960938 -37.484375 10.21875 -36.738281 10.21875 -35.25 L 10.21875 -9.4375 C 10.21875 -7.945312 10.960938 -7.203125 12.453125 -7.203125 Z M 12.453125 -7.203125 "/></g></g></g><g fill="#ffffff" fill-opacity="1"><g transform="translate(270.364776, 55.984437)"><g><path d="M 33.359375 -44.703125 L 38.671875 -44.703125 C 39.453125 -44.703125 39.804688 -44.3125 39.734375 -43.53125 L 34.921875 -1.0625 C 34.878906 -0.351562 34.488281 0 33.75 0 L 28.265625 0 C 27.640625 0 27.234375 -0.332031 27.046875 -1 L 21.234375 -26.265625 L 15.359375 -0.953125 C 15.179688 -0.316406 14.773438 0 14.140625 0 L 8.546875 0 C 7.804688 0 7.414062 -0.351562 7.375 -1.0625 L 2.796875 -43.53125 C 2.722656 -44.3125 3.078125 -44.703125 3.859375 -44.703125 L 9.15625 -44.703125 C 9.863281 -44.703125 10.257812 -44.347656 10.34375 -43.640625 L 12.515625 -17.484375 L 12.796875 -17.484375 L 18.328125 -43.6875 C 18.515625 -44.363281 18.925781 -44.703125 19.5625 -44.703125 L 22.90625 -44.703125 C 23.582031 -44.703125 23.992188 -44.363281 24.140625 -43.6875 L 29.609375 -17.484375 L 29.890625 -17.484375 L 32.1875 -43.640625 C 32.257812 -44.347656 32.648438 -44.703125 33.359375 -44.703125 Z M 33.359375 -44.703125 "/></g></g></g><g fill="#ffffff" fill-opacity="1"><g transform="translate(314.618993, 55.984437)"><g><path d="M 25.203125 -36.65625 L 25.203125 -30.625 C 25.203125 -30.019531 24.90625 -29.71875 24.3125 -29.71875 L 18.71875 -29.71875 C 18.125 -29.71875 17.828125 -30.019531 17.828125 -30.625 L 17.828125 -35.09375 C 17.828125 -36.582031 17.082031 -37.328125 15.59375 -37.328125 L 12.6875 -37.328125 C 11.195312 -37.328125 10.453125 -36.582031 10.453125 -35.09375 L 10.453125 -9.609375 C 10.453125 -8.117188 11.195312 -7.375 12.6875 -7.375 L 15.59375 -7.375 C 17.082031 -7.375 17.828125 -8.117188 17.828125 -9.609375 L 17.828125 -14.078125 C 17.828125 -14.671875 18.125 -14.96875 18.71875 -14.96875 L 24.3125 -14.96875 C 24.90625 -14.96875 25.203125 -14.671875 25.203125 -14.078125 L 25.203125 -8.046875 C 25.203125 -5.441406 24.507812 -3.445312 23.125 -2.0625 C 21.75 -0.6875 19.757812 0 17.15625 0 L 10.890625 0 C 8.285156 0 6.285156 -0.6875 4.890625 -2.0625 C 3.492188 -3.445312 2.796875 -5.441406 2.796875 -8.046875 L 2.796875 -36.65625 C 2.796875 -39.300781 3.492188 -41.300781 4.890625 -42.65625 C 6.285156 -44.019531 8.285156 -44.703125 10.890625 -44.703125 L 17.15625 -44.703125 C 19.757812 -44.703125 21.75 -44.019531 23.125 -42.65625 C 24.507812 -41.300781 25.203125 -39.300781 25.203125 -36.65625 Z M 25.203125 -36.65625 "/></g></g></g><g fill="#ffffff" fill-opacity="1"><g transform="translate(344.345401, 55.984437)"><g><path d="M 29.71875 0 L 23.796875 0 C 23.316406 0 23.019531 -0.257812 22.90625 -0.78125 L 21.34375 -8.9375 L 11.40625 -8.9375 L 9.890625 -0.78125 C 9.773438 -0.257812 9.476562 0 9 0 L 3.015625 0 C 2.347656 0 2.109375 -0.316406 2.296875 -0.953125 L 11.5625 -43.921875 C 11.675781 -44.441406 11.992188 -44.703125 12.515625 -44.703125 L 20.28125 -44.703125 C 20.800781 -44.703125 21.117188 -44.441406 21.234375 -43.921875 L 30.5 -0.953125 C 30.613281 -0.316406 30.351562 0 29.71875 0 Z M 19.953125 -15.421875 L 16.375 -34.921875 L 12.796875 -15.421875 Z M 19.953125 -15.421875 "/></g></g></g><g fill="#ffffff" fill-opacity="1"><g transform="translate(378.821284, 55.984437)"><g><path d="M 10.84375 -44.703125 L 17.09375 -44.703125 C 19.738281 -44.703125 21.738281 -44.019531 23.09375 -42.65625 C 24.457031 -41.300781 25.140625 -39.300781 25.140625 -36.65625 L 25.140625 -30.734375 C 25.140625 -30.140625 24.84375 -29.84375 24.25 -29.84375 L 18.4375 -29.84375 C 17.84375 -29.84375 17.546875 -30.140625 17.546875 -30.734375 L 17.546875 -35.09375 C 17.546875 -36.582031 16.800781 -37.328125 15.3125 -37.328125 L 12.625 -37.328125 C 11.132812 -37.328125 10.390625 -36.582031 10.390625 -35.09375 L 10.390625 -27.375 L 23.6875 -23.015625 C 24.65625 -22.609375 25.140625 -21.921875 25.140625 -20.953125 L 25.140625 -8.046875 C 25.140625 -5.441406 24.457031 -3.445312 23.09375 -2.0625 C 21.738281 -0.6875 19.738281 0 17.09375 0 L 10.84375 0 C 8.226562 0 6.234375 -0.6875 4.859375 -2.0625 C 3.484375 -3.445312 2.796875 -5.441406 2.796875 -8.046875 L 2.796875 -13.90625 C 2.796875 -14.507812 3.09375 -14.8125 3.6875 -14.8125 L 9.5 -14.8125 C 10.09375 -14.8125 10.390625 -14.507812 10.390625 -13.90625 L 10.390625 -9.609375 C 10.390625 -8.117188 11.132812 -7.375 12.625 -7.375 L 15.3125 -7.375 C 16.800781 -7.375 17.546875 -8.117188 17.546875 -9.609375 L 17.546875 -17.046875 L 4.296875 -21.40625 C 3.296875 -21.738281 2.796875 -22.425781 2.796875 -23.46875 L 2.796875 -36.65625 C 2.796875 -39.300781 3.484375 -41.300781 4.859375 -42.65625 C 6.234375 -44.019531 8.226562 -44.703125 10.84375 -44.703125 Z M 10.84375 -44.703125 "/></g></g></g><g fill="#ffffff" fill-opacity="1"><g transform="translate(408.491797, 55.984437)"><g><path d="M 25.09375 -43.8125 L 25.09375 -38.21875 C 25.09375 -37.582031 24.789062 -37.265625 24.1875 -37.265625 L 10.21875 -37.265625 L 10.21875 -26.09375 L 20.890625 -26.09375 C 21.492188 -26.09375 21.796875 -25.773438 21.796875 -25.140625 L 21.796875 -19.609375 C 21.796875 -18.972656 21.492188 -18.65625 20.890625 -18.65625 L 10.21875 -18.65625 L 10.21875 -7.375 L 24.1875 -7.375 C 24.789062 -7.375 25.09375 -7.078125 25.09375 -6.484375 L 25.09375 -0.890625 C 25.09375 -0.296875 24.789062 0 24.1875 0 L 3.625 0 C 3.070312 0 2.796875 -0.296875 2.796875 -0.890625 L 2.796875 -43.8125 C 2.796875 -44.40625 3.070312 -44.703125 3.625 -44.703125 L 24.1875 -44.703125 C 24.789062 -44.703125 25.09375 -44.40625 25.09375 -43.8125 Z M 25.09375 -43.8125 "/></g></g></g><g fill="#ffffff" fill-opacity="1"><g transform="translate(438.106481, 55.984437)"><g/></g></g><g fill="#ffffff" fill-opacity="1"><g transform="translate(453.807916, 55.984437)"><g><path d="M 23.640625 -21.40625 L 11.171875 -14.6875 C 10.648438 -14.394531 10.390625 -13.953125 10.390625 -13.359375 L 10.390625 -8.5 C 10.390625 -7.75 10.765625 -7.375 11.515625 -7.375 L 17.546875 -7.375 L 17.546875 -9.671875 C 17.546875 -10.410156 17.914062 -10.78125 18.65625 -10.78125 L 24.03125 -10.78125 C 24.769531 -10.78125 25.140625 -10.410156 25.140625 -9.671875 L 25.140625 -1.125 C 25.140625 -0.375 24.769531 0 24.03125 0 L 3.90625 0 C 3.164062 0 2.796875 -0.375 2.796875 -1.125 L 2.796875 -17.59375 C 2.796875 -18.125 2.90625 -18.535156 3.125 -18.828125 C 3.351562 -19.128906 3.726562 -19.410156 4.25 -19.671875 L 17.546875 -26.8125 L 17.546875 -35.09375 C 17.546875 -36.582031 16.800781 -37.328125 15.3125 -37.328125 L 12.625 -37.328125 C 11.132812 -37.328125 10.390625 -36.582031 10.390625 -35.09375 L 10.390625 -30.734375 C 10.390625 -30.140625 10.09375 -29.84375 9.5 -29.84375 L 3.6875 -29.84375 C 3.09375 -29.84375 2.796875 -30.140625 2.796875 -30.734375 L 2.796875 -36.65625 C 2.796875 -39.300781 3.484375 -41.300781 4.859375 -42.65625 C 6.234375 -44.019531 8.226562 -44.703125 10.84375 -44.703125 L 17.09375 -44.703125 C 19.707031 -44.703125 21.703125 -44.019531 23.078125 -42.65625 C 24.453125 -41.300781 25.140625 -39.300781 25.140625 -36.65625 L 25.140625 -23.46875 C 25.140625 -22.945312 25.019531 -22.546875 24.78125 -22.265625 C 24.539062 -21.984375 24.160156 -21.695312 23.640625 -21.40625 Z M 23.640625 -21.40625 "/></g></g></g><g fill="#ffffff" fill-opacity="1"><g transform="translate(483.478429, 55.984437)"><g><path d="M 2.796875 -8.046875 L 2.796875 -36.65625 C 2.796875 -39.300781 3.484375 -41.300781 4.859375 -42.65625 C 6.234375 -44.019531 8.226562 -44.703125 10.84375 -44.703125 L 17.09375 -44.703125 C 19.738281 -44.703125 21.738281 -44.019531 23.09375 -42.65625 C 24.457031 -41.300781 25.140625 -39.300781 25.140625 -36.65625 L 25.140625 -8.046875 C 25.140625 -5.441406 24.457031 -3.445312 23.09375 -2.0625 C 21.738281 -0.6875 19.738281 0 17.09375 0 L 10.84375 0 C 8.226562 0 6.234375 -0.6875 4.859375 -2.0625 C 3.484375 -3.445312 2.796875 -5.441406 2.796875 -8.046875 Z M 12.453125 -7.203125 L 15.703125 -7.203125 C 17.191406 -7.203125 17.9375 -7.945312 17.9375 -9.4375 L 17.9375 -35.25 C 17.9375 -36.738281 17.191406 -37.484375 15.703125 -37.484375 L 12.453125 -37.484375 C 10.960938 -37.484375 10.21875 -36.738281 10.21875 -35.25 L 10.21875 -9.4375 C 10.21875 -7.945312 10.960938 -7.203125 12.453125 -7.203125 Z M 12.453125 -7.203125 "/></g></g></g><g fill="#ffffff" fill-opacity="1"><g transform="translate(513.148985, 55.984437)"><g><path d="M 23.640625 -21.40625 L 11.171875 -14.6875 C 10.648438 -14.394531 10.390625 -13.953125 10.390625 -13.359375 L 10.390625 -8.5 C 10.390625 -7.75 10.765625 -7.375 11.515625 -7.375 L 17.546875 -7.375 L 17.546875 -9.671875 C 17.546875 -10.410156 17.914062 -10.78125 18.65625 -10.78125 L 24.03125 -10.78125 C 24.769531 -10.78125 25.140625 -10.410156 25.140625 -9.671875 L 25.140625 -1.125 C 25.140625 -0.375 24.769531 0 24.03125 0 L 3.90625 0 C 3.164062 0 2.796875 -0.375 2.796875 -1.125 L 2.796875 -17.59375 C 2.796875 -18.125 2.90625 -18.535156 3.125 -18.828125 C 3.351562 -19.128906 3.726562 -19.410156 4.25 -19.671875 L 17.546875 -26.8125 L 17.546875 -35.09375 C 17.546875 -36.582031 16.800781 -37.328125 15.3125 -37.328125 L 12.625 -37.328125 C 11.132812 -37.328125 10.390625 -36.582031 10.390625 -35.09375 L 10.390625 -30.734375 C 10.390625 -30.140625 10.09375 -29.84375 9.5 -29.84375 L 3.6875 -29.84375 C 3.09375 -29.84375 2.796875 -30.140625 2.796875 -30.734375 L 2.796875 -36.65625 C 2.796875 -39.300781 3.484375 -41.300781 4.859375 -42.65625 C 6.234375 -44.019531 8.226562 -44.703125 10.84375 -44.703125 L 17.09375 -44.703125 C 19.707031 -44.703125 21.703125 -44.019531 23.078125 -42.65625 C 24.453125 -41.300781 25.140625 -39.300781 25.140625 -36.65625 L 25.140625 -23.46875 C 25.140625 -22.945312 25.019531 -22.546875 24.78125 -22.265625 C 24.539062 -21.984375 24.160156 -21.695312 23.640625 -21.40625 Z M 23.640625 -21.40625 "/></g></g></g><g fill="#ffffff" fill-opacity="1"><g transform="translate(542.819499, 55.984437)"><g><path d="M 12.453125 -27.4375 L 17.328125 -27.4375 C 19.859375 -27.4375 21.789062 -26.765625 23.125 -25.421875 C 24.46875 -24.078125 25.140625 -22.140625 25.140625 -19.609375 L 25.140625 -7.828125 C 25.140625 -5.285156 24.46875 -3.34375 23.125 -2 C 21.789062 -0.664062 19.859375 0 17.328125 0 L 10.609375 0 C 8.078125 0 6.140625 -0.664062 4.796875 -2 C 3.460938 -3.34375 2.796875 -5.285156 2.796875 -7.828125 L 2.796875 -22.1875 C 2.796875 -22.707031 2.84375 -23.179688 2.9375 -23.609375 C 3.03125 -24.035156 3.171875 -24.488281 3.359375 -24.96875 L 11.28125 -43.859375 C 11.507812 -44.421875 11.941406 -44.703125 12.578125 -44.703125 L 18.390625 -44.703125 C 19.316406 -44.703125 19.59375 -44.273438 19.21875 -43.421875 Z M 12.40625 -7.375 L 15.53125 -7.375 C 17.019531 -7.375 17.765625 -8.117188 17.765625 -9.609375 L 17.765625 -17.828125 C 17.765625 -19.316406 17.019531 -20.0625 15.53125 -20.0625 L 12.40625 -20.0625 C 10.914062 -20.0625 10.171875 -19.316406 10.171875 -17.828125 L 10.171875 -9.609375 C 10.171875 -8.117188 10.914062 -7.375 12.40625 -7.375 Z M 12.40625 -7.375 "/></g></g></g></g></g></svg>