<?xml version="1.0" encoding="UTF-8"?>
<svg id="Layer_2" data-name="Layer 2" xmlns="http://www.w3.org/2000/svg" viewBox="0 0 234.94 50">
  <defs>
    <style>
      .cls-1 {
        fill: #165c45;
      }
    </style>
  </defs>
  <g id="Layer_1-2" data-name="Layer 1">
    <g id="Wm_Green" data-name="Wm Green">
      <g>
        <path class="cls-1" d="M123.56,0h3.12c1.32,0,2.31.34,2.99,1.03.68.68,1.02,1.68,1.02,3.01v2.96c0,.3-.15.45-.45.45h-2.89c-.3,0-.45-.15-.45-.45v-2.19c0-.75-.37-1.12-1.11-1.12h-1.33c-.74,0-1.11.37-1.11,1.12v3.87l6.63,2.18c.48.21.72.55.72,1.04v6.47c0,1.31-.34,2.3-1.02,3-.68.69-1.67,1.03-2.99,1.03h-3.12c-1.3,0-2.29-.34-2.98-1.03-.69-.69-1.03-1.69-1.03-3v-2.94c0-.3.15-.45.45-.45h2.89c.3,0,.45.15.45.45v2.16c0,.75.37,1.12,1.11,1.12h1.33c.74,0,1.11-.37,1.11-1.12v-3.73l-6.59-2.18c-.5-.17-.75-.52-.75-1.04v-6.6c0-1.33.34-2.33,1.03-3.01.69-.68,1.68-1.03,2.98-1.03Z"/>
        <path class="cls-1" d="M144.58,3.25v2.8c0,.32-.15.48-.45.48h-6.87v4.31h5.23c.3,0,.45.16.45.48v2.78c0,.32-.15.48-.45.48h-5.23v4.14h6.87c.3,0,.45.15.45.45v2.8c0,.3-.15.45-.45.45h-10.25c-.28,0-.41-.15-.41-.45V3.25c0-.3.14-.45.41-.45h10.25c.3,0,.45.15.45.45Z"/>
        <path class="cls-1" d="M156.2,2.8h2.61c.3,0,.45.15.45.45v18.7c0,.3-.15.45-.45.45h-2.2c-.22,0-.39-.12-.5-.36l-5.23-10.7v10.61c0,.3-.15.45-.45.45h-2.61c-.3,0-.45-.15-.45-.45V3.25c0-.3.15-.45.45-.45h2.2c.22,0,.39.12.5.36l5.23,10.69V3.25c0-.3.15-.45.45-.45Z"/>
        <path class="cls-1" d="M162.49,2.8h2.89c.25,0,.45.2.45.45v18.7c0,.25-.2.45-.45.45h-2.89c-.25,0-.45-.2-.45-.45V3.25c0-.25.2-.45.45-.45Z"/>
        <path class="cls-1" d="M168.61,18.37V6.83c0-1.32.34-2.32,1.03-3,.69-.68,1.68-1.03,2.98-1.03h3.12c1.32,0,2.31.34,2.99,1.03.68.68,1.02,1.68,1.02,3v11.54c0,1.31-.34,2.3-1.02,3-.68.69-1.67,1.03-2.99,1.03h-3.12c-1.3,0-2.29-.34-2.98-1.03-.69-.69-1.03-1.69-1.03-3ZM173.35,18.79h1.78c.74,0,1.11-.37,1.11-1.12V7.54c0-.75-.37-1.12-1.11-1.12h-1.78c-.74,0-1.11.37-1.11,1.12v10.13c0,.75.37,1.12,1.11,1.12Z"/>
        <path class="cls-1" d="M193.67,6.83v5.63c0,1.62-.52,2.76-1.56,3.41l1.45,6.02c.09.34-.04.5-.39.5h-2.73c-.26,0-.42-.13-.47-.39l-1.34-5.52h-2.47v5.46c0,.3-.15.45-.45.45h-2.73c-.3,0-.45-.15-.45-.45V3.25c0-.3.15-.45.45-.45h6.68c1.32,0,2.31.34,2.99,1.03.68.68,1.02,1.68,1.02,3ZM186.16,12.88h2.78c.74,0,1.11-.37,1.11-1.12v-4.22c0-.75-.37-1.12-1.11-1.12h-2.78v6.46Z"/>
        <path class="cls-1" d="M123.56,27.6h3.12c1.32,0,2.31.34,2.99,1.03.68.68,1.02,1.68,1.02,3.01v2.96c0,.3-.15.45-.45.45h-2.89c-.3,0-.45-.15-.45-.45v-2.19c0-.75-.37-1.12-1.11-1.12h-1.33c-.74,0-1.11.37-1.11,1.12v3.87l6.63,2.18c.48.21.72.55.72,1.04v6.47c0,1.31-.34,2.3-1.02,3-.68.69-1.67,1.03-2.99,1.03h-3.12c-1.3,0-2.29-.34-2.98-1.03-.69-.69-1.03-1.69-1.03-3v-2.94c0-.3.15-.45.45-.45h2.89c.3,0,.45.15.45.45v2.16c0,.75.37,1.12,1.11,1.12h1.33c.74,0,1.11-.37,1.11-1.12v-3.73l-6.59-2.18c-.5-.17-.75-.52-.75-1.04v-6.6c0-1.33.34-2.33,1.03-3.01.69-.68,1.68-1.03,2.98-1.03Z"/>
        <path class="cls-1" d="M140.82,38.41v-7.56c0-.3.15-.45.45-.45h2.87c.32,0,.47.15.47.45v18.7c0,.3-.16.45-.47.45h-2.87c-.3,0-.45-.15-.45-.45v-7.45h-3.56v7.45c0,.3-.15.45-.45.45h-2.87c-.32,0-.47-.15-.47-.45v-18.7c0-.3.16-.45.47-.45h2.87c.3,0,.45.15.45.45v7.56h3.56Z"/>
        <path class="cls-1" d="M147.4,45.97v-11.54c0-1.32.34-2.32,1.03-3,.69-.68,1.68-1.03,2.98-1.03h3.12c1.32,0,2.31.34,2.99,1.03.68.68,1.02,1.68,1.02,3v11.54c0,1.31-.34,2.3-1.02,3-.68.69-1.67,1.03-2.99,1.03h-3.12c-1.3,0-2.29-.34-2.98-1.03-.69-.69-1.03-1.69-1.03-3ZM152.13,46.39h1.78c.74,0,1.11-.37,1.11-1.12v-10.13c0-.75-.37-1.12-1.11-1.12h-1.78c-.74,0-1.11.37-1.11,1.12v10.13c0,.75.37,1.12,1.11,1.12Z"/>
        <path class="cls-1" d="M175.96,30.4h2.62c.41,0,.58.19.53.58l-2.67,18.51c-.05.34-.26.5-.61.5h-3.01c-.32,0-.52-.17-.61-.5l-2.57-11.48-2.59,11.48c-.08.34-.28.5-.61.5h-3.06c-.35,0-.56-.18-.61-.53l-2.56-18.49c-.06-.39.12-.58.53-.58h2.62c.33,0,.53.18.58.53l1.37,11.71h.14l2.73-11.76c.09-.32.3-.48.61-.48h1.7c.32,0,.52.16.61.48l2.73,11.76h.14l1.42-11.71c.05-.35.25-.53.58-.53Z"/>
        <path class="cls-1" d="M192.72,34.43v3.02c0,.3-.15.45-.44.45h-2.62c-.3,0-.45-.15-.45-.45v-2.29c0-.75-.37-1.12-1.11-1.12h-1.78c-.74,0-1.11.37-1.11,1.12v10.16c0,.75.37,1.12,1.11,1.12h1.78c.74,0,1.11-.37,1.11-1.12v-2.38c0-.3.15-.45.45-.45h2.62c.29,0,.44.15.44.45v3.02c0,1.31-.35,2.3-1.03,3-.69.69-1.68,1.03-2.97,1.03h-3.12c-1.3,0-2.3-.34-2.99-1.03-.69-.69-1.04-1.69-1.04-3v-11.54c0-1.32.35-2.32,1.04-3,.7-.68,1.7-1.03,2.99-1.03h3.12c1.3,0,2.29.34,2.97,1.03.69.68,1.03,1.68,1.03,3Z"/>
        <path class="cls-1" d="M208.1,50h-2.7c-.24,0-.39-.13-.45-.39l-.89-3.53h-5.23l-.86,3.53c-.06.26-.21.39-.45.39h-2.73c-.33,0-.46-.16-.37-.48l4.63-18.73c.05-.26.21-.39.47-.39h3.87c.26,0,.42.13.47.39l4.62,18.73c.09.32-.04.48-.39.48ZM203.2,42.83l-1.75-7.62-1.75,7.62h3.51Z"/>
        <path class="cls-1" d="M213.91,30.4h3.12c1.32,0,2.31.34,2.99,1.03.68.68,1.02,1.68,1.02,3v1.85c0,.3-.15.45-.45.45h-2.81c-.3,0-.45-.15-.45-.45v-1.18c0-.75-.37-1.12-1.11-1.12h-1.53c-.74,0-1.11.37-1.11,1.12v2.38l6.74,2.19c.48.17.72.52.72,1.04v5.26c0,1.31-.34,2.3-1.02,3-.68.69-1.67,1.03-2.99,1.03h-3.12c-1.3,0-2.29-.34-2.98-1.03-.69-.69-1.03-1.69-1.03-3v-1.82c0-.3.15-.45.45-.45h2.81c.3,0,.45.15.45.45v1.18c0,.75.37,1.12,1.11,1.12h1.51c.74,0,1.11-.37,1.11-1.12v-2.83l-6.68-2.19c-.5-.16-.75-.51-.75-1.03v-4.85c0-1.32.34-2.32,1.03-3,.69-.68,1.68-1.03,2.98-1.03Z"/>
        <path class="cls-1" d="M234.94,30.85v2.8c0,.32-.15.48-.45.48h-6.87v4.31h5.23c.3,0,.45.16.45.48v2.78c0,.32-.15.48-.45.48h-5.23v4.14h6.87c.3,0,.45.15.45.45v2.8c0,.3-.15.45-.45.45h-10.25c-.28,0-.41-.15-.41-.45v-18.7c0-.3.14-.45.41-.45h10.25c.3,0,.45.15.45.45Z"/>
      </g>
      <polygon class="cls-1" points="99.48 50 100.07 30.44 97.31 41.48 85.39 41.48 84.2 36.84 84.2 50 74.91 49.92 67.71 39.61 66.04 42.07 58.65 29.65 49.88 38.82 43.38 31.23 36.58 42.86 28.87 48.83 27.36 50 1.08 50 1.12 35.63 8.77 35.63 9.65 25 9.06 15.66 .29 15.66 0 0 28.97 0 28.58 15.35 21.38 15.07 20.59 25 21.38 35.63 28.99 35.63 28.95 40.43 31.5 25 32.19 0 43.72 0 49.44 25 57.02 0 68.05 0 69.24 29.26 70.36 40.84 72.42 26.6 73.86 0 85.39 0 91.1 25 98.69 0 109.72 0 110.91 29.26 114.55 50 99.48 50"/>
    </g>
  </g>
</svg>